{
.appVersion = "3414";
DisplayStrings = (
I
);
classes = (
{
code = "Euro bar cent colon comma degree divide dollar eight equal five four greater less minus multiply nine numbersign one paragraph percent period periodcentered plus plusminus quotedbl quotesingle section semicolon seven six slash sterling three two underscore yen zero";
name = tnum1;
},
{
code = "Euro.tnum bar.tnum cent.tnum colon.tnum comma.tnum degree.tnum divide.tnum dollar.tnum eight.tnum equal.tnum five.tnum four.tnum greater.tnum less.tnum minus.tnum multiply.tnum nine.tnum numbersign.tnum one.tnum paragraph.tnum percent.tnum period.tnum periodcentered.tnum plus.tnum plusminus.tnum quotedbl.tnum quotesingle.tnum section.tnum semicolon.tnum seven.tnum six.tnum slash.tnum sterling.tnum three.tnum two.tnum underscore.tnum yen.tnum zero.tnum";
name = tnum2;
}
);
copyright = "Copyright 2020 The Libre Caslon Condensed Project Authors (https://github.com/ertekinno/libre-caslon-condensed)";
customParameters = (
{
name = openTypeOS2Panose;
value = (
2,
2,
6,
2,
6,
3,
0,
0,
0,
4
);
},
{
name = fsType;
value = (
);
},
{
name = blueFuzz;
value = 0;
},
{
name = blueScale;
value = 0.01667;
},
{
name = blueShift;
value = 10;
},
{
name = "Use Typo Metrics";
value = 1;
},
{
name = "Disable Last Change";
value = 1;
},
{
name = "Use Line Breaks";
value = 1;
},
{
name = license;
value = "This Font Software is licensed under the SIL Open Font License, Version 1.1. This license is available with a FAQ at: https://openfontlicense.org";
},
{
name = licenseURL;
value = "https://openfontlicense.org";
},
{
name = Axes;
value = (
{
Name = Weight;
Tag = wght;
}
);
}
);
date = "2020-04-22 21:30:27 +0000";
designer = "Pablo Impallari, Rodrigo Fuenzalida, Katja Schimmel, Ertekin Erdin";
designerURL = "https://fonts.google.com/";
disablesNiceNames = 1;
familyName = "Libre Caslon Condensed";
featurePrefixes = (
{
automatic = 1;
code = "languagesystem DFLT dflt;

































































glyphs = (
{
glyphname = A;
layers = (
{
anchors = (
{
name = bottom;
position = "{778, 0}";
},
{
name = topcap;
position = "{1040, 1643}";
}
);
background = {
anchors = (
{
name = bottom;
position = "{778, 0}";
},
{
name = topcap;
position = "{1040, 1643}";
}
);
paths = (
{
closed = 1;
nodes = (
"1028 1524 LINE",
"126 275 LINE SMOOTH",
"12 117 OFFCURVE",
"-45 71 OFFCURVE",
"-193 45 CURVE",
"-212 0 LINE",
"268 0 LINE",
"286 45 LINE",
"185 61 OFFCURVE",
"147 96 OFFCURVE",
"147 139 CURVE SMOOTH",
"147 172 OFFCURVE",
"164 201 OFFCURVE",
"215 271 CURVE SMOOTH",
"1002 1360 LINE"
);
},
{
closed = 1;
nodes = (
"835 639 LINE",
"454 639 LINE",
"402 565 LINE",
"826 565 LINE"
);
},
{
closed = 1;
nodes = (
"769 208 LINE SMOOTH",
"755 93 OFFCURVE",
"705 47 OFFCURVE",
"570 45 CURVE",
"550 0 LINE",
"1053 0 LINE",
"1072 45 LINE",
"949 55 OFFCURVE",
"927 92 OFFCURVE",
"937 182 CURVE SMOOTH",
"1083 1523 LINE",
"1028 1524 LINE",
"895 1286 LINE"
);
}
);
};
layerId = master01;
paths = (
{
closed = 1;
nodes = (
"1028 1524 LINE",
"126 275 LINE SMOOTH",
"12 117 OFFCURVE",
"-45 71 OFFCURVE",
"-193 45 CURVE",
"-212 0 LINE",
"268 0 LINE",
"286 45 LINE",
"185 61 OFFCURVE",
"147 96 OFFCURVE",
"147 139 CURVE SMOOTH",
"147 172 OFFCURVE",
"164 201 OFFCURVE",
"215 271 CURVE SMOOTH",
"1002 1360 LINE"
);
},
{
closed = 1;
nodes = (
"835 639 LINE",
"454 639 LINE",
"402 565 LINE",
"826 565 LINE"
);
},
{
closed = 1;
nodes = (
"769 208 LINE SMOOTH",
"755 93 OFFCURVE",
"705 47 OFFCURVE",
"570 45 CURVE",
"550 0 LINE",
"1053 0 LINE",
"1072 45 LINE",
"949 55 OFFCURVE",
"927 92 OFFCURVE",
"937 182 CURVE SMOOTH",
"1083 1523 LINE",
"1028 1524 LINE",
"895 1286 LINE"
);
}
);
width = 1258;
},
{
anchors = (
{
name = bottom;
position = "{886, 0}";
},
{
name = topcap;
position = "{1198, 1643}";
}
);
associatedMasterId = master01;
layerId = "CA5349ED-4193-4C38-9110-5E52926B6C4B";
name = "Jan 9 19, 13:25";
paths = (
{
closed = 1;
nodes = (
"264 0 LINE",
"289 55 LINE",
"172 71 OFFCURVE",
"122 94 OFFCURVE",
"120 136 CURVE SMOOTH",
"120 172 OFFCURVE",
"138 200 OFFCURVE",
"200 271 CURVE SMOOTH",
"456 565 LINE",
"925 565 LINE",
"875 208 LINE SMOOTH",
"857 85 OFFCURVE",
"793 58 OFFCURVE",
"644 55 CURVE",
"615 0 LINE",
"1224 0 LINE",
"1253 55 LINE",
"1130 63 OFFCURVE",
"1086 78 OFFCURVE",
"1084 149 CURVE SMOOTH",
"1084 159 OFFCURVE",
"1084 169 OFFCURVE",
"1086 182 CURVE SMOOTH",
"1267 1569 LINE",
"1052 1523 LINE",
"1032 1340 LINE",
"115 275 LINE SMOOTH",
"-13 128 OFFCURVE",
"-71 83 OFFCURVE",
"-260 55 CURVE",
"-287 0 LINE"
);
},
{
closed = 1;
nodes = (
"1018 1216 LINE",
"935 639 LINE",
"518 639 LINE"
);
}
);
width = 1480;
},
{
anchors = (
{
name = bottom;
position = "{838, 0}";
},
{
name = topcap;
position = "{984, 1643}";
}
);
background = {
anchors = (
{
name = bottom;
position = "{838, 0}";
},
{
name = topcap;
position = "{984, 1643}";
}
);
paths = (
{
closed = 1;
nodes = (
"1000 1523 LINE",
"120 292 LINE SMOOTH",
"-1 123 OFFCURVE",
"-32 102 OFFCURVE",
"-189 68 CURVE",
"-212 0 LINE",
"307 0 LINE",
"330 68 LINE",
"221 94 OFFCURVE",
"179 121 OFFCURVE",
"179 165 CURVE SMOOTH",
"179 193 OFFCURVE",
"197 231 OFFCURVE",
"238 289 CURVE SMOOTH",
"1019 1373 LINE"
);
},
{
closed = 1;
nodes = (
"859 547 LINE",
"323 547 LINE",
"285 443 LINE",
"820 443 LINE"
);
},
{
closed = 1;
nodes = (
"727 226 LINE SMOOTH",
"715 102 OFFCURVE",
"684 79 OFFCURVE",
"525 68 CURVE",
"502 0 LINE",
"1080 0 LINE",
"1104 68 LINE",
"984 83 OFFCURVE",
"960 106 OFFCURVE",
"969 193 CURVE SMOOTH",
"1101 1523 LINE",
"1000 1523 LINE",
"820 1152 LINE"
);
}
);
};
layerId = "D3934E74-9B53-4E98-B19F-CD3DFEE08352";
paths = (
{
closed = 1;
nodes = (
"1000 1523 LINE",
"120 292 LINE SMOOTH",
"-1 123 OFFCURVE",
"-32 102 OFFCURVE",
"-189 68 CURVE",
"-212 0 LINE",
"307 0 LINE",
"330 68 LINE",
"221 94 OFFCURVE",
"179 121 OFFCURVE",
"179 165 CURVE SMOOTH",
"179 193 OFFCURVE",
"197 231 OFFCURVE",
"238 289 CURVE SMOOTH",
"1019 1373 LINE"
);
},
{
closed = 1;
nodes = (
"859 547 LINE",
"323 547 LINE",
"285 443 LINE",
"820 443 LINE"
);
},
{
closed = 1;
nodes = (
"727 226 LINE SMOOTH",
"715 102 OFFCURVE",
"684 79 OFFCURVE",
"525 68 CURVE",
"502 0 LINE",
"1080 0 LINE",
"1104 68 LINE",
"984 83 OFFCURVE",
"960 106 OFFCURVE",
"969 193 CURVE SMOOTH",
"1101 1523 LINE",
"1000 1523 LINE",
"820 1152 LINE"
);
}
);
width = 1273;
},
{
anchors = (
{
name = bottom;
position = "{886, 0}";
},
{
name = topcap;
position = "{1198, 1643}";
}
);
associatedMasterId = "D3934E74-9B53-4E98-B19F-CD3DFEE08352";
layerId = "682F6276-851F-41F1-906A-C63B3B00156A";
name = "Jan 9 19, 13:25";
paths = (
{
closed = 1;
nodes = (
"264 0 LINE",
"289 55 LINE",
"172 71 OFFCURVE",
"122 94 OFFCURVE",
"120 136 CURVE SMOOTH",
"120 172 OFFCURVE",
"138 200 OFFCURVE",
"200 271 CURVE SMOOTH",
"456 565 LINE",
"925 565 LINE",
"875 208 LINE SMOOTH",
"857 85 OFFCURVE",
"793 58 OFFCURVE",
"644 55 CURVE",
"615 0 LINE",
"1224 0 LINE",
"1253 55 LINE",
"1130 63 OFFCURVE",
"1086 78 OFFCURVE",
"1084 149 CURVE SMOOTH",
"1084 159 OFFCURVE",
"1084 169 OFFCURVE",
"1086 182 CURVE SMOOTH",
"1267 1569 LINE",
"1052 1523 LINE",
"1032 1340 LINE",
"115 275 LINE SMOOTH",
"-13 128 OFFCURVE",
"-71 83 OFFCURVE",
"-260 55 CURVE",
"-287 0 LINE"
);
},
{
closed = 1;
nodes = (
"1018 1216 LINE",
"935 639 LINE",
"518 639 LINE"
);
}
);
width = 1480;
}
);
leftKerningGroup = A;
rightKerningGroup = A;
unicode = 0041;
},
{
glyphname = Aacute;
layers = (
{
background = {
anchors = (
{
name = bottom;
position = "{778, 0}";
},
{
name = topcap;
position = "{1040, 1643}";
}
);
paths = (
{
closed = 1;
nodes = (
"1028 1524 LINE",
"126 275 LINE SMOOTH",
"12 117 OFFCURVE",
"-45 71 OFFCURVE",
"-193 45 CURVE",
"-212 0 LINE",
"268 0 LINE",
"286 45 LINE",
"185 61 OFFCURVE",
"147 96 OFFCURVE",
"147 139 CURVE SMOOTH",
"147 172 OFFCURVE",
"164 201 OFFCURVE",
"215 271 CURVE SMOOTH",
"1002 1360 LINE"
);
},
{
closed = 1;
nodes = (
"835 639 LINE",
"454 639 LINE",
"402 565 LINE",
"826 565 LINE"
);
},
{
closed = 1;
nodes = (
"769 208 LINE SMOOTH",
"755 93 OFFCURVE",
"705 47 OFFCURVE",
"570 45 CURVE",
"550 0 LINE",
"1053 0 LINE",
"1072 45 LINE",
"949 55 OFFCURVE",
"927 92 OFFCURVE",
"937 182 CURVE SMOOTH",
"1083 1523 LINE",
"1028 1524 LINE",
"895 1286 LINE"
);
},
{
closed = 1;
nodes = (
"1121 1703 LINE SMOOTH",
"1209 1732 OFFCURVE",
"1235 1769 OFFCURVE",
"1235 1815 CURVE SMOOTH",
"1235 1864 OFFCURVE",
"1199 1900 OFFCURVE",
"1163 1900 CURVE SMOOTH",
"1136 1900 OFFCURVE",
"1115 1891 OFFCURVE",
"1090 1868 CURVE SMOOTH",
"852 1656 LINE",
"868 1614 LINE"
);
}
);
};
components = (
{
name = A;
},
{
name = acute.cap;
transform = "{0.84, 0, 0, 1, 834, 0}";
}
);
layerId = master01;
width = 1258;
},
{
background = {
anchors = (
{
name = bottom;
position = "{838, 0}";
},
{
name = topcap;
position = "{984, 1643}";
}
);
paths = (
{
closed = 1;
nodes = (
"1000 1523 LINE",
"120 292 LINE SMOOTH",
"-1 123 OFFCURVE",
"-32 102 OFFCURVE",
"-189 68 CURVE",
"-212 0 LINE",
"307 0 LINE",
"330 68 LINE",
"221 94 OFFCURVE",
"179 121 OFFCURVE",
"179 165 CURVE SMOOTH",
"179 193 OFFCURVE",
"197 231 OFFCURVE",
"238 289 CURVE SMOOTH",
"1019 1373 LINE"
);
},
{
closed = 1;
nodes = (
"859 547 LINE",
"323 547 LINE",
"285 443 LINE",
"820 443 LINE"
);
},
{
closed = 1;
nodes = (
"727 226 LINE SMOOTH",
"715 102 OFFCURVE",
"684 79 OFFCURVE",
"525 68 CURVE",
"502 0 LINE",
"1080 0 LINE",
"1104 68 LINE",
"984 83 OFFCURVE",
"960 106 OFFCURVE",
"969 193 CURVE SMOOTH",
"1101 1523 LINE",
"1000 1523 LINE",
"820 1152 LINE"
);
},
{
closed = 1;
nodes = (
"1168 1692 LINE SMOOTH",
"1214 1702 OFFCURVE",
"1244 1746 OFFCURVE",
"1244 1803 CURVE SMOOTH",
"1244 1871 OFFCURVE",
"1201 1924 OFFCURVE",
"1144 1924 CURVE SMOOTH",
"1110 1924 OFFCURVE",
"1076 1903 OFFCURVE",
"1041 1870 CURVE SMOOTH",
"833 1674 LINE",
"867 1622 LINE"
);
}
);
};
components = (
{
name = A;
},
{
name = acute.cap;
transform = "{0.84, 0, 0, 1, 384, 0}";
}
);
layerId = "D3934E74-9B53-4E98-B19F-CD3DFEE08352";
width = 1273;
}
);
leftKerningGroup = A;
leftMetricsKey = A;
rightKerningGroup = A;
rightMetricsKey = A;
unicode = 00C1;
},
{
glyphname = Abreve;
layers = (
{
background = {
anchors = (
{
name = bottom;
position = "{778, 0}";
},
{
name = topcap;
position = "{1040, 1643}";
}
);
paths = (
{
closed = 1;
nodes = (
"1028 1524 LINE",
"126 275 LINE SMOOTH",
"12 117 OFFCURVE",
"-45 71 OFFCURVE",
"-193 45 CURVE",
"-212 0 LINE",
"268 0 LINE",
"286 45 LINE",
"185 61 OFFCURVE",
"147 96 OFFCURVE",
"147 139 CURVE SMOOTH",
"147 172 OFFCURVE",
"164 201 OFFCURVE",
"215 271 CURVE SMOOTH",
"1002 1360 LINE"
);
},
{
closed = 1;
nodes = (
"835 639 LINE",
"454 639 LINE",
"402 565 LINE",
"826 565 LINE"
);
},
{
closed = 1;
nodes = (
"769 208 LINE SMOOTH",
"755 93 OFFCURVE",
"705 47 OFFCURVE",
"570 45 CURVE",
"550 0 LINE",
"1053 0 LINE",
"1072 45 LINE",
"949 55 OFFCURVE",
"927 92 OFFCURVE",
"937 182 CURVE SMOOTH",
"1083 1523 LINE",
"1028 1524 LINE",
"895 1286 LINE"
);
},
{
closed = 1;
nodes = (
"1025 1625 OFFCURVE",
"1155 1655 OFFCURVE",
"1292 1900 CURVE",
"1226 1900 LINE",
"1157 1809 OFFCURVE",
"1083 1771 OFFCURVE",
"1010 1771 CURVE SMOOTH",
"923 1771 OFFCURVE",
"881 1818 OFFCURVE",
"879 1900 CURVE",
"820 1900 LINE",
"808 1856 OFFCURVE",
"805 1821 OFFCURVE",
"805 1789 CURVE SMOOTH",
"805 1669 OFFCURVE",
"877 1625 OFFCURVE",
"953 1625 CURVE SMOOTH"
);
}
);
};
components = (
{
name = A;
},
{
alignment = -1;
name = breve.cap;
transform = "{0.84, 0, 0, 1, 787, 0}";
}
);
layerId = master01;
width = 1258;
},
{
background = {
anchors = (
{
name = bottom;
position = "{838, 0}";
},
{
name = topcap;
position = "{984, 1643}";
}
);
paths = (
{
closed = 1;
nodes = (
"1000 1523 LINE",
"120 292 LINE SMOOTH",
"-1 123 OFFCURVE",
"-32 102 OFFCURVE",
"-189 68 CURVE",
"-212 0 LINE",
"307 0 LINE",
"330 68 LINE",
"221 94 OFFCURVE",
"179 121 OFFCURVE",
"179 165 CURVE SMOOTH",
"179 193 OFFCURVE",
"197 231 OFFCURVE",
"238 289 CURVE SMOOTH",
"1019 1373 LINE"
);
},
{
closed = 1;
nodes = (
"859 547 LINE",
"323 547 LINE",
"285 443 LINE",
"820 443 LINE"
);
},
{
closed = 1;
nodes = (
"727 226 LINE SMOOTH",
"715 102 OFFCURVE",
"684 79 OFFCURVE",
"525 68 CURVE",
"502 0 LINE",
"1080 0 LINE",
"1104 68 LINE",
"984 83 OFFCURVE",
"960 106 OFFCURVE",
"969 193 CURVE SMOOTH",
"1101 1523 LINE",
"1000 1523 LINE",
"820 1152 LINE"
);
},
{
closed = 1;
nodes = (
"1132 1622 OFFCURVE",
"1266 1733 OFFCURVE",
"1373 1935 CURVE",
"1286 1935 LINE",
"1221 1841 OFFCURVE",
"1146 1795 OFFCURVE",
"1057 1795 CURVE SMOOTH",
"968 1795 OFFCURVE",
"919 1842 OFFCURVE",
"926 1935 CURVE",
"847 1935 LINE",
"833 1886 OFFCURVE",
"828 1857 OFFCURVE",
"828 1823 CURVE SMOOTH",
"828 1698 OFFCURVE",
"894 1622 OFFCURVE",
"1001 1622 CURVE SMOOTH"
);
}
);
};
components = (
{
name = A;
},
{
name = breve.cap;
transform = "{0.84, 0, 0, 1, 330, 0}";
}
);
layerId = "D3934E74-9B53-4E98-B19F-CD3DFEE08352";
width = 1273;
}
);
leftKerningGroup = A;
leftMetricsKey = A;
rightKerningGroup = A;
rightMetricsKey = A;
unicode = 0102;
},
{
glyphname = Acircumflex;
layers = (
{
background = {
anchors = (
{
name = bottom;
position = "{778, 0}";
},
{
name = topcap;
position = "{1040, 1643}";
}
);
paths = (
{
closed = 1;
nodes = (
"1028 1524 LINE",
"126 275 LINE SMOOTH",
"12 117 OFFCURVE",
"-45 71 OFFCURVE",
"-193 45 CURVE",
"-212 0 LINE",
"268 0 LINE",
"286 45 LINE",
"185 61 OFFCURVE",
"147 96 OFFCURVE",
"147 139 CURVE SMOOTH",
"147 172 OFFCURVE",
"164 201 OFFCURVE",
"215 271 CURVE SMOOTH",
"1002 1360 LINE"
);
},
{
closed = 1;
nodes = (
"835 639 LINE",
"454 639 LINE",
"402 565 LINE",
"826 565 LINE"
);
},
{
closed = 1;
nodes = (
"769 208 LINE SMOOTH",
"755 93 OFFCURVE",
"705 47 OFFCURVE",
"570 45 CURVE",
"550 0 LINE",
"1053 0 LINE",
"1072 45 LINE",
"949 55 OFFCURVE",
"927 92 OFFCURVE",
"937 182 CURVE SMOOTH",
"1083 1523 LINE",
"1028 1524 LINE",
"895 1286 LINE"
);
},
{
closed = 1;
nodes = (
"1078 1757 LINE",
"1229 1622 LINE",
"1272 1656 LINE",
"1183 1847 LINE SMOOTH",
"1164 1885 OFFCURVE",
"1148 1900 OFFCURVE",
"1110 1900 CURVE SMOOTH",
"1069 1900 OFFCURVE",
"1043 1880 OFFCURVE",
"1003 1847 CURVE SMOOTH",
"785 1656 LINE",
"804 1622 LINE"
);
}
);
};
components = (
{
name = A;
},
{
name = circumflex.cap;
transform = "{0.84, 0, 0, 1, 767, 0}";
}
);
layerId = master01;
width = 1258;
},
{
background = {
anchors = (
{
name = bottom;
position = "{838, 0}";
},
{
name = topcap;
position = "{984, 1643}";
}
);
paths = (
{
closed = 1;
nodes = (
"1000 1523 LINE",
"120 292 LINE SMOOTH",
"-1 123 OFFCURVE",
"-32 102 OFFCURVE",
"-189 68 CURVE",
"-212 0 LINE",
"307 0 LINE",
"330 68 LINE",
"221 94 OFFCURVE",
"179 121 OFFCURVE",
"179 165 CURVE SMOOTH",
"179 193 OFFCURVE",
"197 231 OFFCURVE",
"238 289 CURVE SMOOTH",
"1019 1373 LINE"
);
},
{
closed = 1;
nodes = (
"859 547 LINE",
"323 547 LINE",
"285 443 LINE",
"820 443 LINE"
);
},
{
closed = 1;
nodes = (
"727 226 LINE SMOOTH",
"715 102 OFFCURVE",
"684 79 OFFCURVE",
"525 68 CURVE",
"502 0 LINE",
"1080 0 LINE",
"1104 68 LINE",
"984 83 OFFCURVE",
"960 106 OFFCURVE",
"969 193 CURVE SMOOTH",
"1101 1523 LINE",
"1000 1523 LINE",
"820 1152 LINE"
);
},
{
closed = 1;
nodes = (
"1021 1747 LINE",
"1190 1622 LINE",
"1237 1659 LINE",
"1146 1865 LINE SMOOTH",
"1123 1915 OFFCURVE",
"1101 1935 OFFCURVE",
"1059 1935 CURVE SMOOTH",
"1021 1935 OFFCURVE",
"989 1918 OFFCURVE",
"931 1865 CURVE SMOOTH",
"704 1657 LINE",
"725 1622 LINE"
);
}
);
};
components = (
{
name = A;
},
{
name = circumflex.cap;
transform = "{0.84, 0, 0, 1, 260, 0}";
}
);
layerId = "D3934E74-9B53-4E98-B19F-CD3DFEE08352";
width = 1273;
}
);
leftKerningGroup = A;
leftMetricsKey = A;
rightKerningGroup = A;
rightMetricsKey = A;
unicode = 00C2;
},
{
glyphname = Adieresis;
layers = (
{
background = {
anchors = (
{
name = bottom;
position = "{778, 0}";
},
{
name = topcap;
position = "{1040, 1643}";
}
);
paths = (
{
closed = 1;
nodes = (
"1028 1524 LINE",
"126 275 LINE SMOOTH",
"12 117 OFFCURVE",
"-45 71 OFFCURVE",
"-193 45 CURVE",
"-212 0 LINE",
"268 0 LINE",
"286 45 LINE",
"185 61 OFFCURVE",
"147 96 OFFCURVE",
"147 139 CURVE SMOOTH",
"147 172 OFFCURVE",
"164 201 OFFCURVE",
"215 271 CURVE SMOOTH",
"1002 1360 LINE"
);
},
{
closed = 1;
nodes = (
"835 639 LINE",
"454 639 LINE",
"402 565 LINE",
"826 565 LINE"
);
},
{
closed = 1;
nodes = (
"769 208 LINE SMOOTH",
"755 93 OFFCURVE",
"705 47 OFFCURVE",
"570 45 CURVE",
"550 0 LINE",
"1053 0 LINE",
"1072 45 LINE",
"949 55 OFFCURVE",
"927 92 OFFCURVE",
"937 182 CURVE SMOOTH",
"1083 1523 LINE",
"1028 1524 LINE",
"895 1286 LINE"
);
},
{
closed = 1;
nodes = (
"1233 1680 OFFCURVE",
"1288 1740 OFFCURVE",
"1288 1802 CURVE SMOOTH",
"1288 1859 OFFCURVE",
"1243 1900 OFFCURVE",
"1194 1900 CURVE SMOOTH",
"1137 1900 OFFCURVE",
"1085 1845 OFFCURVE",
"1085 1781 CURVE SMOOTH",
"1085 1719 OFFCURVE",
"1121 1680 OFFCURVE",
"1176 1680 CURVE SMOOTH"
);
},
{
closed = 1;
nodes = (
"943 1680 OFFCURVE",
"997 1740 OFFCURVE",
"997 1802 CURVE SMOOTH",
"997 1859 OFFCURVE",
"953 1900 OFFCURVE",
"903 1900 CURVE SMOOTH",
"846 1900 OFFCURVE",
"796 1845 OFFCURVE",
"796 1781 CURVE SMOOTH",
"796 1719 OFFCURVE",
"830 1680 OFFCURVE",
"886 1680 CURVE SMOOTH"
);
}
);
};
components = (
{
name = A;
},
{
name = dieresis.cap;
transform = "{0.84, 0, 0, 1, 778, 0}";
}
);
layerId = master01;
width = 1258;
},
{
background = {
anchors = (
{
name = bottom;
position = "{838, 0}";
},
{
name = topcap;
position = "{984, 1643}";
}
);
paths = (
{
closed = 1;
nodes = (
"1000 1523 LINE",
"120 292 LINE SMOOTH",
"-1 123 OFFCURVE",
"-32 102 OFFCURVE",
"-189 68 CURVE",
"-212 0 LINE",
"307 0 LINE",
"330 68 LINE",
"221 94 OFFCURVE",
"179 121 OFFCURVE",
"179 165 CURVE SMOOTH",
"179 193 OFFCURVE",
"197 231 OFFCURVE",
"238 289 CURVE SMOOTH",
"1019 1373 LINE"
);
},
{
closed = 1;
nodes = (
"859 547 LINE",
"323 547 LINE",
"285 443 LINE",
"820 443 LINE"
);
},
{
closed = 1;
nodes = (
"727 226 LINE SMOOTH",
"715 102 OFFCURVE",
"684 79 OFFCURVE",
"525 68 CURVE",
"502 0 LINE",
"1080 0 LINE",
"1104 68 LINE",
"984 83 OFFCURVE",
"960 106 OFFCURVE",
"969 193 CURVE SMOOTH",
"1101 1523 LINE",
"1000 1523 LINE",
"820 1152 LINE"
);
},
{
closed = 1;
nodes = (
"1254 1680 OFFCURVE",
"1315 1749 OFFCURVE",
"1315 1822 CURVE SMOOTH",
"1315 1886 OFFCURVE",
"1265 1933 OFFCURVE",
"1208 1933 CURVE SMOOTH",
"1143 1933 OFFCURVE",
"1084 1870 OFFCURVE",
"1084 1795 CURVE SMOOTH",
"1084 1727 OFFCURVE",
"1124 1680 OFFCURVE",
"1189 1680 CURVE SMOOTH"
);
},
{
closed = 1;
nodes = (
"922 1680 OFFCURVE",
"984 1749 OFFCURVE",
"984 1822 CURVE SMOOTH",
"984 1886 OFFCURVE",
"933 1933 OFFCURVE",
"876 1933 CURVE SMOOTH",
"812 1933 OFFCURVE",
"753 1870 OFFCURVE",
"753 1795 CURVE SMOOTH",
"753 1727 OFFCURVE",
"793 1680 OFFCURVE",
"857 1680 CURVE SMOOTH"
);
}
);
};
components = (
{
name = A;
},
{
name = dieresis.cap;
transform = "{0.84, 0, 0, 1, 252, 0}";
}
);
layerId = "D3934E74-9B53-4E98-B19F-CD3DFEE08352";
width = 1273;
}
);
leftKerningGroup = A;
leftMetricsKey = A;
rightKerningGroup = A;
rightMetricsKey = A;
unicode = 00C4;
},
{
glyphname = Agrave;
layers = (
{
background = {
anchors = (
{
name = bottom;
position = "{778, 0}";
},
{
name = topcap;
position = "{1040, 1643}";
}
);
paths = (
{
closed = 1;
nodes = (
"1028 1524 LINE",
"126 275 LINE SMOOTH",
"12 117 OFFCURVE",
"-45 71 OFFCURVE",
"-193 45 CURVE",
"-212 0 LINE",
"268 0 LINE",
"286 45 LINE",
"185 61 OFFCURVE",
"147 96 OFFCURVE",
"147 139 CURVE SMOOTH",
"147 172 OFFCURVE",
"164 201 OFFCURVE",
"215 271 CURVE SMOOTH",
"1002 1360 LINE"
);
},
{
closed = 1;
nodes = (
"835 639 LINE",
"454 639 LINE",
"402 565 LINE",
"826 565 LINE"
);
},
{
closed = 1;
nodes = (
"769 208 LINE SMOOTH",
"755 93 OFFCURVE",
"705 47 OFFCURVE",
"570 45 CURVE",
"550 0 LINE",
"1053 0 LINE",
"1072 45 LINE",
"949 55 OFFCURVE",
"927 92 OFFCURVE",
"937 182 CURVE SMOOTH",
"1083 1523 LINE",
"1028 1524 LINE",
"895 1286 LINE"
);
},
{
closed = 1;
nodes = (
"1132 1656 LINE",
"958 1837 LINE SMOOTH",
"920 1876 OFFCURVE",
"893 1900 OFFCURVE",
"855 1900 CURVE SMOOTH",
"804 1900 OFFCURVE",
"772 1862 OFFCURVE",
"772 1804 CURVE SMOOTH",
"772 1757 OFFCURVE",
"792 1721 OFFCURVE",
"832 1708 CURVE SMOOTH",
"1099 1614 LINE"
);
}
);
};
components = (
{
name = A;
},
{
alignment = -1;
name = grave.cap;
transform = "{0.84, 0, 0, 1, 754, 0}";
}
);
layerId = master01;
width = 1258;
},
{
background = {
anchors = (
{
name = bottom;
position = "{838, 0}";
},
{
name = topcap;
position = "{984, 1643}";
}
);
paths = (
{
closed = 1;
nodes = (
"1000 1523 LINE",
"120 292 LINE SMOOTH",
"-1 123 OFFCURVE",
"-32 102 OFFCURVE",
"-189 68 CURVE",
"-212 0 LINE",
"307 0 LINE",
"330 68 LINE",
"221 94 OFFCURVE",
"179 121 OFFCURVE",
"179 165 CURVE SMOOTH",
"179 193 OFFCURVE",
"197 231 OFFCURVE",
"238 289 CURVE SMOOTH",
"1019 1373 LINE"
);
},
{
closed = 1;
nodes = (
"859 547 LINE",
"323 547 LINE",
"285 443 LINE",
"820 443 LINE"
);
},
{
closed = 1;
nodes = (
"727 226 LINE SMOOTH",
"715 102 OFFCURVE",
"684 79 OFFCURVE",
"525 68 CURVE",
"502 0 LINE",
"1080 0 LINE",
"1104 68 LINE",
"984 83 OFFCURVE",
"960 106 OFFCURVE",
"969 193 CURVE SMOOTH",
"1101 1523 LINE",
"1000 1523 LINE",
"820 1152 LINE"
);
},
{
closed = 1;
nodes = (
"1221 1674 LINE",
"1033 1870 LINE SMOOTH",
"999 1906 OFFCURVE",
"964 1924 OFFCURVE",
"931 1924 CURVE SMOOTH",
"873 1924 OFFCURVE",
"830 1871 OFFCURVE",
"830 1803 CURVE SMOOTH",
"830 1746 OFFCURVE",
"860 1703 OFFCURVE",
"906 1692 CURVE SMOOTH",
"1188 1622 LINE"
);
}
);
};
components = (
{
name = A;
},
{
name = grave.cap;
transform = "{0.84, 0, 0, 1, 326, 0}";
}
);
layerId = "D3934E74-9B53-4E98-B19F-CD3DFEE08352";
width = 1273;
}
);
leftKerningGroup = A;
leftMetricsKey = A;
rightKerningGroup = A;
rightMetricsKey = A;
unicode = 00C0;
},
{
glyphname = Amacron;
layers = (
{
background = {
anchors = (
{
name = bottom;
position = "{778, 0}";
},
{
name = topcap;
position = "{1040, 1643}";
}
);
paths = (
{
closed = 1;
nodes = (
"1028 1524 LINE",
"126 275 LINE SMOOTH",
"12 117 OFFCURVE",
"-45 71 OFFCURVE",
"-193 45 CURVE",
"-212 0 LINE",
"268 0 LINE",
"286 45 LINE",
"185 61 OFFCURVE",
"147 96 OFFCURVE",
"147 139 CURVE SMOOTH",
"147 172 OFFCURVE",
"164 201 OFFCURVE",
"215 271 CURVE SMOOTH",
"1002 1360 LINE"
);
},
{
closed = 1;
nodes = (
"835 639 LINE",
"454 639 LINE",
"402 565 LINE",
"826 565 LINE"
);
},
{
closed = 1;
nodes = (
"769 208 LINE SMOOTH",
"755 93 OFFCURVE",
"705 47 OFFCURVE",
"570 45 CURVE",
"550 0 LINE",
"1053 0 LINE",
"1072 45 LINE",
"949 55 OFFCURVE",
"927 92 OFFCURVE",
"937 182 CURVE SMOOTH",
"1083 1523 LINE",
"1028 1524 LINE",
"895 1286 LINE"
);
},
{
closed = 1;
nodes = (
"1229 1694 LINE",
"1278 1835 LINE",
"800 1835 LINE",
"755 1694 LINE"
);
}
);
};
components = (
{
name = A;
},
{
alignment = -1;
name = macron.cap;
transform = "{0.84, 0, 0, 1, 737, -2}";
}
);
layerId = master01;
width = 1258;
},
{
background = {
anchors = (
{
name = bottom;
position = "{838, 0}";
},
{
name = topcap;
position = "{984, 1643}";
}
);
paths = (
{
closed = 1;
nodes = (
"1000 1523 LINE",
"120 292 LINE SMOOTH",
"-1 123 OFFCURVE",
"-32 102 OFFCURVE",
"-189 68 CURVE",
"-212 0 LINE",
"307 0 LINE",
"330 68 LINE",
"221 94 OFFCURVE",
"179 121 OFFCURVE",
"179 165 CURVE SMOOTH",
"179 193 OFFCURVE",
"197 231 OFFCURVE",
"238 289 CURVE SMOOTH",
"1019 1373 LINE"
);
},
{
closed = 1;
nodes = (
"859 547 LINE",
"323 547 LINE",
"285 443 LINE",
"820 443 LINE"
);
},
{
closed = 1;
nodes = (
"727 226 LINE SMOOTH",
"715 102 OFFCURVE",
"684 79 OFFCURVE",
"525 68 CURVE",
"502 0 LINE",
"1080 0 LINE",
"1104 68 LINE",
"984 83 OFFCURVE",
"960 106 OFFCURVE",
"969 193 CURVE SMOOTH",
"1101 1523 LINE",
"1000 1523 LINE",
"820 1152 LINE"
);
},
{
closed = 1;
nodes = (
"1266 1674 LINE",
"1332 1865 LINE",
"778 1865 LINE",
"710 1674 LINE"
);
}
);
};
components = (
{
name = A;
},
{
name = macron.cap;
transform = "{0.84, 0, 0, 1, 261, 0}";
}
);
layerId = "D3934E74-9B53-4E98-B19F-CD3DFEE08352";
width = 1273;
}
);
leftKerningGroup = A;
leftMetricsKey = A;
rightKerningGroup = A;
rightMetricsKey = A;
unicode = 0100;
},
{
glyphname = Aogonek;
layers = (
{
background = {
anchors = (
{
name = bottom;
position = "{778, 0}";
},
{
name = topcap;
position = "{1040, 1643}";
}
);
paths = (
{
closed = 1;
nodes = (
"1028 1524 LINE",
"126 275 LINE SMOOTH",
"12 117 OFFCURVE",
"-45 71 OFFCURVE",
"-193 45 CURVE",
"-212 0 LINE",
"268 0 LINE",
"286 45 LINE",
"185 61 OFFCURVE",
"147 96 OFFCURVE",
"147 139 CURVE SMOOTH",
"147 172 OFFCURVE",
"164 201 OFFCURVE",
"215 271 CURVE SMOOTH",
"1002 1360 LINE"
);
},
{
closed = 1;
nodes = (
"835 639 LINE",
"454 639 LINE",
"402 565 LINE",
"826 565 LINE"
);
},
{
closed = 1;
nodes = (
"769 208 LINE SMOOTH",
"755 93 OFFCURVE",
"705 47 OFFCURVE",
"570 45 CURVE",
"550 0 LINE",
"1053 0 LINE",
"1072 45 LINE",
"949 55 OFFCURVE",
"927 92 OFFCURVE",
"937 182 CURVE SMOOTH",
"1083 1523 LINE",
"1028 1524 LINE",
"895 1286 LINE"
);
},
{
closed = 1;
nodes = (
"863 -507 OFFCURVE",
"941 -466 OFFCURVE",
"1016 -392 CURVE {name = hr00;}",
"1007 -357 LINE",
"956 -388 OFFCURVE",
"929 -398 OFFCURVE",
"899 -398 CURVE SMOOTH",
"857 -398 OFFCURVE",
"838 -380 OFFCURVE",
"838 -341 CURVE SMOOTH",
"838 -258 OFFCURVE",
"927 -127 OFFCURVE",
"1062 0 CURVE",
"999 0 LINE",
"811 -117 OFFCURVE",
"678 -281 OFFCURVE",
"678 -404 CURVE SMOOTH",
"678 -471 OFFCURVE",
"717 -507 OFFCURVE",
"789 -507 CURVE SMOOTH"
);
}
);
};
components = (
{
name = A;
},
{
alignment = -1;
name = ogonek;
transform = "{0.84, 0, 0, 1, 660, 0}";
}
);
layerId = master01;
width = 1384;
},
{
background = {
anchors = (
{
name = bottom;
position = "{838, 0}";
},
{
name = topcap;
position = "{984, 1643}";
}
);
paths = (
{
closed = 1;
nodes = (
"1000 1523 LINE",
"120 292 LINE SMOOTH",
"-1 123 OFFCURVE",
"-32 102 OFFCURVE",
"-189 68 CURVE",
"-212 0 LINE",
"307 0 LINE",
"330 68 LINE",
"221 94 OFFCURVE",
"179 121 OFFCURVE",
"179 165 CURVE SMOOTH",
"179 193 OFFCURVE",
"197 231 OFFCURVE",
"238 289 CURVE SMOOTH",
"1019 1373 LINE"
);
},
{
closed = 1;
nodes = (
"859 547 LINE",
"323 547 LINE",
"285 443 LINE",
"820 443 LINE"
);
},
{
closed = 1;
nodes = (
"727 226 LINE SMOOTH",
"715 102 OFFCURVE",
"684 79 OFFCURVE",
"525 68 CURVE",
"502 0 LINE",
"1080 0 LINE",
"1104 68 LINE",
"984 83 OFFCURVE",
"960 106 OFFCURVE",
"969 193 CURVE SMOOTH",
"1101 1523 LINE",
"1000 1523 LINE",
"820 1152 LINE"
);
},
{
closed = 1;
nodes = (
"856 -507 OFFCURVE",
"949 -459 OFFCURVE",
"1040 -368 CURVE {name = hr00;}",
"1031 -321 LINE",
"977 -354 OFFCURVE",
"945 -365 OFFCURVE",
"914 -365 CURVE SMOOTH",
"863 -365 OFFCURVE",
"838 -334 OFFCURVE",
"838 -289 CURVE SMOOTH",
"838 -208 OFFCURVE",
"920 -97 OFFCURVE",
"1071 0 CURVE",
"975 0 LINE",
"727 -117 OFFCURVE",
"634 -258 OFFCURVE",
"634 -364 CURVE SMOOTH",
"634 -444 OFFCURVE",
"688 -507 OFFCURVE",
"778 -507 CURVE SMOOTH"
);
}
);
};
components = (
{
name = A;
},
{
alignment = -1;
name = ogonek;
transform = "{0.84, 0, 0, 1, 920, 0}";
}
);
layerId = "D3934E74-9B53-4E98-B19F-CD3DFEE08352";
width = 1386;
}
);
leftKerningGroup = A;
leftMetricsKey = A;
rightKerningGroup = A;
rightMetricsKey = A;
unicode = 0104;
},
{
glyphname = Aring;
layers = (
{
background = {
anchors = (
{
name = bottom;
position = "{778, 0}";
},
{
name = topcap;
position = "{1040, 1643}";
}
);
paths = (
{
closed = 1;
nodes = (
"1028 1524 LINE",
"126 275 LINE SMOOTH",
"12 117 OFFCURVE",
"-45 71 OFFCURVE",
"-193 45 CURVE",
"-212 0 LINE",
"268 0 LINE",
"286 45 LINE",
"185 61 OFFCURVE",
"147 96 OFFCURVE",
"147 139 CURVE SMOOTH",
"147 172 OFFCURVE",
"164 201 OFFCURVE",
"215 271 CURVE SMOOTH",
"1002 1360 LINE"
);
},
{
closed = 1;
nodes = (
"835 639 LINE",
"454 639 LINE",
"402 565 LINE",
"826 565 LINE"
);
},
{
closed = 1;
nodes = (
"769 208 LINE SMOOTH",
"755 93 OFFCURVE",
"705 47 OFFCURVE",
"570 45 CURVE",
"550 0 LINE",
"1053 0 LINE",
"1072 45 LINE",
"949 55 OFFCURVE",
"927 92 OFFCURVE",
"937 182 CURVE SMOOTH",
"1083 1523 LINE",
"1028 1524 LINE",
"895 1286 LINE"
);
},
{
closed = 1;
nodes = (
"1115 1643 OFFCURVE",
"1184 1716 OFFCURVE",
"1184 1795 CURVE SMOOTH",
"1184 1864 OFFCURVE",
"1130 1920 OFFCURVE",
"1064 1920 CURVE SMOOTH",
"989 1920 OFFCURVE",
"929 1848 OFFCURVE",
"929 1768 CURVE SMOOTH",
"929 1696 OFFCURVE",
"974 1643 OFFCURVE",
"1040 1643 CURVE SMOOTH"
);
},
{
closed = 1;
nodes = (
"1021 1719 OFFCURVE",
"1000 1743 OFFCURVE",
"1000 1776 CURVE SMOOTH",
"1000 1809 OFFCURVE",
"1027 1839 OFFCURVE",
"1059 1839 CURVE SMOOTH",
"1086 1839 OFFCURVE",
"1111 1815 OFFCURVE",
"1111 1786 CURVE SMOOTH",
"1111 1753 OFFCURVE",
"1079 1719 OFFCURVE",
"1049 1719 CURVE SMOOTH"
);
}
);
};
components = (
{
name = A;
},
{
name = ring.cap;
transform = "{0.84, 0, 0, 1, 911, 0}";
}
);
layerId = master01;
width = 1258;
},
{
background = {
anchors = (
{
name = bottom;
position = "{838, 0}";
},
{
name = topcap;
position = "{984, 1643}";
}
);
paths = (
{
closed = 1;
nodes = (
"1000 1523 LINE",
"120 292 LINE SMOOTH",
"-1 123 OFFCURVE",
"-32 102 OFFCURVE",
"-189 68 CURVE",
"-212 0 LINE",
"307 0 LINE",
"330 68 LINE",
"221 94 OFFCURVE",
"179 121 OFFCURVE",
"179 165 CURVE SMOOTH",
"179 193 OFFCURVE",
"197 231 OFFCURVE",
"238 289 CURVE SMOOTH",
"1019 1373 LINE"
);
},
{
closed = 1;
nodes = (
"859 547 LINE",
"323 547 LINE",
"285 443 LINE",
"820 443 LINE"
);
},
{
closed = 1;
nodes = (
"727 226 LINE SMOOTH",
"715 102 OFFCURVE",
"684 79 OFFCURVE",
"525 68 CURVE",
"502 0 LINE",
"1080 0 LINE",
"1104 68 LINE",
"984 83 OFFCURVE",
"960 106 OFFCURVE",
"969 193 CURVE SMOOTH",
"1101 1523 LINE",
"1000 1523 LINE",
"820 1152 LINE"
);
},
{
closed = 1;
nodes = (
"1084 1622 OFFCURVE",
"1161 1704 OFFCURVE",
"1161 1793 CURVE SMOOTH",
"1161 1871 OFFCURVE",
"1102 1933 OFFCURVE",
"1026 1933 CURVE SMOOTH",
"942 1933 OFFCURVE",
"874 1853 OFFCURVE",
"874 1763 CURVE SMOOTH",
"874 1682 OFFCURVE",
"926 1622 OFFCURVE",
"1000 1622 CURVE SMOOTH"
);
},
{
closed = 1;
nodes = (
"981 1712 OFFCURVE",
"958 1738 OFFCURVE",
"958 1770 CURVE SMOOTH",
"958 1807 OFFCURVE",
"987 1839 OFFCURVE",
"1021 1839 CURVE SMOOTH",
"1049 1839 OFFCURVE",
"1075 1814 OFFCURVE",
"1075 1783 CURVE SMOOTH",
"1075 1748 OFFCURVE",
"1042 1712 OFFCURVE",
"1009 1712 CURVE SMOOTH"
);
}
);
};
components = (
{
alignment = -1;
name = A;
},
{
name = ring.cap;
transform = "{0.84, 0, 0, 1, 383, 0}";
}
);
layerId = "D3934E74-9B53-4E98-B19F-CD3DFEE08352";
width = 1273;
}
);
leftKerningGroup = A;
leftMetricsKey = A;
rightKerningGroup = A;
rightMetricsKey = A;
unicode = 00C5;
},
{
glyphname = Aringacute;
layers = (
{
background = {
anchors = (
{
name = bottom;
position = "{778, 0}";
},
{
name = topcap;
position = "{1040, 1643}";
}
);
paths = (
{
closed = 1;
nodes = (
"1225 1734 OFFCURVE",
"1252 1761 OFFCURVE",
"1252 1804 CURVE SMOOTH",
"1252 1848 OFFCURVE",
"1228 1872 OFFCURVE",
"1179 1872 CURVE SMOOTH",
"1163 1872 OFFCURVE",
"1150 1868 OFFCURVE",
"1135 1862 CURVE",
"1137 1734 LINE"
);
},
{
closed = 1;
nodes = (
"956 1810 LINE",
"851 1769 LINE",
"858 1721 LINE",
"951 1718 LINE"
);
},
{
closed = 1;
nodes = (
"1028 1524 LINE",
"126 275 LINE SMOOTH",
"12 117 OFFCURVE",
"-45 71 OFFCURVE",
"-193 45 CURVE",
"-212 0 LINE",
"268 0 LINE",
"286 45 LINE",
"185 61 OFFCURVE",
"147 96 OFFCURVE",
"147 139 CURVE SMOOTH",
"147 172 OFFCURVE",
"164 201 OFFCURVE",
"215 271 CURVE SMOOTH",
"1002 1360 LINE"
);
},
{
closed = 1;
nodes = (
"835 639 LINE",
"454 639 LINE",
"402 565 LINE",
"826 565 LINE"
);
},
{
closed = 1;
nodes = (
"769 208 LINE SMOOTH",
"755 93 OFFCURVE",
"705 47 OFFCURVE",
"570 45 CURVE",
"550 0 LINE",
"1053 0 LINE",
"1072 45 LINE",
"949 55 OFFCURVE",
"927 92 OFFCURVE",
"937 182 CURVE SMOOTH",
"1083 1523 LINE",
"1028 1524 LINE",
"895 1286 LINE"
);
},
{
closed = 1;
nodes = (
"1104 1643 OFFCURVE",
"1173 1716 OFFCURVE",
"1173 1795 CURVE SMOOTH",
"1173 1864 OFFCURVE",
"1119 1920 OFFCURVE",
"1053 1920 CURVE SMOOTH",
"978 1920 OFFCURVE",
"918 1848 OFFCURVE",
"918 1768 CURVE SMOOTH",
"918 1696 OFFCURVE",
"963 1643 OFFCURVE",
"1029 1643 CURVE SMOOTH"
);
},
{
closed = 1;
nodes = (
"1010 1719 OFFCURVE",
"989 1743 OFFCURVE",
"989 1776 CURVE SMOOTH",
"989 1809 OFFCURVE",
"1016 1839 OFFCURVE",
"1048 1839 CURVE SMOOTH",
"1075 1839 OFFCURVE",
"1100 1815 OFFCURVE",
"1100 1786 CURVE SMOOTH",
"1100 1753 OFFCURVE",
"1068 1719 OFFCURVE",
"1038 1719 CURVE SMOOTH"
);
}
);
};
components = (
{
name = A;
},
{
name = ring.cap;
transform = "{0.84, 0, 0, 1, 900, 0}";
}
);
layerId = master01;
paths = (
{
closed = 1;
nodes = (
"1225 1734 OFFCURVE",
"1252 1761 OFFCURVE",
"1252 1804 CURVE SMOOTH",
"1252 1848 OFFCURVE",
"1228 1872 OFFCURVE",
"1179 1872 CURVE SMOOTH",
"1163 1872 OFFCURVE",
"1150 1868 OFFCURVE",
"1135 1862 CURVE",
"1137 1734 LINE"
);
},
{
closed = 1;
nodes = (
"956 1810 LINE",
"851 1769 LINE",
"858 1721 LINE",
"951 1718 LINE"
);
}
);
width = 1258;
},
{
background = {
anchors = (
{
name = bottom;
position = "{838, 0}";
},
{
name = topcap;
position = "{984, 1643}";
}
);
paths = (
{
closed = 1;
nodes = (
"1222 1721 OFFCURVE",
"1256 1754 OFFCURVE",
"1256 1807 CURVE SMOOTH",
"1256 1859 OFFCURVE",
"1226 1887 OFFCURVE",
"1168 1887 CURVE SMOOTH",
"1149 1887 OFFCURVE",
"1132 1883 OFFCURVE",
"1115 1876 CURVE",
"1118 1721 LINE SMOOTH"
);
},
{
closed = 1;
nodes = (
"900 1814 LINE",
"774 1763 LINE",
"783 1707 LINE",
"894 1703 LINE"
);
},
{
closed = 1;
nodes = (
"1000 1523 LINE",
"120 292 LINE SMOOTH",
"-1 123 OFFCURVE",
"-32 102 OFFCURVE",
"-189 68 CURVE",
"-212 0 LINE",
"307 0 LINE",
"330 68 LINE",
"221 94 OFFCURVE",
"179 121 OFFCURVE",
"179 165 CURVE SMOOTH",
"179 193 OFFCURVE",
"197 231 OFFCURVE",
"238 289 CURVE SMOOTH",
"1019 1373 LINE"
);
},
{
closed = 1;
nodes = (
"859 547 LINE",
"323 547 LINE",
"285 443 LINE",
"820 443 LINE"
);
},
{
closed = 1;
nodes = (
"727 226 LINE SMOOTH",
"715 102 OFFCURVE",
"684 79 OFFCURVE",
"525 68 CURVE",
"502 0 LINE",
"1080 0 LINE",
"1104 68 LINE",
"984 83 OFFCURVE",
"960 106 OFFCURVE",
"969 193 CURVE SMOOTH",
"1101 1523 LINE",
"1000 1523 LINE",
"820 1152 LINE"
);
},
{
closed = 1;
nodes = (
"1088 1622 OFFCURVE",
"1165 1704 OFFCURVE",
"1165 1793 CURVE SMOOTH",
"1165 1871 OFFCURVE",
"1106 1933 OFFCURVE",
"1030 1933 CURVE SMOOTH",
"946 1933 OFFCURVE",
"878 1853 OFFCURVE",
"878 1763 CURVE SMOOTH",
"878 1682 OFFCURVE",
"930 1622 OFFCURVE",
"1004 1622 CURVE SMOOTH"
);
},
{
closed = 1;
nodes = (
"985 1712 OFFCURVE",
"962 1738 OFFCURVE",
"962 1770 CURVE SMOOTH",
"962 1807 OFFCURVE",
"991 1839 OFFCURVE",
"1025 1839 CURVE SMOOTH",
"1053 1839 OFFCURVE",
"1079 1814 OFFCURVE",
"1079 1783 CURVE SMOOTH",
"1079 1748 OFFCURVE",
"1046 1712 OFFCURVE",
"1013 1712 CURVE SMOOTH"
);
}
);
};
components = (
{
name = A;
},
{
name = ring.cap;
transform = "{0.84, 0, 0, 1, 387, 0}";
}
);
layerId = "D3934E74-9B53-4E98-B19F-CD3DFEE08352";
paths = (
{
closed = 1;
nodes = (
"1222 1721 OFFCURVE",
"1256 1754 OFFCURVE",
"1256 1807 CURVE SMOOTH",
"1256 1859 OFFCURVE",
"1226 1887 OFFCURVE",
"1168 1887 CURVE SMOOTH",
"1149 1887 OFFCURVE",
"1132 1883 OFFCURVE",
"1115 1876 CURVE",
"1118 1721 LINE SMOOTH"
);
},
{
closed = 1;
nodes = (
"900 1814 LINE",
"774 1763 LINE",
"783 1707 LINE",
"894 1703 LINE"
);
}
);
width = 1273;
}
);
leftKerningGroup = A;
leftMetricsKey = A;
rightKerningGroup = A;
rightMetricsKey = A;
unicode = 01FA;
},
{
glyphname = Atilde;
layers = (
{
background = {
anchors = (
{
name = bottom;
position = "{778, 0}";
},
{
name = topcap;
position = "{1040, 1643}";
}
);
paths = (
{
closed = 1;
nodes = (
"1028 1524 LINE",
"126 275 LINE SMOOTH",
"12 117 OFFCURVE",
"-45 71 OFFCURVE",
"-193 45 CURVE",
"-212 0 LINE",
"268 0 LINE",
"286 45 LINE",
"185 61 OFFCURVE",
"147 96 OFFCURVE",
"147 139 CURVE SMOOTH",
"147 172 OFFCURVE",
"164 201 OFFCURVE",
"215 271 CURVE SMOOTH",
"1002 1360 LINE"
);
},
{
closed = 1;
nodes = (
"835 639 LINE",
"454 639 LINE",
"402 565 LINE",
"826 565 LINE"
);
},
{
closed = 1;
nodes = (
"769 208 LINE SMOOTH",
"755 93 OFFCURVE",
"705 47 OFFCURVE",
"570 45 CURVE",
"550 0 LINE",
"1053 0 LINE",
"1072 45 LINE",
"949 55 OFFCURVE",
"927 92 OFFCURVE",
"937 182 CURVE SMOOTH",
"1083 1523 LINE",
"1028 1524 LINE",
"895 1286 LINE"
);
},
{
closed = 1;
nodes = (
"1167 1685 OFFCURVE",
"1252 1781 OFFCURVE",
"1289 1917 CURVE",
"1250 1917 LINE",
"1228 1868 OFFCURVE",
"1194 1841 OFFCURVE",
"1147 1841 CURVE SMOOTH",
"1073 1841 OFFCURVE",
"994 1911 OFFCURVE",
"918 1911 CURVE SMOOTH",
"837 1911 OFFCURVE",
"752 1818 OFFCURVE",
"721 1686 CURVE",
"755 1686 LINE",
"773 1734 OFFCURVE",
"811 1761 OFFCURVE",
"858 1761 CURVE SMOOTH",
"937 1761 OFFCURVE",
"1007 1685 OFFCURVE",
"1086 1685 CURVE SMOOTH"
);
}
);
};
components = (
{
name = A;
},
{
alignment = -1;
name = tilde.cap;
transform = "{0.84, 0, 0, 1, 703, 31}";
}
);
layerId = master01;
width = 1258;
},
{
background = {
anchors = (
{
name = bottom;
position = "{838, 0}";
},
{
name = topcap;
position = "{984, 1643}";
}
);
paths = (
{
closed = 1;
nodes = (
"1000 1523 LINE",
"120 292 LINE SMOOTH",
"-1 123 OFFCURVE",
"-32 102 OFFCURVE",
"-189 68 CURVE",
"-212 0 LINE",
"307 0 LINE",
"330 68 LINE",
"221 94 OFFCURVE",
"179 121 OFFCURVE",
"179 165 CURVE SMOOTH",
"179 193 OFFCURVE",
"197 231 OFFCURVE",
"238 289 CURVE SMOOTH",
"1019 1373 LINE"
);
},
{
closed = 1;
nodes = (
"859 547 LINE",
"323 547 LINE",
"285 443 LINE",
"820 443 LINE"
);
},
{
closed = 1;
nodes = (
"727 226 LINE SMOOTH",
"715 102 OFFCURVE",
"684 79 OFFCURVE",
"525 68 CURVE",
"502 0 LINE",
"1080 0 LINE",
"1104 68 LINE",
"984 83 OFFCURVE",
"960 106 OFFCURVE",
"969 193 CURVE SMOOTH",
"1101 1523 LINE",
"1000 1523 LINE",
"820 1152 LINE"
);
},
{
closed = 1;
nodes = (
"1246 1631 OFFCURVE",
"1348 1748 OFFCURVE",
"1394 1910 CURVE",
"1327 1910 LINE",
"1301 1852 OFFCURVE",
"1260 1821 OFFCURVE",
"1205 1821 CURVE SMOOTH",
"1115 1821 OFFCURVE",
"1059 1903 OFFCURVE",
"963 1903 CURVE SMOOTH",
"850 1903 OFFCURVE",
"749 1792 OFFCURVE",
"711 1633 CURVE",
"772 1633 LINE",
"794 1689 OFFCURVE",
"839 1723 OFFCURVE",
"896 1723 CURVE SMOOTH",
"990 1723 OFFCURVE",
"1035 1631 OFFCURVE",
"1135 1631 CURVE SMOOTH"
);
}
);
};
components = (
{
name = A;
},
{
name = tilde.cap;
transform = "{0.84, 0, 0, 1, 273, 0}";
}
);
layerId = "D3934E74-9B53-4E98-B19F-CD3DFEE08352";
width = 1273;
}
);
leftKerningGroup = A;
leftMetricsKey = A;
rightKerningGroup = A;
rightMetricsKey = A;
unicode = 00C3;
},
{
glyphname = AE;
layers = (
{
background = {
paths = (
{
closed = 1;
nodes = (
"1030 1390 LINE",
"1068 1390 LINE",
"613 83 LINE",
"460 45 LINE",
"444 0 LINE",
"1457 0 LINE",
"1608 456 LINE",
"1560 456 LINE",
"1496 330 OFFCURVE",
"1422 204 OFFCURVE",
"1332 78 CURVE",
"795 78 LINE",
"1031 763 LINE",
"1320 763 LINE",
"1317 685 OFFCURVE",
"1310 606 OFFCURVE",
"1291 526 CURVE",
"1340 526 LINE",
"1527 1069 LINE",
"1480 1069 LINE",
"1442 994 OFFCURVE",
"1396 919 OFFCURVE",
"1340 843 CURVE",
"1061 843 LINE",
"1267 1445 LINE",
"1643 1445 LINE",
"1691 1346 OFFCURVE",
"1719 1229 OFFCURVE",
"1739 1088 CURVE",
"1783 1088 LINE",
"1770 1523 LINE",
"894 1523 LINE",
"876 1479 LINE",
"1030 1436 LINE"
);
},
{
closed = 1;
nodes = (
"822 639 LINE",
"473 639 LINE",
"419 561 LINE",
"797 561 LINE"
);
},
{
closed = 1;
nodes = (
"1034 1479 LINE",
"122 275 LINE SMOOTH",
"11 128 OFFCURVE",
"-39 73 OFFCURVE",
"-193 45 CURVE",
"-212 0 LINE",
"257 0 LINE",
"275 45 LINE",
"179 61 OFFCURVE",
"141 94 OFFCURVE",
"141 138 CURVE SMOOTH",
"141 169 OFFCURVE",
"159 203 OFFCURVE",
"213 271 CURVE SMOOTH",
"1104 1445 LINE"
);
}
);
};
layerId = master01;
paths = (
{
closed = 1;
nodes = (
"1030 1390 LINE",
"1068 1390 LINE",
"613 83 LINE",
"460 45 LINE",
"444 0 LINE",
"1457 0 LINE",
"1608 456 LINE",
"1560 456 LINE",
"1496 330 OFFCURVE",
"1422 204 OFFCURVE",
"1332 78 CURVE",
"795 78 LINE",
"1031 763 LINE",
"1320 763 LINE",
"1317 685 OFFCURVE",
"1310 606 OFFCURVE",
"1291 526 CURVE",
"1340 526 LINE",
"1527 1069 LINE",
"1480 1069 LINE",
"1442 994 OFFCURVE",
"1396 919 OFFCURVE",
"1340 843 CURVE",
"1061 843 LINE",
"1267 1445 LINE",
"1643 1445 LINE",
"1691 1346 OFFCURVE",
"1719 1229 OFFCURVE",
"1739 1088 CURVE",
"1783 1088 LINE",
"1770 1523 LINE",
"894 1523 LINE",
"876 1479 LINE",
"1030 1436 LINE"
);
},
{
closed = 1;
nodes = (
"822 639 LINE",
"473 639 LINE",
"419 561 LINE",
"797 561 LINE"
);
},
{
closed = 1;
nodes = (
"1034 1479 LINE",
"122 275 LINE SMOOTH",
"11 128 OFFCURVE",
"-39 73 OFFCURVE",
"-193 45 CURVE",
"-212 0 LINE",
"257 0 LINE",
"275 45 LINE",
"179 61 OFFCURVE",
"141 94 OFFCURVE",
"141 138 CURVE SMOOTH",
"141 169 OFFCURVE",
"159 203 OFFCURVE",
"213 271 CURVE SMOOTH",
"1104 1445 LINE"
);
}
);
width = 1728;
},
{
background = {
paths = (
{
closed = 1;
nodes = (
"1016 1398 LINE",
"1065 1398 LINE",
"613 106 LINE",
"464 68 LINE",
"439 0 LINE",
"1499 0 LINE",
"1654 463 LINE",
"1596 463 LINE",
"1530 341 OFFCURVE",
"1454 229 OFFCURVE",
"1353 104 CURVE",
"876 104 LINE",
"1104 754 LINE",
"1292 754 LINE",
"1310 679 OFFCURVE",
"1315 602 OFFCURVE",
"1307 529 CURVE",
"1377 529 LINE",
"1570 1082 LINE",
"1500 1082 LINE",
"1467 1020 OFFCURVE",
"1411 947 OFFCURVE",
"1330 858 CURVE",
"1141 858 LINE",
"1336 1420 LINE",
"1640 1420 LINE",
"1691 1330 OFFCURVE",
"1733 1225 OFFCURVE",
"1770 1088 CURVE",
"1828 1088 LINE",
"1814 1523 LINE",
"848 1523 LINE",
"823 1455 LINE",
"1016 1424 LINE"
);
},
{
closed = 1;
nodes = (
"860 547 LINE",
"324 547 LINE",
"286 443 LINE",
"822 443 LINE"
);
},
{
closed = 1;
nodes = (
"995 1495 LINE",
"120 292 LINE SMOOTH",
"-5 122 OFFCURVE",
"-32 102 OFFCURVE",
"-189 68 CURVE",
"-212 0 LINE",
"307 0 LINE",
"331 68 LINE",
"222 94 OFFCURVE",
"180 121 OFFCURVE",
"180 165 CURVE SMOOTH",
"180 193 OFFCURVE",
"197 231 OFFCURVE",
"239 289 CURVE SMOOTH",
"1088 1449 LINE"
);
}
);
};
layerId = "D3934E74-9B53-4E98-B19F-CD3DFEE08352";
paths = (
{
closed = 1;
nodes = (
"1016 1398 LINE",
"1065 1398 LINE",
"613 106 LINE",
"464 68 LINE",
"439 0 LINE",
"1499 0 LINE",
"1654 463 LINE",
"1596 463 LINE",
"1530 341 OFFCURVE",
"1454 229 OFFCURVE",
"1353 104 CURVE",
"876 104 LINE",
"1104 754 LINE",
"1292 754 LINE",
"1310 679 OFFCURVE",
"1315 602 OFFCURVE",
"1307 529 CURVE",
"1377 529 LINE",
"1570 1082 LINE",
"1500 1082 LINE",
"1467 1020 OFFCURVE",
"1411 947 OFFCURVE",
"1330 858 CURVE",
"1141 858 LINE",
"1336 1420 LINE",
"1640 1420 LINE",
"1691 1330 OFFCURVE",
"1733 1225 OFFCURVE",
"1770 1088 CURVE",
"1828 1088 LINE",
"1814 1523 LINE",
"848 1523 LINE",
"823 1455 LINE",
"1016 1424 LINE"
);
},
{
closed = 1;
nodes = (
"860 547 LINE",
"324 547 LINE",
"286 443 LINE",
"822 443 LINE"
);
},
{
closed = 1;
nodes = (
"995 1495 LINE",
"120 292 LINE SMOOTH",
"-5 122 OFFCURVE",
"-32 102 OFFCURVE",
"-189 68 CURVE",
"-212 0 LINE",
"307 0 LINE",
"331 68 LINE",
"222 94 OFFCURVE",
"180 121 OFFCURVE",
"180 165 CURVE SMOOTH",
"180 193 OFFCURVE",
"197 231 OFFCURVE",
"239 289 CURVE SMOOTH",
"1088 1449 LINE"
);
}
);
width = 1760;
}
);
leftMetricsKey = A;
rightKerningGroup = E;
rightMetricsKey = E;
unicode = 00C6;
},
{
glyphname = AEacute;
layers = (
{
background = {
paths = (
{
closed = 1;
nodes = (
"1030 1390 LINE",
"1068 1390 LINE",
"613 83 LINE",
"460 45 LINE",
"444 0 LINE",
"1457 0 LINE",
"1608 456 LINE",
"1560 456 LINE",
"1496 330 OFFCURVE",
"1422 204 OFFCURVE",
"1332 78 CURVE",
"795 78 LINE",
"1031 763 LINE",
"1320 763 LINE",
"1317 685 OFFCURVE",
"1310 606 OFFCURVE",
"1291 526 CURVE",
"1340 526 LINE",
"1527 1069 LINE",
"1480 1069 LINE",
"1442 994 OFFCURVE",
"1396 919 OFFCURVE",
"1340 843 CURVE",
"1061 843 LINE",
"1267 1445 LINE",
"1643 1445 LINE",
"1691 1346 OFFCURVE",
"1719 1229 OFFCURVE",
"1739 1088 CURVE",
"1783 1088 LINE",
"1770 1523 LINE",
"894 1523 LINE",
"876 1479 LINE",
"1030 1436 LINE"
);
},
{
closed = 1;
nodes = (
"822 639 LINE",
"473 639 LINE",
"419 561 LINE",
"797 561 LINE"
);
},
{
closed = 1;
nodes = (
"1034 1479 LINE",
"122 275 LINE SMOOTH",
"11 128 OFFCURVE",
"-39 73 OFFCURVE",
"-193 45 CURVE",
"-212 0 LINE",
"257 0 LINE",
"275 45 LINE",
"179 61 OFFCURVE",
"141 94 OFFCURVE",
"141 138 CURVE SMOOTH",
"141 169 OFFCURVE",
"159 203 OFFCURVE",
"213 271 CURVE SMOOTH",
"1104 1445 LINE"
);
},
{
closed = 1;
nodes = (
"1405 1703 LINE SMOOTH",
"1493 1732 OFFCURVE",
"1519 1769 OFFCURVE",
"1519 1815 CURVE SMOOTH",
"1519 1864 OFFCURVE",
"1483 1900 OFFCURVE",
"1447 1900 CURVE SMOOTH",
"1420 1900 OFFCURVE",
"1399 1891 OFFCURVE",
"1374 1868 CURVE SMOOTH",
"1136 1656 LINE",
"1152 1614 LINE"
);
}
);
};
components = (
{
alignment = -1;
name = AE;
},
{
alignment = -1;
name = acute.cap;
transform = "{0.84, 0, 0, 1, 1118, 0}";
}
);
layerId = master01;
width = 1728;
},
{
background = {
paths = (
{
closed = 1;
nodes = (
"1016 1398 LINE",
"1065 1398 LINE",
"613 106 LINE",
"464 68 LINE",
"439 0 LINE",
"1499 0 LINE",
"1654 463 LINE",
"1596 463 LINE",
"1530 341 OFFCURVE",
"1454 229 OFFCURVE",
"1353 104 CURVE",
"876 104 LINE",
"1104 754 LINE",
"1292 754 LINE",
"1310 679 OFFCURVE",
"1315 602 OFFCURVE",
"1307 529 CURVE",
"1377 529 LINE",
"1570 1082 LINE",
"1500 1082 LINE",
"1467 1020 OFFCURVE",
"1411 947 OFFCURVE",
"1330 858 CURVE",
"1141 858 LINE",
"1336 1420 LINE",
"1640 1420 LINE",
"1691 1330 OFFCURVE",
"1733 1225 OFFCURVE",
"1770 1088 CURVE",
"1828 1088 LINE",
"1814 1523 LINE",
"848 1523 LINE",
"823 1455 LINE",
"1016 1424 LINE"
);
},
{
closed = 1;
nodes = (
"860 547 LINE",
"324 547 LINE",
"286 443 LINE",
"822 443 LINE"
);
},
{
closed = 1;
nodes = (
"995 1495 LINE",
"120 292 LINE SMOOTH",
"-5 122 OFFCURVE",
"-32 102 OFFCURVE",
"-189 68 CURVE",
"-212 0 LINE",
"307 0 LINE",
"331 68 LINE",
"222 94 OFFCURVE",
"180 121 OFFCURVE",
"180 165 CURVE SMOOTH",
"180 193 OFFCURVE",
"197 231 OFFCURVE",
"239 289 CURVE SMOOTH",
"1088 1449 LINE"
);
},
{
closed = 1;
nodes = (
"1480 1692 LINE SMOOTH",
"1526 1702 OFFCURVE",
"1556 1746 OFFCURVE",
"1556 1803 CURVE SMOOTH",
"1556 1871 OFFCURVE",
"1513 1924 OFFCURVE",
"1456 1924 CURVE SMOOTH",
"1422 1924 OFFCURVE",
"1388 1903 OFFCURVE",
"1353 1870 CURVE SMOOTH",
"1145 1674 LINE",
"1179 1622 LINE"
);
}
);
};
components = (
{
alignment = -1;
name = AE;
},
{
alignment = -1;
name = acute.cap;
transform = "{0.84, 0, 0, 1, 696, 0}";
}
);
layerId = "D3934E74-9B53-4E98-B19F-CD3DFEE08352";
width = 1760;
}
);
leftKerningGroup = AE;
leftMetricsKey = A;
rightKerningGroup = E;
rightMetricsKey = E;
unicode = 01FC;
},
{
glyphname = B;
layers = (
{
background = {
paths = (
{
closed = 1;
nodes = (
"493 0 LINE SMOOTH",
"815 0 OFFCURVE",
"1029 184 OFFCURVE",
"1029 463 CURVE SMOOTH",
"1029 630 OFFCURVE",
"955 746 OFFCURVE",
"822 786 CURVE",
"822 793 LINE",
"1042 834 OFFCURVE",
"1204 1013 OFFCURVE",
"1204 1214 CURVE SMOOTH",
"1204 1406 OFFCURVE",
"1054 1523 OFFCURVE",
"818 1523 CURVE SMOOTH",
"419 1523 LINE",
"404 1479 LINE",
"534 1441 LINE",
"57 83 LINE",
"-90 45 LINE",
"-104 0 LINE"
);
},
{
closed = 1;
nodes = (
"311 75 OFFCURVE",
"277 94 OFFCURVE",
"277 146 CURVE SMOOTH",
"277 172 OFFCURVE",
"285 211 OFFCURVE",
"304 267 CURVE SMOOTH",
"478 770 LINE",
"598 770 LINE SMOOTH",
"767 770 OFFCURVE",
"850 685 OFFCURVE",
"850 497 CURVE SMOOTH",
"850 226 OFFCURVE",
"697 75 OFFCURVE",
"405 75 CURVE SMOOTH"
);
},
{
closed = 1;
nodes = (
"716 1443 LINE",
"818 1443 LINE SMOOTH",
"959 1443 OFFCURVE",
"1031 1369 OFFCURVE",
"1031 1211 CURVE SMOOTH",
"1031 985 OFFCURVE",
"896 849 OFFCURVE",
"661 849 CURVE SMOOTH",
"506 849 LINE"
);
}
);
};
guideLines = (
{
position = "{1543, 1251}";
}
);
layerId = master01;
paths = (
{
closed = 1;
nodes = (
"493 0 LINE SMOOTH",
"815 0 OFFCURVE",
"1029 184 OFFCURVE",
"1029 463 CURVE SMOOTH",
"1029 630 OFFCURVE",
"955 746 OFFCURVE",
"822 786 CURVE",
"822 793 LINE",
"1042 834 OFFCURVE",
"1204 1013 OFFCURVE",
"1204 1214 CURVE SMOOTH",
"1204 1406 OFFCURVE",
"1054 1523 OFFCURVE",
"818 1523 CURVE SMOOTH",
"419 1523 LINE",
"404 1479 LINE",
"534 1441 LINE",
"57 83 LINE",
"-90 45 LINE",
"-104 0 LINE"
);
},
{
closed = 1;
nodes = (
"311 75 OFFCURVE",
"277 94 OFFCURVE",
"277 146 CURVE SMOOTH",
"277 172 OFFCURVE",
"285 211 OFFCURVE",
"304 267 CURVE SMOOTH",
"478 770 LINE",
"598 770 LINE SMOOTH",
"767 770 OFFCURVE",
"850 685 OFFCURVE",
"850 497 CURVE SMOOTH",
"850 226 OFFCURVE",
"697 75 OFFCURVE",
"405 75 CURVE SMOOTH"
);
},
{
closed = 1;
nodes = (
"716 1443 LINE",
"818 1443 LINE SMOOTH",
"959 1443 OFFCURVE",
"1031 1369 OFFCURVE",
"1031 1211 CURVE SMOOTH",
"1031 985 OFFCURVE",
"896 849 OFFCURVE",
"661 849 CURVE SMOOTH",
"506 849 LINE"
);
}
);
width = 1158;
},
{
background = {
paths = (
{
closed = 1;
nodes = (
"504 0 LINE SMOOTH",
"855 0 OFFCURVE",
"1089 204 OFFCURVE",
"1089 474 CURVE SMOOTH",
"1089 647 OFFCURVE",
"1006 762 OFFCURVE",
"816 791 CURVE",
"816 804 LINE",
"1130 856 OFFCURVE",
"1283 1006 OFFCURVE",
"1283 1213 CURVE SMOOTH",
"1283 1413 OFFCURVE",
"1136 1523 OFFCURVE",
"831 1523 CURVE SMOOTH",
"407 1523 LINE",
"383 1455 LINE",
"522 1416 LINE",
"65 106 LINE",
"-85 68 LINE",
"-109 0 LINE"
);
},
{
closed = 1;
nodes = (
"402 104 OFFCURVE",
"368 126 OFFCURVE",
"368 170 CURVE SMOOTH",
"368 182 OFFCURVE",
"370 199 OFFCURVE",
"378 222 CURVE SMOOTH",
"567 759 LINE",
"618 759 LINE SMOOTH",
"755 759 OFFCURVE",
"820 682 OFFCURVE",
"819 518 CURVE SMOOTH",
"818 272 OFFCURVE",
"678 104 OFFCURVE",
"474 104 CURVE SMOOTH"
);
},
{
closed = 1;
nodes = (
"797 1420 LINE",
"806 1420 LINE SMOOTH",
"943 1420 OFFCURVE",
"1013 1344 OFFCURVE",
"1013 1193 CURVE SMOOTH",
"1013 993 OFFCURVE",
"887 862 OFFCURVE",
"690 862 CURVE SMOOTH",
"602 862 LINE"
);
}
);
};
guideLines = (
{
position = "{736, 703}";
}
);
layerId = "D3934E74-9B53-4E98-B19F-CD3DFEE08352";
paths = (
{
closed = 1;
nodes = (
"504 0 LINE SMOOTH",
"855 0 OFFCURVE",
"1089 204 OFFCURVE",
"1089 474 CURVE SMOOTH",
"1089 647 OFFCURVE",
"1006 762 OFFCURVE",
"816 791 CURVE",
"816 804 LINE",
"1130 856 OFFCURVE",
"1283 1006 OFFCURVE",
"1283 1213 CURVE SMOOTH",
"1283 1413 OFFCURVE",
"1136 1523 OFFCURVE",
"831 1523 CURVE SMOOTH",
"407 1523 LINE",
"383 1455 LINE",
"522 1416 LINE",
"65 106 LINE",
"-85 68 LINE",
"-109 0 LINE"
);
},
{
closed = 1;
nodes = (
"402 104 OFFCURVE",
"368 126 OFFCURVE",
"368 170 CURVE SMOOTH",
"368 182 OFFCURVE",
"370 199 OFFCURVE",
"378 222 CURVE SMOOTH",
"567 759 LINE",
"618 759 LINE SMOOTH",
"755 759 OFFCURVE",
"820 682 OFFCURVE",
"819 518 CURVE SMOOTH",
"818 272 OFFCURVE",
"678 104 OFFCURVE",
"474 104 CURVE SMOOTH"
);
},
{
closed = 1;
nodes = (
"797 1420 LINE",
"806 1420 LINE SMOOTH",
"943 1420 OFFCURVE",
"1013 1344 OFFCURVE",
"1013 1193 CURVE SMOOTH",
"1013 993 OFFCURVE",
"887 862 OFFCURVE",
"690 862 CURVE SMOOTH",
"602 862 LINE"
);
}
);
width = 1200;
}
);
leftKerningGroup = I;
leftMetricsKey = I;
rightKerningGroup = B;
unicode = 0042;
},
{
glyphname = C;
layers = (
{
anchors = (
{
name = bottom;
position = "{515, 0}";
},
{
name = topcap;
position = "{1108, 1643}";
}
);
background = {
anchors = (
{
name = bottom;
position = "{515, 0}";
},
{
name = topcap;
position = "{1108, 1643}";
}
);
paths = (
{
closed = 1;
nodes = (
"655 -21 OFFCURVE",
"769 29 OFFCURVE",
"901 153 CURVE",
"908 153 LINE",
"895 0 LINE",
"940 0 LINE",
"1124 580 LINE",
"1076 580 LINE",
"962 265 OFFCURVE",
"764 73 OFFCURVE",
"551 73 CURVE SMOOTH",
"383 73 OFFCURVE",
"297 193 OFFCURVE",
"297 433 CURVE SMOOTH",
"297 944 OFFCURVE",
"671 1457 OFFCURVE",
"1044 1457 CURVE SMOOTH",
"1174 1457 OFFCURVE",
"1234 1396 OFFCURVE",
"1234 1255 CURVE SMOOTH",
"1234 1203 OFFCURVE",
"1226 1142 OFFCURVE",
"1209 1069 CURVE",
"1258 1069 LINE",
"1419 1523 LINE",
"1382 1523 LINE",
"1322 1459 LINE",
"1262 1512 OFFCURVE",
"1167 1544 OFFCURVE",
"1061 1544 CURVE SMOOTH",
"589 1544 OFFCURVE",
"115 982 OFFCURVE",
"115 421 CURVE SMOOTH",
"115 128 OFFCURVE",
"244 -21 OFFCURVE",
"506 -21 CURVE SMOOTH"
);
}
);
};
guideLines = (
{
angle = 68;
position = "{1268, 772}";
}
);
layerId = master01;
paths = (
{
closed = 1;
nodes = (
"655 -21 OFFCURVE",
"769 29 OFFCURVE",
"901 153 CURVE",
"908 153 LINE",
"895 0 LINE",
"940 0 LINE",
"1124 580 LINE",
"1076 580 LINE",
"962 265 OFFCURVE",
"764 73 OFFCURVE",
"551 73 CURVE SMOOTH",
"383 73 OFFCURVE",
"297 193 OFFCURVE",
"297 433 CURVE SMOOTH",
"297 944 OFFCURVE",
"671 1457 OFFCURVE",
"1044 1457 CURVE SMOOTH",
"1174 1457 OFFCURVE",
"1234 1396 OFFCURVE",
"1234 1255 CURVE SMOOTH",
"1234 1203 OFFCURVE",
"1226 1142 OFFCURVE",
"1209 1069 CURVE",
"1258 1069 LINE",
"1419 1523 LINE",
"1382 1523 LINE",
"1322 1459 LINE",
"1262 1512 OFFCURVE",
"1167 1544 OFFCURVE",
"1061 1544 CURVE SMOOTH",
"589 1544 OFFCURVE",
"115 982 OFFCURVE",
"115 421 CURVE SMOOTH",
"115 128 OFFCURVE",
"244 -21 OFFCURVE",
"506 -21 CURVE SMOOTH"
);
}
);
width = 1229;
},
{
anchors = (
{
name = bottom;
position = "{502, 0}";
},
{
name = topcap;
position = "{1095, 1643}";
}
);
background = {
anchors = (
{
name = bottom;
position = "{502, 0}";
},
{
name = topcap;
position = "{1095, 1643}";
}
);
paths = (
{
closed = 1;
nodes = (
"720 -21 OFFCURVE",
"857 38 OFFCURVE",
"977 129 CURVE",
"981 129 LINE",
"982 0 LINE",
"1040 0 LINE",
"1242 611 LINE",
"1184 611 LINE",
"1034 278 OFFCURVE",
"809 88 OFFCURVE",
"630 88 CURVE SMOOTH",
"488 88 OFFCURVE",
"415 187 OFFCURVE",
"415 432 CURVE SMOOTH",
"415 964 OFFCURVE",
"730 1438 OFFCURVE",
"1058 1438 CURVE SMOOTH",
"1222 1438 OFFCURVE",
"1305 1324 OFFCURVE",
"1305 1126 CURVE SMOOTH",
"1305 1093 OFFCURVE",
"1303 1065 OFFCURVE",
"1298 1039 CURVE",
"1356 1039 LINE",
"1523 1523 LINE",
"1465 1523 LINE",
"1394 1435 LINE",
"1309 1507 OFFCURVE",
"1185 1544 OFFCURVE",
"1054 1544 CURVE SMOOTH",
"583 1544 OFFCURVE",
"127 1055 OFFCURVE",
"127 488 CURVE SMOOTH",
"127 157 OFFCURVE",
"284 -21 OFFCURVE",
"564 -21 CURVE SMOOTH"
);
}
);
};
layerId = "D3934E74-9B53-4E98-B19F-CD3DFEE08352";
paths = (
{
closed = 1;
nodes = (
"720 -21 OFFCURVE",
"857 38 OFFCURVE",
"977 129 CURVE",
"981 129 LINE",
"982 0 LINE",
"1040 0 LINE",
"1242 611 LINE",
"1184 611 LINE",
"1034 278 OFFCURVE",
"809 88 OFFCURVE",
"630 88 CURVE SMOOTH",
"488 88 OFFCURVE",
"415 187 OFFCURVE",
"415 432 CURVE SMOOTH",
"415 964 OFFCURVE",
"730 1438 OFFCURVE",
"1058 1438 CURVE SMOOTH",
"1222 1438 OFFCURVE",
"1305 1324 OFFCURVE",
"1305 1126 CURVE SMOOTH",
"1305 1093 OFFCURVE",
"1303 1065 OFFCURVE",
"1298 1039 CURVE",
"1356 1039 LINE",
"1523 1523 LINE",
"1465 1523 LINE",
"1394 1435 LINE",
"1309 1507 OFFCURVE",
"1185 1544 OFFCURVE",
"1054 1544 CURVE SMOOTH",
"583 1544 OFFCURVE",
"127 1055 OFFCURVE",
"127 488 CURVE SMOOTH",
"127 157 OFFCURVE",
"284 -21 OFFCURVE",
"564 -21 CURVE SMOOTH"
);
}
);
width = 1320;
}
);
leftKerningGroup = C;
leftMetricsKey = O;
rightKerningGroup = C;
unicode = 0043;
},
{
glyphname = Cacute;
layers = (
{
background = {
anchors = (
{
name = bottom;
position = "{520, 0}";
},
{
name = topcap;
position = "{1113, 1643}";
}
);
paths = (
{
closed = 1;
nodes = (
"660 -21 OFFCURVE",
"774 29 OFFCURVE",
"906 153 CURVE",
"913 153 LINE",
"900 0 LINE",
"945 0 LINE",
"1129 580 LINE",
"1081 580 LINE",
"967 265 OFFCURVE",
"769 73 OFFCURVE",
"556 73 CURVE SMOOTH",
"388 73 OFFCURVE",
"302 193 OFFCURVE",
"302 433 CURVE SMOOTH",
"302 944 OFFCURVE",
"676 1457 OFFCURVE",
"1049 1457 CURVE SMOOTH",
"1179 1457 OFFCURVE",
"1239 1396 OFFCURVE",
"1239 1255 CURVE SMOOTH",
"1239 1203 OFFCURVE",
"1231 1142 OFFCURVE",
"1214 1069 CURVE",
"1263 1069 LINE",
"1424 1523 LINE",
"1387 1523 LINE",
"1327 1459 LINE",
"1267 1512 OFFCURVE",
"1172 1544 OFFCURVE",
"1066 1544 CURVE SMOOTH",
"594 1544 OFFCURVE",
"120 982 OFFCURVE",
"120 421 CURVE SMOOTH",
"120 128 OFFCURVE",
"249 -21 OFFCURVE",
"511 -21 CURVE SMOOTH"
);
},
{
closed = 1;
nodes = (
"1194 1703 LINE SMOOTH",
"1282 1732 OFFCURVE",
"1308 1769 OFFCURVE",
"1308 1815 CURVE SMOOTH",
"1308 1864 OFFCURVE",
"1272 1900 OFFCURVE",
"1236 1900 CURVE SMOOTH",
"1209 1900 OFFCURVE",
"1188 1891 OFFCURVE",
"1163 1868 CURVE SMOOTH",
"925 1656 LINE",
"941 1614 LINE"
);
}
);
};
components = (
{
name = C;
},
{
alignment = -1;
name = acute.cap;
transform = "{0.84, 0, 0, 1, 907, 0}";
}
);
layerId = master01;
width = 1233;
},
{
background = {
anchors = (
{
name = bottom;
position = "{504, 0}";
},
{
name = topcap;
position = "{1097, 1643}";
}
);
paths = (
{
closed = 1;
nodes = (
"722 -21 OFFCURVE",
"859 38 OFFCURVE",
"979 129 CURVE",
"983 129 LINE",
"984 0 LINE",
"1042 0 LINE",
"1244 611 LINE",
"1186 611 LINE",
"1036 278 OFFCURVE",
"811 88 OFFCURVE",
"632 88 CURVE SMOOTH",
"490 88 OFFCURVE",
"417 187 OFFCURVE",
"417 432 CURVE SMOOTH",
"417 964 OFFCURVE",
"732 1438 OFFCURVE",
"1060 1438 CURVE SMOOTH",
"1224 1438 OFFCURVE",
"1307 1324 OFFCURVE",
"1307 1126 CURVE SMOOTH",
"1307 1093 OFFCURVE",
"1305 1065 OFFCURVE",
"1300 1039 CURVE",
"1358 1039 LINE",
"1525 1523 LINE",
"1467 1523 LINE",
"1396 1435 LINE",
"1311 1507 OFFCURVE",
"1187 1544 OFFCURVE",
"1056 1544 CURVE SMOOTH",
"585 1544 OFFCURVE",
"129 1055 OFFCURVE",
"129 488 CURVE SMOOTH",
"129 157 OFFCURVE",
"286 -21 OFFCURVE",
"566 -21 CURVE SMOOTH"
);
},
{
closed = 1;
nodes = (
"1281 1692 LINE SMOOTH",
"1327 1702 OFFCURVE",
"1357 1746 OFFCURVE",
"1357 1803 CURVE SMOOTH",
"1357 1871 OFFCURVE",
"1314 1924 OFFCURVE",
"1257 1924 CURVE SMOOTH",
"1223 1924 OFFCURVE",
"1189 1903 OFFCURVE",
"1154 1870 CURVE SMOOTH",
"946 1674 LINE",
"980 1622 LINE"
);
}
);
};
components = (
{
name = C;
},
{
name = acute.cap;
transform = "{0.84, 0, 0, 1, 495, 0}";
}
);
layerId = "D3934E74-9B53-4E98-B19F-CD3DFEE08352";
width = 1320;
}
);
leftKerningGroup = C;
rightKerningGroup = C;
unicode = 0106;
},
{
glyphname = Ccaron;
layers = (
{
background = {
anchors = (
{
name = bottom;
position = "{520, 0}";
},
{
name = topcap;
position = "{1113, 1643}";
}
);
paths = (
{
closed = 1;
nodes = (
"660 -21 OFFCURVE",
"774 29 OFFCURVE",
"906 153 CURVE",
"913 153 LINE",
"900 0 LINE",
"945 0 LINE",
"1129 580 LINE",
"1081 580 LINE",
"967 265 OFFCURVE",
"769 73 OFFCURVE",
"556 73 CURVE SMOOTH",
"388 73 OFFCURVE",
"302 193 OFFCURVE",
"302 433 CURVE SMOOTH",
"302 944 OFFCURVE",
"676 1457 OFFCURVE",
"1049 1457 CURVE SMOOTH",
"1179 1457 OFFCURVE",
"1239 1396 OFFCURVE",
"1239 1255 CURVE SMOOTH",
"1239 1203 OFFCURVE",
"1231 1142 OFFCURVE",
"1214 1069 CURVE",
"1263 1069 LINE",
"1424 1523 LINE",
"1387 1523 LINE",
"1327 1459 LINE",
"1267 1512 OFFCURVE",
"1172 1544 OFFCURVE",
"1066 1544 CURVE SMOOTH",
"594 1544 OFFCURVE",
"120 982 OFFCURVE",
"120 421 CURVE SMOOTH",
"120 128 OFFCURVE",
"249 -21 OFFCURVE",
"511 -21 CURVE SMOOTH"
);
},
{
closed = 1;
nodes = (
"1136 1622 OFFCURVE",
"1159 1643 OFFCURVE",
"1200 1677 CURVE SMOOTH",
"1419 1867 LINE",
"1400 1900 LINE",
"1126 1765 LINE",
"974 1900 LINE",
"932 1867 LINE",
"1021 1677 LINE SMOOTH",
"1039 1639 OFFCURVE",
"1055 1622 OFFCURVE",
"1094 1622 CURVE SMOOTH"
);
}
);
};
components = (
{
name = C;
},
{
alignment = -1;
name = caron.cap;
transform = "{0.84, 0, 0, 1, 914, 0}";
}
);
layerId = master01;
width = 1233;
},
{
background = {
anchors = (
{
name = bottom;
position = "{504, 0}";
},
{
name = topcap;
position = "{1097, 1643}";
}
);
paths = (
{
closed = 1;
nodes = (
"722 -21 OFFCURVE",
"859 38 OFFCURVE",
"979 129 CURVE",
"983 129 LINE",
"984 0 LINE",
"1042 0 LINE",
"1244 611 LINE",
"1186 611 LINE",
"1036 278 OFFCURVE",
"811 88 OFFCURVE",
"632 88 CURVE SMOOTH",
"490 88 OFFCURVE",
"417 187 OFFCURVE",
"417 432 CURVE SMOOTH",
"417 964 OFFCURVE",
"732 1438 OFFCURVE",
"1060 1438 CURVE SMOOTH",
"1224 1438 OFFCURVE",
"1307 1324 OFFCURVE",
"1307 1126 CURVE SMOOTH",
"1307 1093 OFFCURVE",
"1305 1065 OFFCURVE",
"1300 1039 CURVE",
"1358 1039 LINE",
"1525 1523 LINE",
"1467 1523 LINE",
"1396 1435 LINE",
"1311 1507 OFFCURVE",
"1187 1544 OFFCURVE",
"1056 1544 CURVE SMOOTH",
"585 1544 OFFCURVE",
"129 1055 OFFCURVE",
"129 488 CURVE SMOOTH",
"129 157 OFFCURVE",
"286 -21 OFFCURVE",
"566 -21 CURVE SMOOTH"
);
},
{
closed = 1;
nodes = (
"1141 1622 OFFCURVE",
"1173 1639 OFFCURVE",
"1232 1692 CURVE SMOOTH",
"1459 1900 LINE",
"1438 1935 LINE",
"1141 1810 LINE",
"973 1935 LINE",
"926 1898 LINE",
"1017 1692 LINE SMOOTH",
"1039 1641 OFFCURVE",
"1062 1622 OFFCURVE",
"1104 1622 CURVE SMOOTH"
);
}
);
};
components = (
{
name = C;
},
{
name = caron.cap;
transform = "{0.84, 0, 0, 1, 422, 0}";
}
);
layerId = "D3934E74-9B53-4E98-B19F-CD3DFEE08352";
width = 1320;
}
);
leftKerningGroup = C;
rightKerningGroup = C;
unicode = 010C;
},
{
glyphname = Ccedilla;
layers = (
{
background = {
anchors = (
{
name = bottom;
position = "{520, 0}";
},
{
name = topcap;
position = "{1113, 1643}";
}
);
paths = (
{
closed = 1;
nodes = (
"660 -21 OFFCURVE",
"774 29 OFFCURVE",
"906 153 CURVE",
"913 153 LINE",
"900 0 LINE",
"945 0 LINE",
"1129 580 LINE",
"1081 580 LINE",
"967 265 OFFCURVE",
"769 73 OFFCURVE",
"556 73 CURVE SMOOTH",
"388 73 OFFCURVE",
"302 193 OFFCURVE",
"302 433 CURVE SMOOTH",
"302 944 OFFCURVE",
"676 1457 OFFCURVE",
"1049 1457 CURVE SMOOTH",
"1179 1457 OFFCURVE",
"1239 1396 OFFCURVE",
"1239 1255 CURVE SMOOTH",
"1239 1203 OFFCURVE",
"1231 1142 OFFCURVE",
"1214 1069 CURVE",
"1263 1069 LINE",
"1424 1523 LINE",
"1387 1523 LINE",
"1327 1459 LINE",
"1267 1512 OFFCURVE",
"1172 1544 OFFCURVE",
"1066 1544 CURVE SMOOTH",
"594 1544 OFFCURVE",
"120 982 OFFCURVE",
"120 421 CURVE SMOOTH",
"120 128 OFFCURVE",
"249 -21 OFFCURVE",
"511 -21 CURVE SMOOTH"
);
},
{
closed = 1;
nodes = (
"498 -508 OFFCURVE",
"630 -388 OFFCURVE",
"630 -253 CURVE SMOOTH",
"630 -167 OFFCURVE",
"578 -115 OFFCURVE",
"484 -115 CURVE",
"578 33 LINE",
"512 33 LINE",
"331 -240 LINE",
"344 -265 LINE",
"364 -250 OFFCURVE",
"392 -242 OFFCURVE",
"424 -242 CURVE SMOOTH",
"473 -242 OFFCURVE",
"494 -264 OFFCURVE",
"494 -310 CURVE SMOOTH",
"494 -390 OFFCURVE",
"429 -448 OFFCURVE",
"346 -448 CURVE SMOOTH",
"310 -448 OFFCURVE",
"284 -438 OFFCURVE",
"258 -416 CURVE",
"231 -461 LINE",
"250 -491 OFFCURVE",
"291 -508 OFFCURVE",
"347 -508 CURVE SMOOTH"
);
}
);
};
components = (
{
name = C;
},
{
name = cedilla;
transform = "{0.84, 0, 0, 1, 271, 0}";
}
);
layerId = master01;
width = 1229;
},
{
background = {
anchors = (
{
name = bottom;
position = "{504, 0}";
},
{
name = topcap;
position = "{1097, 1643}";
}
);
paths = (
{
closed = 1;
nodes = (
"722 -21 OFFCURVE",
"859 38 OFFCURVE",
"979 129 CURVE",
"983 129 LINE",
"984 0 LINE",
"1042 0 LINE",
"1244 611 LINE",
"1186 611 LINE",
"1036 278 OFFCURVE",
"811 88 OFFCURVE",
"632 88 CURVE SMOOTH",
"490 88 OFFCURVE",
"417 187 OFFCURVE",
"417 432 CURVE SMOOTH",
"417 964 OFFCURVE",
"732 1438 OFFCURVE",
"1060 1438 CURVE SMOOTH",
"1224 1438 OFFCURVE",
"1307 1324 OFFCURVE",
"1307 1126 CURVE SMOOTH",
"1307 1093 OFFCURVE",
"1305 1065 OFFCURVE",
"1300 1039 CURVE",
"1358 1039 LINE",
"1525 1523 LINE",
"1467 1523 LINE",
"1396 1435 LINE",
"1311 1507 OFFCURVE",
"1187 1544 OFFCURVE",
"1056 1544 CURVE SMOOTH",
"585 1544 OFFCURVE",
"129 1055 OFFCURVE",
"129 488 CURVE SMOOTH",
"129 157 OFFCURVE",
"286 -21 OFFCURVE",
"566 -21 CURVE SMOOTH"
);
},
{
closed = 1;
nodes = (
"485 -509 OFFCURVE",
"634 -383 OFFCURVE",
"634 -245 CURVE SMOOTH",
"634 -165 OFFCURVE",
"586 -114 OFFCURVE",
"474 -114 CURVE",
"568 33 LINE",
"479 33 LINE",
"291 -251 LINE",
"306 -294 LINE",
"331 -278 OFFCURVE",
"361 -266 OFFCURVE",
"398 -266 CURVE SMOOTH",
"442 -266 OFFCURVE",
"471 -281 OFFCURVE",
"471 -327 CURVE SMOOTH",
"471 -387 OFFCURVE",
"422 -438 OFFCURVE",
"338 -438 CURVE SMOOTH",
"285 -438 OFFCURVE",
"254 -419 OFFCURVE",
"224 -395 CURVE",
"190 -449 LINE",
"218 -485 OFFCURVE",
"276 -509 OFFCURVE",
"339 -509 CURVE SMOOTH"
);
}
);
};
components = (
{
name = C;
},
{
name = cedilla;
transform = "{0.84, 0, 0, 1, 480, 0}";
}
);
layerId = "D3934E74-9B53-4E98-B19F-CD3DFEE08352";
width = 1320;
}
);
leftKerningGroup = C;
rightKerningGroup = C;
unicode = 00C7;
},
{
glyphname = Ccircumflex;
layers = (
{
background = {
anchors = (
{
name = bottom;
position = "{520, 0}";
},
{
name = topcap;
position = "{1113, 1643}";
}
);
paths = (
{
closed = 1;
nodes = (
"660 -21 OFFCURVE",
"774 29 OFFCURVE",
"906 153 CURVE",
"913 153 LINE",
"900 0 LINE",
"945 0 LINE",
"1129 580 LINE",
"1081 580 LINE",
"967 265 OFFCURVE",
"769 73 OFFCURVE",
"556 73 CURVE SMOOTH",
"388 73 OFFCURVE",
"302 193 OFFCURVE",
"302 433 CURVE SMOOTH",
"302 944 OFFCURVE",
"676 1457 OFFCURVE",
"1049 1457 CURVE SMOOTH",
"1179 1457 OFFCURVE",
"1239 1396 OFFCURVE",
"1239 1255 CURVE SMOOTH",
"1239 1203 OFFCURVE",
"1231 1142 OFFCURVE",
"1214 1069 CURVE",
"1263 1069 LINE",
"1424 1523 LINE",
"1387 1523 LINE",
"1327 1459 LINE",
"1267 1512 OFFCURVE",
"1172 1544 OFFCURVE",
"1066 1544 CURVE SMOOTH",
"594 1544 OFFCURVE",
"120 982 OFFCURVE",
"120 421 CURVE SMOOTH",
"120 128 OFFCURVE",
"249 -21 OFFCURVE",
"511 -21 CURVE SMOOTH"
);
},
{
closed = 1;
nodes = (
"1151 1757 LINE",
"1302 1622 LINE",
"1345 1656 LINE",
"1256 1847 LINE SMOOTH",
"1237 1885 OFFCURVE",
"1221 1900 OFFCURVE",
"1183 1900 CURVE SMOOTH",
"1142 1900 OFFCURVE",
"1116 1880 OFFCURVE",
"1076 1847 CURVE SMOOTH",
"858 1656 LINE",
"877 1622 LINE"
);
}
);
};
components = (
{
name = C;
},
{
name = circumflex.cap;
transform = "{0.84, 0, 0, 1, 835, 0}";
}
);
layerId = master01;
width = 1229;
},
{
background = {
anchors = (
{
name = bottom;
position = "{504, 0}";
},
{
name = topcap;
position = "{1097, 1643}";
}
);
paths = (
{
closed = 1;
nodes = (
"722 -21 OFFCURVE",
"859 38 OFFCURVE",
"979 129 CURVE",
"983 129 LINE",
"984 0 LINE",
"1042 0 LINE",
"1244 611 LINE",
"1186 611 LINE",
"1036 278 OFFCURVE",
"811 88 OFFCURVE",
"632 88 CURVE SMOOTH",
"490 88 OFFCURVE",
"417 187 OFFCURVE",
"417 432 CURVE SMOOTH",
"417 964 OFFCURVE",
"732 1438 OFFCURVE",
"1060 1438 CURVE SMOOTH",
"1224 1438 OFFCURVE",
"1307 1324 OFFCURVE",
"1307 1126 CURVE SMOOTH",
"1307 1093 OFFCURVE",
"1305 1065 OFFCURVE",
"1300 1039 CURVE",
"1358 1039 LINE",
"1525 1523 LINE",
"1467 1523 LINE",
"1396 1435 LINE",
"1311 1507 OFFCURVE",
"1187 1544 OFFCURVE",
"1056 1544 CURVE SMOOTH",
"585 1544 OFFCURVE",
"129 1055 OFFCURVE",
"129 488 CURVE SMOOTH",
"129 157 OFFCURVE",
"286 -21 OFFCURVE",
"566 -21 CURVE SMOOTH"
);
},
{
closed = 1;
nodes = (
"1134 1747 LINE",
"1303 1622 LINE",
"1350 1659 LINE",
"1259 1865 LINE SMOOTH",
"1236 1915 OFFCURVE",
"1214 1935 OFFCURVE",
"1172 1935 CURVE SMOOTH",
"1134 1935 OFFCURVE",
"1102 1918 OFFCURVE",
"1044 1865 CURVE SMOOTH",
"817 1657 LINE",
"838 1622 LINE"
);
}
);
};
components = (
{
name = C;
},
{
name = circumflex.cap;
transform = "{0.84, 0, 0, 1, 371, 0}";
}
);
layerId = "D3934E74-9B53-4E98-B19F-CD3DFEE08352";
width = 1320;
}
);
leftKerningGroup = C;
rightKerningGroup = C;
unicode = 0108;
},
{
glyphname = Cdotaccent;
layers = (
{
background = {
anchors = (
{
name = bottom;
position = "{520, 0}";
},
{
name = topcap;
position = "{1113, 1643}";
}
);
paths = (
{
closed = 1;
nodes = (
"660 -21 OFFCURVE",
"774 29 OFFCURVE",
"906 153 CURVE",
"913 153 LINE",
"900 0 LINE",
"945 0 LINE",
"1129 580 LINE",
"1081 580 LINE",
"967 265 OFFCURVE",
"769 73 OFFCURVE",
"556 73 CURVE SMOOTH",
"388 73 OFFCURVE",
"302 193 OFFCURVE",
"302 433 CURVE SMOOTH",
"302 944 OFFCURVE",
"676 1457 OFFCURVE",
"1049 1457 CURVE SMOOTH",
"1179 1457 OFFCURVE",
"1239 1396 OFFCURVE",
"1239 1255 CURVE SMOOTH",
"1239 1203 OFFCURVE",
"1231 1142 OFFCURVE",
"1214 1069 CURVE",
"1263 1069 LINE",
"1424 1523 LINE",
"1387 1523 LINE",
"1327 1459 LINE",
"1267 1512 OFFCURVE",
"1172 1544 OFFCURVE",
"1066 1544 CURVE SMOOTH",
"594 1544 OFFCURVE",
"120 982 OFFCURVE",
"120 421 CURVE SMOOTH",
"120 128 OFFCURVE",
"249 -21 OFFCURVE",
"511 -21 CURVE SMOOTH"
);
},
{
closed = 1;
nodes = (
"1224 1654 OFFCURVE",
"1285 1719 OFFCURVE",
"1285 1792 CURVE SMOOTH",
"1285 1852 OFFCURVE",
"1235 1900 OFFCURVE",
"1180 1900 CURVE SMOOTH",
"1116 1900 OFFCURVE",
"1059 1839 OFFCURVE",
"1059 1765 CURVE SMOOTH",
"1059 1698 OFFCURVE",
"1098 1654 OFFCURVE",
"1161 1654 CURVE SMOOTH"
);
}
);
};
components = (
{
name = C;
},
{
alignment = -1;
name = dotaccent.cap;
transform = "{0.84, 0, 0, 1, 1041, 0}";
}
);
layerId = master01;
width = 1233;
},
{
background = {
anchors = (
{
name = bottom;
position = "{504, 0}";
},
{
name = topcap;
position = "{1097, 1643}";
}
);
paths = (
{
closed = 1;
nodes = (
"722 -21 OFFCURVE",
"859 38 OFFCURVE",
"979 129 CURVE",
"983 129 LINE",
"984 0 LINE",
"1042 0 LINE",
"1244 611 LINE",
"1186 611 LINE",
"1036 278 OFFCURVE",
"811 88 OFFCURVE",
"632 88 CURVE SMOOTH",
"490 88 OFFCURVE",
"417 187 OFFCURVE",
"417 432 CURVE SMOOTH",
"417 964 OFFCURVE",
"732 1438 OFFCURVE",
"1060 1438 CURVE SMOOTH",
"1224 1438 OFFCURVE",
"1307 1324 OFFCURVE",
"1307 1126 CURVE SMOOTH",
"1307 1093 OFFCURVE",
"1305 1065 OFFCURVE",
"1300 1039 CURVE",
"1358 1039 LINE",
"1525 1523 LINE",
"1467 1523 LINE",
"1396 1435 LINE",
"1311 1507 OFFCURVE",
"1187 1544 OFFCURVE",
"1056 1544 CURVE SMOOTH",
"585 1544 OFFCURVE",
"129 1055 OFFCURVE",
"129 488 CURVE SMOOTH",
"129 157 OFFCURVE",
"286 -21 OFFCURVE",
"566 -21 CURVE SMOOTH"
);
},
{
closed = 1;
nodes = (
"1215 1654 OFFCURVE",
"1283 1728 OFFCURVE",
"1283 1810 CURVE SMOOTH",
"1283 1880 OFFCURVE",
"1228 1932 OFFCURVE",
"1164 1932 CURVE SMOOTH",
"1093 1932 OFFCURVE",
"1029 1863 OFFCURVE",
"1029 1781 CURVE SMOOTH",
"1029 1705 OFFCURVE",
"1072 1654 OFFCURVE",
"1143 1654 CURVE SMOOTH"
);
}
);
};
components = (
{
name = C;
},
{
name = dotaccent.cap;
transform = "{0.84, 0, 0, 1, 547, 0}";
}
);
layerId = "D3934E74-9B53-4E98-B19F-CD3DFEE08352";
width = 1320;
}
);
leftKerningGroup = C;
rightKerningGroup = C;
unicode = 010A;
},
{
glyphname = D;
layers = (
{
anchors = (
{
name = bottom;
position = "{427, 0}";
},
{
name = topcap;
position = "{958, 1643}";
}
);
background = {
anchors = (
{
name = bottom;
position = "{427, 0}";
},
{
name = topcap;
position = "{958, 1643}";
}
);
paths = (
{
closed = 1;
nodes = (
"405 0 LINE SMOOTH",
"928 0 OFFCURVE",
"1302 466 OFFCURVE",
"1302 965 CURVE SMOOTH",
"1302 1338 OFFCURVE",
"1090 1523 OFFCURVE",
"761 1523 CURVE SMOOTH",
"419 1523 LINE",
"402 1479 LINE",
"532 1441 LINE",
"60 83 LINE",
"-94 45 LINE",
"-110 0 LINE"
);
},
{
closed = 1;
nodes = (
"311 83 OFFCURVE",
"279 104 OFFCURVE",
"279 159 CURVE SMOOTH",
"279 182 OFFCURVE",
"286 214 OFFCURVE",
"301 256 CURVE SMOOTH",
"714 1445 LINE",
"759 1445 LINE SMOOTH",
"983 1445 OFFCURVE",
"1118 1313 OFFCURVE",
"1118 1010 CURVE SMOOTH",
"1118 516 OFFCURVE",
"774 83 OFFCURVE",
"400 83 CURVE SMOOTH"
);
}
);
};
layerId = master01;
paths = (
{
closed = 1;
nodes = (
"405 0 LINE SMOOTH",
"928 0 OFFCURVE",
"1302 466 OFFCURVE",
"1302 965 CURVE SMOOTH",
"1302 1338 OFFCURVE",
"1090 1523 OFFCURVE",
"761 1523 CURVE SMOOTH",
"419 1523 LINE",
"402 1479 LINE",
"532 1441 LINE",
"60 83 LINE",
"-94 45 LINE",
"-110 0 LINE"
);
},
{
closed = 1;
nodes = (
"311 83 OFFCURVE",
"279 104 OFFCURVE",
"279 159 CURVE SMOOTH",
"279 182 OFFCURVE",
"286 214 OFFCURVE",
"301 256 CURVE SMOOTH",
"714 1445 LINE",
"759 1445 LINE SMOOTH",
"983 1445 OFFCURVE",
"1118 1313 OFFCURVE",
"1118 1010 CURVE SMOOTH",
"1118 516 OFFCURVE",
"774 83 OFFCURVE",
"400 83 CURVE SMOOTH"
);
}
);
width = 1299;
},
{
anchors = (
{
name = bottom;
position = "{501, 0}";
},
{
name = topcap;
position = "{1033, 1643}";
}
);
background = {
anchors = (
{
name = bottom;
position = "{501, 0}";
},
{
name = topcap;
position = "{1033, 1643}";
}
);
paths = (
{
closed = 1;
nodes = (
"498 0 LINE",
"1059 0 OFFCURVE",
"1469 409 OFFCURVE",
"1469 934 CURVE SMOOTH",
"1469 1318 OFFCURVE",
"1257 1523 OFFCURVE",
"868 1523 CURVE SMOOTH",
"407 1523 LINE",
"383 1455 LINE",
"522 1416 LINE",
"65 106 LINE",
"-85 68 LINE",
"-109 0 LINE"
);
},
{
closed = 1;
nodes = (
"410 107 OFFCURVE",
"379 131 OFFCURVE",
"379 176 CURVE SMOOTH",
"379 190 OFFCURVE",
"382 207 OFFCURVE",
"389 226 CURVE SMOOTH",
"805 1414 LINE",
"877 1414 LINE SMOOTH",
"1067 1414 OFFCURVE",
"1182 1278 OFFCURVE",
"1182 994 CURVE SMOOTH",
"1182 522 OFFCURVE",
"869 107 OFFCURVE",
"471 107 CURVE SMOOTH"
);
}
);
};
layerId = "D3934E74-9B53-4E98-B19F-CD3DFEE08352";
paths = (
{
closed = 1;
nodes = (
"498 0 LINE",
"1059 0 OFFCURVE",
"1469 409 OFFCURVE",
"1469 934 CURVE SMOOTH",
"1469 1318 OFFCURVE",
"1257 1523 OFFCURVE",
"868 1523 CURVE SMOOTH",
"407 1523 LINE",
"383 1455 LINE",
"522 1416 LINE",
"65 106 LINE",
"-85 68 LINE",
"-109 0 LINE"
);
},
{
closed = 1;
nodes = (
"410 107 OFFCURVE",
"379 131 OFFCURVE",
"379 176 CURVE SMOOTH",
"379 190 OFFCURVE",
"382 207 OFFCURVE",
"389 226 CURVE SMOOTH",
"805 1414 LINE",
"877 1414 LINE SMOOTH",
"1067 1414 OFFCURVE",
"1182 1278 OFFCURVE",
"1182 994 CURVE SMOOTH",
"1182 522 OFFCURVE",
"869 107 OFFCURVE",
"471 107 CURVE SMOOTH"
);
}
);
width = 1462;
}
);
leftKerningGroup = I;
leftMetricsKey = I;
rightKerningGroup = D;
rightMetricsKey = D;
unicode = 0044;
},
{
glyphname = Eth;
layers = (
{
background = {
anchors = (
{
name = bottom;
position = "{428, 0}";
},
{
name = topcap;
position = "{959, 1643}";
}
);
paths = (
{
closed = 1;
nodes = (
"689 744 LINE",
"720 831 LINE",
"127 831 LINE",
"97 744 LINE"
);
},
{
closed = 1;
nodes = (
"406 0 LINE SMOOTH",
"929 0 OFFCURVE",
"1303 466 OFFCURVE",
"1303 965 CURVE SMOOTH",
"1303 1338 OFFCURVE",
"1091 1523 OFFCURVE",
"762 1523 CURVE SMOOTH",
"420 1523 LINE",
"403 1479 LINE",
"533 1441 LINE",
"61 83 LINE",
"-93 45 LINE",
"-109 0 LINE"
);
},
{
closed = 1;
nodes = (
"312 83 OFFCURVE",
"280 104 OFFCURVE",
"280 159 CURVE SMOOTH",
"280 182 OFFCURVE",
"287 214 OFFCURVE",
"302 256 CURVE SMOOTH",
"715 1445 LINE",
"760 1445 LINE SMOOTH",
"984 1445 OFFCURVE",
"1119 1313 OFFCURVE",
"1119 1010 CURVE SMOOTH",
"1119 516 OFFCURVE",
"775 83 OFFCURVE",
"401 83 CURVE SMOOTH"
);
}
);
};
components = (
{
name = D;
transform = "{1, 0, 0, 1, 1, 0}";
}
);
layerId = master01;
paths = (
{
closed = 1;
nodes = (
"689 744 LINE",
"720 831 LINE",
"127 831 LINE",
"97 744 LINE"
);
}
);
width = 1300;
},
{
background = {
anchors = (
{
name = bottom;
position = "{502, 0}";
},
{
name = topcap;
position = "{1034, 1643}";
}
);
paths = (
{
closed = 1;
nodes = (
"734 721 LINE",
"780 854 LINE",
"149 854 LINE",
"103 721 LINE"
);
},
{
closed = 1;
nodes = (
"499 0 LINE",
"1060 0 OFFCURVE",
"1470 409 OFFCURVE",
"1470 934 CURVE SMOOTH",
"1470 1318 OFFCURVE",
"1258 1523 OFFCURVE",
"869 1523 CURVE SMOOTH",
"408 1523 LINE",
"384 1455 LINE",
"523 1416 LINE",
"66 106 LINE",
"-84 68 LINE",
"-108 0 LINE"
);
},
{
closed = 1;
nodes = (
"411 107 OFFCURVE",
"380 131 OFFCURVE",
"380 176 CURVE SMOOTH",
"380 190 OFFCURVE",
"383 207 OFFCURVE",
"390 226 CURVE SMOOTH",
"806 1414 LINE",
"878 1414 LINE SMOOTH",
"1068 1414 OFFCURVE",
"1183 1278 OFFCURVE",
"1183 994 CURVE SMOOTH",
"1183 522 OFFCURVE",
"870 107 OFFCURVE",
"472 107 CURVE SMOOTH"
);
}
);
};
components = (
{
name = D;
transform = "{1, 0, 0, 1, 1, 0}";
}
);
layerId = "D3934E74-9B53-4E98-B19F-CD3DFEE08352";
paths = (
{
closed = 1;
nodes = (
"734 721 LINE",
"780 854 LINE",
"149 854 LINE",
"103 721 LINE"
);
}
);
width = 1463;
}
);
leftKerningGroup = I;
rightKerningGroup = D;
rightMetricsKey = D;
unicode = 00D0;
},
{
glyphname = Dcaron;
layers = (
{
background = {
anchors = (
{
name = bottom;
position = "{427, 0}";
},
{
name = topcap;
position = "{958, 1643}";
}
);
paths = (
{
closed = 1;
nodes = (
"405 0 LINE SMOOTH",
"928 0 OFFCURVE",
"1302 466 OFFCURVE",
"1302 965 CURVE SMOOTH",
"1302 1338 OFFCURVE",
"1090 1523 OFFCURVE",
"761 1523 CURVE SMOOTH",
"419 1523 LINE",
"402 1479 LINE",
"532 1441 LINE",
"60 83 LINE",
"-94 45 LINE",
"-110 0 LINE"
);
},
{
closed = 1;
nodes = (
"311 83 OFFCURVE",
"279 104 OFFCURVE",
"279 159 CURVE SMOOTH",
"279 182 OFFCURVE",
"286 214 OFFCURVE",
"301 256 CURVE SMOOTH",
"714 1445 LINE",
"759 1445 LINE SMOOTH",
"983 1445 OFFCURVE",
"1118 1313 OFFCURVE",
"1118 1010 CURVE SMOOTH",
"1118 516 OFFCURVE",
"774 83 OFFCURVE",
"400 83 CURVE SMOOTH"
);
},
{
closed = 1;
nodes = (
"912 1622 OFFCURVE",
"935 1643 OFFCURVE",
"976 1677 CURVE SMOOTH",
"1195 1867 LINE",
"1176 1900 LINE",
"902 1765 LINE",
"750 1900 LINE",
"708 1867 LINE",
"797 1677 LINE SMOOTH",
"815 1639 OFFCURVE",
"831 1622 OFFCURVE",
"870 1622 CURVE SMOOTH"
);
}
);
};
components = (
{
name = D;
},
{
alignment = -1;
name = caron.cap;
transform = "{0.84, 0, 0, 1, 690, 0}";
}
);
layerId = master01;
width = 1339;
},
{
background = {
anchors = (
{
name = bottom;
position = "{501, 0}";
},
{
name = topcap;
position = "{1033, 1643}";
}
);
paths = (
{
closed = 1;
nodes = (
"498 0 LINE",
"1059 0 OFFCURVE",
"1469 409 OFFCURVE",
"1469 934 CURVE SMOOTH",
"1469 1318 OFFCURVE",
"1257 1523 OFFCURVE",
"868 1523 CURVE SMOOTH",
"407 1523 LINE",
"383 1455 LINE",
"522 1416 LINE",
"65 106 LINE",
"-85 68 LINE",
"-109 0 LINE"
);
},
{
closed = 1;
nodes = (
"410 107 OFFCURVE",
"379 131 OFFCURVE",
"379 176 CURVE SMOOTH",
"379 190 OFFCURVE",
"382 207 OFFCURVE",
"389 226 CURVE SMOOTH",
"805 1414 LINE",
"877 1414 LINE SMOOTH",
"1067 1414 OFFCURVE",
"1182 1278 OFFCURVE",
"1182 994 CURVE SMOOTH",
"1182 522 OFFCURVE",
"869 107 OFFCURVE",
"471 107 CURVE SMOOTH"
);
},
{
closed = 1;
nodes = (
"1077 1622 OFFCURVE",
"1109 1639 OFFCURVE",
"1168 1692 CURVE SMOOTH",
"1395 1900 LINE",
"1374 1935 LINE",
"1077 1810 LINE",
"909 1935 LINE",
"862 1898 LINE",
"953 1692 LINE SMOOTH",
"975 1641 OFFCURVE",
"998 1622 OFFCURVE",
"1040 1622 CURVE SMOOTH"
);
}
);
};
components = (
{
name = D;
},
{
name = caron.cap;
transform = "{0.84, 0, 0, 1, 360, 0}";
}
);
layerId = "D3934E74-9B53-4E98-B19F-CD3DFEE08352";
width = 1462;
}
);
leftKerningGroup = I;
rightKerningGroup = D;
unicode = 010E;
},
{
glyphname = Dcroat;
layers = (
{
background = {
anchors = (
{
name = bottom;
position = "{436, 0}";
},
{
name = topcap;
position = "{967, 1643}";
}
);
paths = (
{
closed = 1;
nodes = (
"697 744 LINE",
"728 831 LINE",
"135 831 LINE",
"105 744 LINE"
);
},
{
closed = 1;
nodes = (
"414 0 LINE SMOOTH",
"937 0 OFFCURVE",
"1311 466 OFFCURVE",
"1311 965 CURVE SMOOTH",
"1311 1338 OFFCURVE",
"1099 1523 OFFCURVE",
"770 1523 CURVE SMOOTH",
"428 1523 LINE",
"411 1479 LINE",
"541 1441 LINE",
"69 83 LINE",
"-85 45 LINE",
"-101 0 LINE"
);
},
{
closed = 1;
nodes = (
"320 83 OFFCURVE",
"288 104 OFFCURVE",
"288 159 CURVE SMOOTH",
"288 182 OFFCURVE",
"295 214 OFFCURVE",
"310 256 CURVE SMOOTH",
"723 1445 LINE",
"768 1445 LINE SMOOTH",
"992 1445 OFFCURVE",
"1127 1313 OFFCURVE",
"1127 1010 CURVE SMOOTH",
"1127 516 OFFCURVE",
"783 83 OFFCURVE",
"409 83 CURVE SMOOTH"
);
}
);
};
components = (
{
name = Eth;
}
);
layerId = master01;
width = 1300;
},
{
background = {
anchors = (
{
name = bottom;
position = "{500, 0}";
},
{
name = topcap;
position = "{1032, 1643}";
}
);
paths = (
{
closed = 1;
nodes = (
"732 721 LINE",
"778 854 LINE",
"147 854 LINE",
"101 721 LINE"
);
},
{
closed = 1;
nodes = (
"497 0 LINE",
"1058 0 OFFCURVE",
"1468 409 OFFCURVE",
"1468 934 CURVE SMOOTH",
"1468 1318 OFFCURVE",
"1256 1523 OFFCURVE",
"867 1523 CURVE SMOOTH",
"406 1523 LINE",
"382 1455 LINE",
"521 1416 LINE",
"64 106 LINE",
"-86 68 LINE",
"-110 0 LINE"
);
},
{
closed = 1;
nodes = (
"409 107 OFFCURVE",
"378 131 OFFCURVE",
"378 176 CURVE SMOOTH",
"378 190 OFFCURVE",
"381 207 OFFCURVE",
"388 226 CURVE SMOOTH",
"804 1414 LINE",
"876 1414 LINE SMOOTH",
"1066 1414 OFFCURVE",
"1181 1278 OFFCURVE",
"1181 994 CURVE SMOOTH",
"1181 522 OFFCURVE",
"868 107 OFFCURVE",
"470 107 CURVE SMOOTH"
);
}
);
};
components = (
{
name = Eth;
}
);
layerId = "D3934E74-9B53-4E98-B19F-CD3DFEE08352";
width = 1463;
}
);
leftKerningGroup = I;
leftMetricsKey = D;
rightKerningGroup = D;
rightMetricsKey = D;
unicode = 0110;
},
{
glyphname = Ddotbelow;
layers = (
{
background = {
anchors = (
{
name = bottom;
position = "{427, 0}";
},
{
name = topcap;
position = "{958, 1643}";
}
);
paths = (
{
closed = 1;
nodes = (
"405 0 LINE SMOOTH",
"928 0 OFFCURVE",
"1302 466 OFFCURVE",
"1302 965 CURVE SMOOTH",
"1302 1338 OFFCURVE",
"1090 1523 OFFCURVE",
"761 1523 CURVE SMOOTH",
"419 1523 LINE",
"402 1479 LINE",
"532 1441 LINE",
"60 83 LINE",
"-94 45 LINE",
"-110 0 LINE"
);
},
{
closed = 1;
nodes = (
"311 83 OFFCURVE",
"279 104 OFFCURVE",
"279 159 CURVE SMOOTH",
"279 182 OFFCURVE",
"286 214 OFFCURVE",
"301 256 CURVE SMOOTH",
"714 1445 LINE",
"759 1445 LINE SMOOTH",
"983 1445 OFFCURVE",
"1118 1313 OFFCURVE",
"1118 1010 CURVE SMOOTH",
"1118 516 OFFCURVE",
"774 83 OFFCURVE",
"400 83 CURVE SMOOTH"
);
},
{
closed = 1;
nodes = (
"392 -507 OFFCURVE",
"453 -440 OFFCURVE",
"453 -367 CURVE SMOOTH",
"453 -307 OFFCURVE",
"403 -260 OFFCURVE",
"348 -260 CURVE SMOOTH",
"284 -260 OFFCURVE",
"227 -320 OFFCURVE",
"227 -394 CURVE SMOOTH",
"227 -461 OFFCURVE",
"266 -507 OFFCURVE",
"329 -507 CURVE SMOOTH"
);
}
);
};
components = (
{
name = D;
},
{
name = dotbelow;
transform = "{1, 0, 0, 1, 209, 0}";
}
);
layerId = master01;
width = 1299;
},
{
background = {
anchors = (
{
name = bottom;
position = "{501, 0}";
},
{
name = topcap;
position = "{1033, 1643}";
}
);
paths = (
{
closed = 1;
nodes = (
"498 0 LINE",
"1059 0 OFFCURVE",
"1469 409 OFFCURVE",
"1469 934 CURVE SMOOTH",
"1469 1318 OFFCURVE",
"1257 1523 OFFCURVE",
"868 1523 CURVE SMOOTH",
"407 1523 LINE",
"383 1455 LINE",
"522 1416 LINE",
"65 106 LINE",
"-85 68 LINE",
"-109 0 LINE"
);
},
{
closed = 1;
nodes = (
"410 107 OFFCURVE",
"379 131 OFFCURVE",
"379 176 CURVE SMOOTH",
"379 190 OFFCURVE",
"382 207 OFFCURVE",
"389 226 CURVE SMOOTH",
"805 1414 LINE",
"877 1414 LINE SMOOTH",
"1067 1414 OFFCURVE",
"1182 1278 OFFCURVE",
"1182 994 CURVE SMOOTH",
"1182 522 OFFCURVE",
"869 107 OFFCURVE",
"471 107 CURVE SMOOTH"
);
},
{
closed = 1;
nodes = (
"464 -426 OFFCURVE",
"532 -351 OFFCURVE",
"532 -269 CURVE SMOOTH",
"532 -199 OFFCURVE",
"477 -147 OFFCURVE",
"413 -147 CURVE SMOOTH",
"342 -147 OFFCURVE",
"278 -216 OFFCURVE",
"278 -298 CURVE SMOOTH",
"278 -374 OFFCURVE",
"321 -426 OFFCURVE",
"392 -426 CURVE SMOOTH"
);
}
);
};
components = (
{
name = D;
},
{
name = dotbelow;
transform = "{1, 0, 0, 1, 507, 0}";
}
);
layerId = "D3934E74-9B53-4E98-B19F-CD3DFEE08352";
width = 1462;
}
);
leftKerningGroup = I;
rightKerningGroup = D;
unicode = 1E0C;
},
{
glyphname = E;
layers = (
{
anchors = (
{
name = bottom;
position = "{403, 0}";
},
{
name = topcap;
position = "{931, 1643}";
}
);
background = {
anchors = (
{
name = bottom;
position = "{403, 0}";
},
{
name = topcap;
position = "{931, 1643}";
}
);
paths = (
{
closed = 1;
nodes = (
"902 0 LINE",
"1053 456 LINE",
"1005 456 LINE",
"942 330 OFFCURVE",
"868 204 OFFCURVE",
"778 78 CURVE",
"241 78 LINE",
"477 763 LINE",
"766 763 LINE",
"762 685 OFFCURVE",
"755 606 OFFCURVE",
"738 526 CURVE",
"786 526 LINE",
"974 1069 LINE",
"926 1069 LINE",
"887 994 OFFCURVE",
"841 919 OFFCURVE",
"786 843 CURVE",
"507 843 LINE",
"713 1445 LINE",
"1088 1445 LINE",
"1137 1346 OFFCURVE",
"1164 1229 OFFCURVE",
"1185 1088 CURVE",
"1231 1088 LINE",
"1217 1523 LINE",
"419 1523 LINE",
"402 1479 LINE",
"532 1441 LINE",
"60 83 LINE",
"-94 45 LINE",
"-110 0 LINE"
);
}
);
};
layerId = master01;
paths = (
{
closed = 1;
nodes = (
"902 0 LINE",
"1053 456 LINE",
"1005 456 LINE",
"942 330 OFFCURVE",
"868 204 OFFCURVE",
"778 78 CURVE",
"241 78 LINE",
"477 763 LINE",
"766 763 LINE",
"762 685 OFFCURVE",
"755 606 OFFCURVE",
"738 526 CURVE",
"786 526 LINE",
"974 1069 LINE",
"926 1069 LINE",
"887 994 OFFCURVE",
"841 919 OFFCURVE",
"786 843 CURVE",
"507 843 LINE",
"713 1445 LINE",
"1088 1445 LINE",
"1137 1346 OFFCURVE",
"1164 1229 OFFCURVE",
"1185 1088 CURVE",
"1231 1088 LINE",
"1217 1523 LINE",
"419 1523 LINE",
"402 1479 LINE",
"532 1441 LINE",
"60 83 LINE",
"-94 45 LINE",
"-110 0 LINE"
);
}
);
width = 1173;
},
{
anchors = (
{
name = bottom;
position = "{509, 0}";
},
{
name = topcap;
position = "{939, 1643}";
}
);
background = {
anchors = (
{
name = bottom;
position = "{509, 0}";
},
{
name = topcap;
position = "{939, 1643}";
}
);
paths = (
{
closed = 1;
nodes = (
"969 0 LINE",
"1124 463 LINE",
"1066 463 LINE",
"1002 344 OFFCURVE",
"927 233 OFFCURVE",
"823 104 CURVE",
"346 104 LINE",
"573 753 LINE",
"774 753 LINE",
"780 677 OFFCURVE",
"777 577 OFFCURVE",
"770 510 CURVE",
"840 510 LINE",
"1026 1043 LINE",
"957 1043 LINE",
"924 994 OFFCURVE",
"866 920 OFFCURVE",
"802 857 CURVE",
"609 857 LINE",
"806 1420 LINE",
"1110 1420 LINE",
"1163 1327 OFFCURVE",
"1205 1221 OFFCURVE",
"1240 1088 CURVE",
"1298 1088 LINE",
"1284 1523 LINE",
"407 1523 LINE",
"383 1455 LINE",
"522 1416 LINE",
"64 106 LINE",
"-86 68 LINE",
"-110 0 LINE"
);
}
);
};
guideLines = (
{
position = "{1084, 699}";
}
);
layerId = "D3934E74-9B53-4E98-B19F-CD3DFEE08352";
paths = (
{
closed = 1;
nodes = (
"969 0 LINE",
"1124 463 LINE",
"1066 463 LINE",
"1002 344 OFFCURVE",
"927 233 OFFCURVE",
"823 104 CURVE",
"346 104 LINE",
"573 753 LINE",
"774 753 LINE",
"780 677 OFFCURVE",
"777 577 OFFCURVE",
"770 510 CURVE",
"840 510 LINE",
"1026 1043 LINE",
"957 1043 LINE",
"924 994 OFFCURVE",
"866 920 OFFCURVE",
"802 857 CURVE",
"609 857 LINE",
"806 1420 LINE",
"1110 1420 LINE",
"1163 1327 OFFCURVE",
"1205 1221 OFFCURVE",
"1240 1088 CURVE",
"1298 1088 LINE",
"1284 1523 LINE",
"407 1523 LINE",
"383 1455 LINE",
"522 1416 LINE",
"64 106 LINE",
"-86 68 LINE",
"-110 0 LINE"
);
}
);
width = 1230;
}
);
leftKerningGroup = I;
leftMetricsKey = I;
rightKerningGroup = E;
unicode = 0045;
},
{
glyphname = Eacute;
layers = (
{
background = {
anchors = (
{
name = bottom;
position = "{403, 0}";
},
{
name = topcap;
position = "{931, 1643}";
}
);
paths = (
{
closed = 1;
nodes = (
"902 0 LINE",
"1053 456 LINE",
"1005 456 LINE",
"942 330 OFFCURVE",
"868 204 OFFCURVE",
"778 78 CURVE",
"241 78 LINE",
"477 763 LINE",
"766 763 LINE",
"762 685 OFFCURVE",
"755 606 OFFCURVE",
"738 526 CURVE",
"786 526 LINE",
"974 1069 LINE",
"926 1069 LINE",
"887 994 OFFCURVE",
"841 919 OFFCURVE",
"786 843 CURVE",
"507 843 LINE",
"713 1445 LINE",
"1088 1445 LINE",
"1137 1346 OFFCURVE",
"1164 1229 OFFCURVE",
"1185 1088 CURVE",
"1231 1088 LINE",
"1217 1523 LINE",
"419 1523 LINE",
"402 1479 LINE",
"532 1441 LINE",
"60 83 LINE",
"-94 45 LINE",
"-110 0 LINE"
);
},
{
closed = 1;
nodes = (
"1012 1703 LINE SMOOTH",
"1100 1732 OFFCURVE",
"1126 1769 OFFCURVE",
"1126 1815 CURVE SMOOTH",
"1126 1864 OFFCURVE",
"1090 1900 OFFCURVE",
"1054 1900 CURVE SMOOTH",
"1027 1900 OFFCURVE",
"1006 1891 OFFCURVE",
"981 1868 CURVE SMOOTH",
"743 1656 LINE",
"759 1614 LINE"
);
}
);
};
components = (
{
name = E;
},
{
name = acute.cap;
transform = "{0.84, 0, 0, 1, 725, 0}";
}
);
layerId = master01;
width = 1173;
},
{
background = {
anchors = (
{
name = bottom;
position = "{509, 0}";
},
{
name = topcap;
position = "{939, 1643}";
}
);
paths = (
{
closed = 1;
nodes = (
"969 0 LINE",
"1124 463 LINE",
"1066 463 LINE",
"1002 344 OFFCURVE",
"927 233 OFFCURVE",
"823 104 CURVE",
"346 104 LINE",
"573 753 LINE",
"774 753 LINE",
"780 677 OFFCURVE",
"777 577 OFFCURVE",
"770 510 CURVE",
"840 510 LINE",
"1026 1043 LINE",
"957 1043 LINE",
"924 994 OFFCURVE",
"866 920 OFFCURVE",
"802 857 CURVE",
"609 857 LINE",
"806 1420 LINE",
"1110 1420 LINE",
"1163 1327 OFFCURVE",
"1205 1221 OFFCURVE",
"1240 1088 CURVE",
"1298 1088 LINE",
"1284 1523 LINE",
"407 1523 LINE",
"383 1455 LINE",
"522 1416 LINE",
"64 106 LINE",
"-86 68 LINE",
"-110 0 LINE"
);
},
{
closed = 1;
nodes = (
"1123 1692 LINE SMOOTH",
"1169 1702 OFFCURVE",
"1199 1746 OFFCURVE",
"1199 1803 CURVE SMOOTH",
"1199 1871 OFFCURVE",
"1156 1924 OFFCURVE",
"1099 1924 CURVE SMOOTH",
"1065 1924 OFFCURVE",
"1031 1903 OFFCURVE",
"996 1870 CURVE SMOOTH",
"788 1674 LINE",
"822 1622 LINE"
);
}
);
};
components = (
{
name = E;
},
{
name = acute.cap;
transform = "{0.84, 0, 0, 1, 339, 0}";
}
);
layerId = "D3934E74-9B53-4E98-B19F-CD3DFEE08352";
width = 1230;
}
);
leftKerningGroup = I;
rightKerningGroup = E;
unicode = 00C9;
},
{
glyphname = Ebreve;
layers = (
{
background = {
anchors = (
{
name = bottom;
position = "{403, 0}";
},
{
name = topcap;
position = "{931, 1643}";
}
);
paths = (
{
closed = 1;
nodes = (
"902 0 LINE",
"1053 456 LINE",
"1005 456 LINE",
"942 330 OFFCURVE",
"868 204 OFFCURVE",
"778 78 CURVE",
"241 78 LINE",
"477 763 LINE",
"766 763 LINE",
"762 685 OFFCURVE",
"755 606 OFFCURVE",
"738 526 CURVE",
"786 526 LINE",
"974 1069 LINE",
"926 1069 LINE",
"887 994 OFFCURVE",
"841 919 OFFCURVE",
"786 843 CURVE",
"507 843 LINE",
"713 1445 LINE",
"1088 1445 LINE",
"1137 1346 OFFCURVE",
"1164 1229 OFFCURVE",
"1185 1088 CURVE",
"1231 1088 LINE",
"1217 1523 LINE",
"419 1523 LINE",
"402 1479 LINE",
"532 1441 LINE",
"60 83 LINE",
"-94 45 LINE",
"-110 0 LINE"
);
},
{
closed = 1;
nodes = (
"960 1625 OFFCURVE",
"1090 1655 OFFCURVE",
"1227 1900 CURVE",
"1161 1900 LINE",
"1092 1809 OFFCURVE",
"1018 1771 OFFCURVE",
"945 1771 CURVE SMOOTH",
"858 1771 OFFCURVE",
"816 1818 OFFCURVE",
"814 1900 CURVE",
"755 1900 LINE",
"743 1856 OFFCURVE",
"740 1821 OFFCURVE",
"740 1789 CURVE SMOOTH",
"740 1669 OFFCURVE",
"812 1625 OFFCURVE",
"888 1625 CURVE SMOOTH"
);
}
);
};
components = (
{
name = E;
},
{
alignment = -1;
name = breve.cap;
transform = "{0.84, 0, 0, 1, 722, 0}";
}
);
layerId = master01;
width = 1173;
},
{
background = {
anchors = (
{
name = bottom;
position = "{509, 0}";
},
{
name = topcap;
position = "{939, 1643}";
}
);
paths = (
{
closed = 1;
nodes = (
"969 0 LINE",
"1124 463 LINE",
"1066 463 LINE",
"1002 344 OFFCURVE",
"927 233 OFFCURVE",
"823 104 CURVE",
"346 104 LINE",
"573 753 LINE",
"774 753 LINE",
"780 677 OFFCURVE",
"777 577 OFFCURVE",
"770 510 CURVE",
"840 510 LINE",
"1026 1043 LINE",
"957 1043 LINE",
"924 994 OFFCURVE",
"866 920 OFFCURVE",
"802 857 CURVE",
"609 857 LINE",
"806 1420 LINE",
"1110 1420 LINE",
"1163 1327 OFFCURVE",
"1205 1221 OFFCURVE",
"1240 1088 CURVE",
"1298 1088 LINE",
"1284 1523 LINE",
"407 1523 LINE",
"383 1455 LINE",
"522 1416 LINE",
"64 106 LINE",
"-86 68 LINE",
"-110 0 LINE"
);
},
{
closed = 1;
nodes = (
"1087 1622 OFFCURVE",
"1221 1733 OFFCURVE",
"1328 1935 CURVE",
"1241 1935 LINE",
"1176 1841 OFFCURVE",
"1101 1795 OFFCURVE",
"1012 1795 CURVE SMOOTH",
"923 1795 OFFCURVE",
"874 1842 OFFCURVE",
"881 1935 CURVE",
"802 1935 LINE",
"788 1886 OFFCURVE",
"783 1857 OFFCURVE",
"783 1823 CURVE SMOOTH",
"783 1698 OFFCURVE",
"849 1622 OFFCURVE",
"956 1622 CURVE SMOOTH"
);
}
);
};
components = (
{
name = E;
},
{
name = breve.cap;
transform = "{0.84, 0, 0, 1, 285, 0}";
}
);
layerId = "D3934E74-9B53-4E98-B19F-CD3DFEE08352";
width = 1230;
}
);
leftKerningGroup = I;
leftMetricsKey = E;
rightKerningGroup = E;
rightMetricsKey = E;
unicode = 0114;
},
{
glyphname = Ecaron;
layers = (
{
background = {
anchors = (
{
name = bottom;
position = "{403, 0}";
},
{
name = topcap;
position = "{931, 1643}";
}
);
paths = (
{
closed = 1;
nodes = (
"902 0 LINE",
"1053 456 LINE",
"1005 456 LINE",
"942 330 OFFCURVE",
"868 204 OFFCURVE",
"778 78 CURVE",
"241 78 LINE",
"477 763 LINE",
"766 763 LINE",
"762 685 OFFCURVE",
"755 606 OFFCURVE",
"738 526 CURVE",
"786 526 LINE",
"974 1069 LINE",
"926 1069 LINE",
"887 994 OFFCURVE",
"841 919 OFFCURVE",
"786 843 CURVE",
"507 843 LINE",
"713 1445 LINE",
"1088 1445 LINE",
"1137 1346 OFFCURVE",
"1164 1229 OFFCURVE",
"1185 1088 CURVE",
"1231 1088 LINE",
"1217 1523 LINE",
"419 1523 LINE",
"402 1479 LINE",
"532 1441 LINE",
"60 83 LINE",
"-94 45 LINE",
"-110 0 LINE"
);
},
{
closed = 1;
nodes = (
"944 1622 OFFCURVE",
"967 1643 OFFCURVE",
"1008 1677 CURVE SMOOTH",
"1227 1867 LINE",
"1208 1900 LINE",
"934 1765 LINE",
"782 1900 LINE",
"740 1867 LINE",
"829 1677 LINE SMOOTH",
"847 1639 OFFCURVE",
"863 1622 OFFCURVE",
"902 1622 CURVE SMOOTH"
);
}
);
};
components = (
{
name = E;
},
{
alignment = -1;
name = caron.cap;
transform = "{0.84, 0, 0, 1, 722, 0}";
}
);
layerId = master01;
width = 1173;
},
{
background = {
anchors = (
{
name = bottom;
position = "{509, 0}";
},
{
name = topcap;
position = "{939, 1643}";
}
);
paths = (
{
closed = 1;
nodes = (
"969 0 LINE",
"1124 463 LINE",
"1066 463 LINE",
"1002 344 OFFCURVE",
"927 233 OFFCURVE",
"823 104 CURVE",
"346 104 LINE",
"573 753 LINE",
"774 753 LINE",
"780 677 OFFCURVE",
"777 577 OFFCURVE",
"770 510 CURVE",
"840 510 LINE",
"1026 1043 LINE",
"957 1043 LINE",
"924 994 OFFCURVE",
"866 920 OFFCURVE",
"802 857 CURVE",
"609 857 LINE",
"806 1420 LINE",
"1110 1420 LINE",
"1163 1327 OFFCURVE",
"1205 1221 OFFCURVE",
"1240 1088 CURVE",
"1298 1088 LINE",
"1284 1523 LINE",
"407 1523 LINE",
"383 1455 LINE",
"522 1416 LINE",
"64 106 LINE",
"-86 68 LINE",
"-110 0 LINE"
);
},
{
closed = 1;
nodes = (
"983 1622 OFFCURVE",
"1015 1639 OFFCURVE",
"1074 1692 CURVE SMOOTH",
"1301 1900 LINE",
"1280 1935 LINE",
"983 1810 LINE",
"815 1935 LINE",
"768 1898 LINE",
"859 1692 LINE SMOOTH",
"881 1641 OFFCURVE",
"904 1622 OFFCURVE",
"946 1622 CURVE SMOOTH"
);
}
);
};
components = (
{
name = E;
},
{
name = caron.cap;
transform = "{0.84, 0, 0, 1, 266, 0}";
}
);
layerId = "D3934E74-9B53-4E98-B19F-CD3DFEE08352";
width = 1230;
}
);
leftKerningGroup = I;
leftMetricsKey = E;
rightKerningGroup = E;
rightMetricsKey = E;
unicode = 011A;
},
{
glyphname = Ecircumflex;
layers = (
{
background = {
anchors = (
{
name = bottom;
position = "{403, 0}";
},
{
name = topcap;
position = "{931, 1643}";
}
);
paths = (
{
closed = 1;
nodes = (
"902 0 LINE",
"1053 456 LINE",
"1005 456 LINE",
"942 330 OFFCURVE",
"868 204 OFFCURVE",
"778 78 CURVE",
"241 78 LINE",
"477 763 LINE",
"766 763 LINE",
"762 685 OFFCURVE",
"755 606 OFFCURVE",
"738 526 CURVE",
"786 526 LINE",
"974 1069 LINE",
"926 1069 LINE",
"887 994 OFFCURVE",
"841 919 OFFCURVE",
"786 843 CURVE",
"507 843 LINE",
"713 1445 LINE",
"1088 1445 LINE",
"1137 1346 OFFCURVE",
"1164 1229 OFFCURVE",
"1185 1088 CURVE",
"1231 1088 LINE",
"1217 1523 LINE",
"419 1523 LINE",
"402 1479 LINE",
"532 1441 LINE",
"60 83 LINE",
"-94 45 LINE",
"-110 0 LINE"
);
},
{
closed = 1;
nodes = (
"933 1757 LINE",
"1084 1622 LINE",
"1127 1656 LINE",
"1038 1847 LINE SMOOTH",
"1019 1885 OFFCURVE",
"1003 1900 OFFCURVE",
"965 1900 CURVE SMOOTH",
"924 1900 OFFCURVE",
"898 1880 OFFCURVE",
"858 1847 CURVE SMOOTH",
"640 1656 LINE",
"659 1622 LINE"
);
}
);
};
components = (
{
name = E;
},
{
alignment = -1;
name = circumflex.cap;
transform = "{0.84, 0, 0, 1, 622, 0}";
}
);
layerId = master01;
width = 1173;
},
{
background = {
anchors = (
{
name = bottom;
position = "{509, 0}";
},
{
name = topcap;
position = "{939, 1643}";
}
);
paths = (
{
closed = 1;
nodes = (
"969 0 LINE",
"1124 463 LINE",
"1066 463 LINE",
"1002 344 OFFCURVE",
"927 233 OFFCURVE",
"823 104 CURVE",
"346 104 LINE",
"573 753 LINE",
"774 753 LINE",
"780 677 OFFCURVE",
"777 577 OFFCURVE",
"770 510 CURVE",
"840 510 LINE",
"1026 1043 LINE",
"957 1043 LINE",
"924 994 OFFCURVE",
"866 920 OFFCURVE",
"802 857 CURVE",
"609 857 LINE",
"806 1420 LINE",
"1110 1420 LINE",
"1163 1327 OFFCURVE",
"1205 1221 OFFCURVE",
"1240 1088 CURVE",
"1298 1088 LINE",
"1284 1523 LINE",
"407 1523 LINE",
"383 1455 LINE",
"522 1416 LINE",
"64 106 LINE",
"-86 68 LINE",
"-110 0 LINE"
);
},
{
closed = 1;
nodes = (
"976 1747 LINE",
"1145 1622 LINE",
"1192 1659 LINE",
"1101 1865 LINE SMOOTH",
"1078 1915 OFFCURVE",
"1056 1935 OFFCURVE",
"1014 1935 CURVE SMOOTH",
"976 1935 OFFCURVE",
"944 1918 OFFCURVE",
"886 1865 CURVE SMOOTH",
"659 1657 LINE",
"680 1622 LINE"
);
}
);
};
components = (
{
name = E;
},
{
name = circumflex.cap;
transform = "{0.84, 0, 0, 1, 215, 0}";
}
);
layerId = "D3934E74-9B53-4E98-B19F-CD3DFEE08352";
width = 1230;
}
);
leftKerningGroup = I;
leftMetricsKey = E;
rightKerningGroup = E;
rightMetricsKey = E;
unicode = 00CA;
},
{
glyphname = Edieresis;
layers = (
{
background = {
anchors = (
{
name = bottom;
position = "{403, 0}";
},
{
name = topcap;
position = "{931, 1643}";
}
);
paths = (
{
closed = 1;
nodes = (
"902 0 LINE",
"1053 456 LINE",
"1005 456 LINE",
"942 330 OFFCURVE",
"868 204 OFFCURVE",
"778 78 CURVE",
"241 78 LINE",
"477 763 LINE",
"766 763 LINE",
"762 685 OFFCURVE",
"755 606 OFFCURVE",
"738 526 CURVE",
"786 526 LINE",
"974 1069 LINE",
"926 1069 LINE",
"887 994 OFFCURVE",
"841 919 OFFCURVE",
"786 843 CURVE",
"507 843 LINE",
"713 1445 LINE",
"1088 1445 LINE",
"1137 1346 OFFCURVE",
"1164 1229 OFFCURVE",
"1185 1088 CURVE",
"1231 1088 LINE",
"1217 1523 LINE",
"419 1523 LINE",
"402 1479 LINE",
"532 1441 LINE",
"60 83 LINE",
"-94 45 LINE",
"-110 0 LINE"
);
},
{
closed = 1;
nodes = (
"1095 1680 OFFCURVE",
"1150 1740 OFFCURVE",
"1150 1802 CURVE SMOOTH",
"1150 1859 OFFCURVE",
"1105 1900 OFFCURVE",
"1056 1900 CURVE SMOOTH",
"999 1900 OFFCURVE",
"947 1845 OFFCURVE",
"947 1781 CURVE SMOOTH",
"947 1719 OFFCURVE",
"983 1680 OFFCURVE",
"1038 1680 CURVE SMOOTH"
);
},
{
closed = 1;
nodes = (
"805 1680 OFFCURVE",
"859 1740 OFFCURVE",
"859 1802 CURVE SMOOTH",
"859 1859 OFFCURVE",
"815 1900 OFFCURVE",
"765 1900 CURVE SMOOTH",
"708 1900 OFFCURVE",
"658 1845 OFFCURVE",
"658 1781 CURVE SMOOTH",
"658 1719 OFFCURVE",
"692 1680 OFFCURVE",
"748 1680 CURVE SMOOTH"
);
}
);
};
components = (
{
name = E;
},
{
alignment = -1;
name = dieresis.cap;
transform = "{0.84, 0, 0, 1, 640, 0}";
}
);
layerId = master01;
width = 1173;
},
{
background = {
anchors = (
{
name = bottom;
position = "{509, 0}";
},
{
name = topcap;
position = "{939, 1643}";
}
);
paths = (
{
closed = 1;
nodes = (
"969 0 LINE",
"1124 463 LINE",
"1066 463 LINE",
"1002 344 OFFCURVE",
"927 233 OFFCURVE",
"823 104 CURVE",
"346 104 LINE",
"573 753 LINE",
"774 753 LINE",
"780 677 OFFCURVE",
"777 577 OFFCURVE",
"770 510 CURVE",
"840 510 LINE",
"1026 1043 LINE",
"957 1043 LINE",
"924 994 OFFCURVE",
"866 920 OFFCURVE",
"802 857 CURVE",
"609 857 LINE",
"806 1420 LINE",
"1110 1420 LINE",
"1163 1327 OFFCURVE",
"1205 1221 OFFCURVE",
"1240 1088 CURVE",
"1298 1088 LINE",
"1284 1523 LINE",
"407 1523 LINE",
"383 1455 LINE",
"522 1416 LINE",
"64 106 LINE",
"-86 68 LINE",
"-110 0 LINE"
);
},
{
closed = 1;
nodes = (
"1209 1680 OFFCURVE",
"1270 1749 OFFCURVE",
"1270 1822 CURVE SMOOTH",
"1270 1886 OFFCURVE",
"1220 1933 OFFCURVE",
"1163 1933 CURVE SMOOTH",
"1098 1933 OFFCURVE",
"1039 1870 OFFCURVE",
"1039 1795 CURVE SMOOTH",
"1039 1727 OFFCURVE",
"1079 1680 OFFCURVE",
"1144 1680 CURVE SMOOTH"
);
},
{
closed = 1;
nodes = (
"877 1680 OFFCURVE",
"939 1749 OFFCURVE",
"939 1822 CURVE SMOOTH",
"939 1886 OFFCURVE",
"888 1933 OFFCURVE",
"831 1933 CURVE SMOOTH",
"767 1933 OFFCURVE",
"708 1870 OFFCURVE",
"708 1795 CURVE SMOOTH",
"708 1727 OFFCURVE",
"748 1680 OFFCURVE",
"812 1680 CURVE SMOOTH"
);
}
);
};
components = (
{
name = E;
},
{
name = dieresis.cap;
transform = "{0.84, 0, 0, 1, 207, 0}";
}
);
layerId = "D3934E74-9B53-4E98-B19F-CD3DFEE08352";
width = 1230;
}
);
leftKerningGroup = I;
leftMetricsKey = E;
rightKerningGroup = E;
rightMetricsKey = E;
unicode = 00CB;
},
{
glyphname = Edotaccent;
layers = (
{
background = {
anchors = (
{
name = bottom;
position = "{403, 0}";
},
{
name = topcap;
position = "{931, 1643}";
}
);
paths = (
{
closed = 1;
nodes = (
"902 0 LINE",
"1053 456 LINE",
"1005 456 LINE",
"942 330 OFFCURVE",
"868 204 OFFCURVE",
"778 78 CURVE",
"241 78 LINE",
"477 763 LINE",
"766 763 LINE",
"762 685 OFFCURVE",
"755 606 OFFCURVE",
"738 526 CURVE",
"786 526 LINE",
"974 1069 LINE",
"926 1069 LINE",
"887 994 OFFCURVE",
"841 919 OFFCURVE",
"786 843 CURVE",
"507 843 LINE",
"713 1445 LINE",
"1088 1445 LINE",
"1137 1346 OFFCURVE",
"1164 1229 OFFCURVE",
"1185 1088 CURVE",
"1231 1088 LINE",
"1217 1523 LINE",
"419 1523 LINE",
"402 1479 LINE",
"532 1441 LINE",
"60 83 LINE",
"-94 45 LINE",
"-110 0 LINE"
);
},
{
closed = 1;
nodes = (
"981 1654 OFFCURVE",
"1042 1719 OFFCURVE",
"1042 1792 CURVE SMOOTH",
"1042 1852 OFFCURVE",
"992 1900 OFFCURVE",
"937 1900 CURVE SMOOTH",
"873 1900 OFFCURVE",
"816 1839 OFFCURVE",
"816 1765 CURVE SMOOTH",
"816 1698 OFFCURVE",
"855 1654 OFFCURVE",
"918 1654 CURVE SMOOTH"
);
}
);
};
components = (
{
name = E;
},
{
alignment = -1;
name = dotaccent.cap;
transform = "{0.84, 0, 0, 1, 798, 0}";
}
);
layerId = master01;
width = 1173;
},
{
background = {
anchors = (
{
name = bottom;
position = "{509, 0}";
},
{
name = topcap;
position = "{939, 1643}";
}
);
paths = (
{
closed = 1;
nodes = (
"969 0 LINE",
"1124 463 LINE",
"1066 463 LINE",
"1002 344 OFFCURVE",
"927 233 OFFCURVE",
"823 104 CURVE",
"346 104 LINE",
"573 753 LINE",
"774 753 LINE",
"780 677 OFFCURVE",
"777 577 OFFCURVE",
"770 510 CURVE",
"840 510 LINE",
"1026 1043 LINE",
"957 1043 LINE",
"924 994 OFFCURVE",
"866 920 OFFCURVE",
"802 857 CURVE",
"609 857 LINE",
"806 1420 LINE",
"1110 1420 LINE",
"1163 1327 OFFCURVE",
"1205 1221 OFFCURVE",
"1240 1088 CURVE",
"1298 1088 LINE",
"1284 1523 LINE",
"407 1523 LINE",
"383 1455 LINE",
"522 1416 LINE",
"64 106 LINE",
"-86 68 LINE",
"-110 0 LINE"
);
},
{
closed = 1;
nodes = (
"1057 1654 OFFCURVE",
"1125 1728 OFFCURVE",
"1125 1810 CURVE SMOOTH",
"1125 1880 OFFCURVE",
"1070 1932 OFFCURVE",
"1006 1932 CURVE SMOOTH",
"935 1932 OFFCURVE",
"871 1863 OFFCURVE",
"871 1781 CURVE SMOOTH",
"871 1705 OFFCURVE",
"914 1654 OFFCURVE",
"985 1654 CURVE SMOOTH"
);
}
);
};
components = (
{
name = E;
},
{
name = dotaccent.cap;
transform = "{0.84, 0, 0, 1, 391, 0}";
}
);
layerId = "D3934E74-9B53-4E98-B19F-CD3DFEE08352";
width = 1230;
}
);
leftKerningGroup = I;
leftMetricsKey = E;
rightKerningGroup = E;
rightMetricsKey = E;
unicode = 0116;
},
{
glyphname = Edotbelow;
layers = (
{
background = {
anchors = (
{
name = bottom;
position = "{403, 0}";
},
{
name = topcap;
position = "{931, 1643}";
}
);
paths = (
{
closed = 1;
nodes = (
"902 0 LINE",
"1053 456 LINE",
"1005 456 LINE",
"942 330 OFFCURVE",
"868 204 OFFCURVE",
"778 78 CURVE",
"241 78 LINE",
"477 763 LINE",
"766 763 LINE",
"762 685 OFFCURVE",
"755 606 OFFCURVE",
"738 526 CURVE",
"786 526 LINE",
"974 1069 LINE",
"926 1069 LINE",
"887 994 OFFCURVE",
"841 919 OFFCURVE",
"786 843 CURVE",
"507 843 LINE",
"713 1445 LINE",
"1088 1445 LINE",
"1137 1346 OFFCURVE",
"1164 1229 OFFCURVE",
"1185 1088 CURVE",
"1231 1088 LINE",
"1217 1523 LINE",
"419 1523 LINE",
"402 1479 LINE",
"532 1441 LINE",
"60 83 LINE",
"-94 45 LINE",
"-110 0 LINE"
);
},
{
closed = 1;
nodes = (
"462 -507 OFFCURVE",
"523 -440 OFFCURVE",
"523 -367 CURVE SMOOTH",
"523 -307 OFFCURVE",
"473 -260 OFFCURVE",
"418 -260 CURVE SMOOTH",
"354 -260 OFFCURVE",
"297 -320 OFFCURVE",
"297 -394 CURVE SMOOTH",
"297 -461 OFFCURVE",
"336 -507 OFFCURVE",
"399 -507 CURVE SMOOTH"
);
}
);
};
components = (
{
name = E;
},
{
alignment = -1;
name = dotbelow;
transform = "{1, 0, 0, 1, 279, 0}";
}
);
layerId = master01;
width = 1173;
},
{
background = {
anchors = (
{
name = bottom;
position = "{509, 0}";
},
{
name = topcap;
position = "{939, 1643}";
}
);
paths = (
{
closed = 1;
nodes = (
"969 0 LINE",
"1124 463 LINE",
"1066 463 LINE",
"1002 344 OFFCURVE",
"927 233 OFFCURVE",
"823 104 CURVE",
"346 104 LINE",
"573 753 LINE",
"774 753 LINE",
"780 677 OFFCURVE",
"777 577 OFFCURVE",
"770 510 CURVE",
"840 510 LINE",
"1026 1043 LINE",
"957 1043 LINE",
"924 994 OFFCURVE",
"866 920 OFFCURVE",
"802 857 CURVE",
"609 857 LINE",
"806 1420 LINE",
"1110 1420 LINE",
"1163 1327 OFFCURVE",
"1205 1221 OFFCURVE",
"1240 1088 CURVE",
"1298 1088 LINE",
"1284 1523 LINE",
"407 1523 LINE",
"383 1455 LINE",
"522 1416 LINE",
"64 106 LINE",
"-86 68 LINE",
"-110 0 LINE"
);
},
{
closed = 1;
nodes = (
"472 -426 OFFCURVE",
"540 -351 OFFCURVE",
"540 -269 CURVE SMOOTH",
"540 -199 OFFCURVE",
"485 -147 OFFCURVE",
"421 -147 CURVE SMOOTH",
"350 -147 OFFCURVE",
"286 -216 OFFCURVE",
"286 -298 CURVE SMOOTH",
"286 -374 OFFCURVE",
"329 -426 OFFCURVE",
"400 -426 CURVE SMOOTH"
);
}
);
};
components = (
{
name = E;
},
{
name = dotbelow;
transform = "{1, 0, 0, 1, 515, 0}";
}
);
layerId = "D3934E74-9B53-4E98-B19F-CD3DFEE08352";
width = 1230;
}
);
leftKerningGroup = I;
leftMetricsKey = E;
rightKerningGroup = E;
rightMetricsKey = E;
unicode = 1EB8;
},
{
glyphname = Egrave;
layers = (
{
background = {
anchors = (
{
name = bottom;
position = "{403, 0}";
},
{
name = topcap;
position = "{931, 1643}";
}
);
paths = (
{
closed = 1;
nodes = (
"902 0 LINE",
"1053 456 LINE",
"1005 456 LINE",
"942 330 OFFCURVE",
"868 204 OFFCURVE",
"778 78 CURVE",
"241 78 LINE",
"477 763 LINE",
"766 763 LINE",
"762 685 OFFCURVE",
"755 606 OFFCURVE",
"738 526 CURVE",
"786 526 LINE",
"974 1069 LINE",
"926 1069 LINE",
"887 994 OFFCURVE",
"841 919 OFFCURVE",
"786 843 CURVE",
"507 843 LINE",
"713 1445 LINE",
"1088 1445 LINE",
"1137 1346 OFFCURVE",
"1164 1229 OFFCURVE",
"1185 1088 CURVE",
"1231 1088 LINE",
"1217 1523 LINE",
"419 1523 LINE",
"402 1479 LINE",
"532 1441 LINE",
"60 83 LINE",
"-94 45 LINE",
"-110 0 LINE"
);
},
{
closed = 1;
nodes = (
"1079 1656 LINE",
"905 1837 LINE SMOOTH",
"867 1876 OFFCURVE",
"840 1900 OFFCURVE",
"802 1900 CURVE SMOOTH",
"751 1900 OFFCURVE",
"719 1862 OFFCURVE",
"719 1804 CURVE SMOOTH",
"719 1757 OFFCURVE",
"739 1721 OFFCURVE",
"779 1708 CURVE SMOOTH",
"1046 1614 LINE"
);
}
);
};
components = (
{
name = E;
},
{
alignment = -1;
name = grave.cap;
transform = "{0.84, 0, 0, 1, 701, 0}";
}
);
layerId = master01;
width = 1173;
},
{
background = {
anchors = (
{
name = bottom;
position = "{509, 0}";
},
{
name = topcap;
position = "{939, 1643}";
}
);
paths = (
{
closed = 1;
nodes = (
"969 0 LINE",
"1124 463 LINE",
"1066 463 LINE",
"1002 344 OFFCURVE",
"927 233 OFFCURVE",
"823 104 CURVE",
"346 104 LINE",
"573 753 LINE",
"774 753 LINE",
"780 677 OFFCURVE",
"777 577 OFFCURVE",
"770 510 CURVE",
"840 510 LINE",
"1026 1043 LINE",
"957 1043 LINE",
"924 994 OFFCURVE",
"866 920 OFFCURVE",
"802 857 CURVE",
"609 857 LINE",
"806 1420 LINE",
"1110 1420 LINE",
"1163 1327 OFFCURVE",
"1205 1221 OFFCURVE",
"1240 1088 CURVE",
"1298 1088 LINE",
"1284 1523 LINE",
"407 1523 LINE",
"383 1455 LINE",
"522 1416 LINE",
"64 106 LINE",
"-86 68 LINE",
"-110 0 LINE"
);
},
{
closed = 1;
nodes = (
"1176 1674 LINE",
"988 1870 LINE SMOOTH",
"954 1906 OFFCURVE",
"919 1924 OFFCURVE",
"886 1924 CURVE SMOOTH",
"828 1924 OFFCURVE",
"785 1871 OFFCURVE",
"785 1803 CURVE SMOOTH",
"785 1746 OFFCURVE",
"815 1703 OFFCURVE",
"861 1692 CURVE SMOOTH",
"1143 1622 LINE"
);
}
);
};
components = (
{
name = E;
},
{
name = grave.cap;
transform = "{0.84, 0, 0, 1, 281, 0}";
}
);
layerId = "D3934E74-9B53-4E98-B19F-CD3DFEE08352";
width = 1230;
}
);
leftKerningGroup = I;
leftMetricsKey = E;
rightKerningGroup = E;
rightMetricsKey = E;
unicode = 00C8;
},
{
glyphname = Emacron;
layers = (
{
background = {
anchors = (
{
name = bottom;
position = "{403, 0}";
},
{
name = topcap;
position = "{931, 1643}";
}
);
paths = (
{
closed = 1;
nodes = (
"902 0 LINE",
"1053 456 LINE",
"1005 456 LINE",
"942 330 OFFCURVE",
"868 204 OFFCURVE",
"778 78 CURVE",
"241 78 LINE",
"477 763 LINE",
"766 763 LINE",
"762 685 OFFCURVE",
"755 606 OFFCURVE",
"738 526 CURVE",
"786 526 LINE",
"974 1069 LINE",
"926 1069 LINE",
"887 994 OFFCURVE",
"841 919 OFFCURVE",
"786 843 CURVE",
"507 843 LINE",
"713 1445 LINE",
"1088 1445 LINE",
"1137 1346 OFFCURVE",
"1164 1229 OFFCURVE",
"1185 1088 CURVE",
"1231 1088 LINE",
"1217 1523 LINE",
"419 1523 LINE",
"402 1479 LINE",
"532 1441 LINE",
"60 83 LINE",
"-94 45 LINE",
"-110 0 LINE"
);
},
{
closed = 1;
nodes = (
"1137 1696 LINE",
"1186 1837 LINE",
"708 1837 LINE",
"663 1696 LINE"
);
}
);
};
components = (
{
name = E;
},
{
alignment = -1;
name = macron.cap;
transform = "{0.84, 0, 0, 1, 645, 0}";
}
);
layerId = master01;
width = 1173;
},
{
background = {
anchors = (
{
name = bottom;
position = "{509, 0}";
},
{
name = topcap;
position = "{939, 1643}";
}
);
paths = (
{
closed = 1;
nodes = (
"969 0 LINE",
"1124 463 LINE",
"1066 463 LINE",
"1002 344 OFFCURVE",
"927 233 OFFCURVE",
"823 104 CURVE",
"346 104 LINE",
"573 753 LINE",
"774 753 LINE",
"780 677 OFFCURVE",
"777 577 OFFCURVE",
"770 510 CURVE",
"840 510 LINE",
"1026 1043 LINE",
"957 1043 LINE",
"924 994 OFFCURVE",
"866 920 OFFCURVE",
"802 857 CURVE",
"609 857 LINE",
"806 1420 LINE",
"1110 1420 LINE",
"1163 1327 OFFCURVE",
"1205 1221 OFFCURVE",
"1240 1088 CURVE",
"1298 1088 LINE",
"1284 1523 LINE",
"407 1523 LINE",
"383 1455 LINE",
"522 1416 LINE",
"64 106 LINE",
"-86 68 LINE",
"-110 0 LINE"
);
},
{
closed = 1;
nodes = (
"1221 1674 LINE",
"1287 1865 LINE",
"733 1865 LINE",
"665 1674 LINE"
);
}
);
};
components = (
{
name = E;
},
{
name = macron.cap;
transform = "{0.84, 0, 0, 1, 216, 0}";
}
);
layerId = "D3934E74-9B53-4E98-B19F-CD3DFEE08352";
width = 1230;
}
);
leftKerningGroup = I;
leftMetricsKey = E;
rightKerningGroup = E;
rightMetricsKey = E;
unicode = 0112;
},
{
glyphname = Eogonek;
layers = (
{
background = {
anchors = (
{
name = bottom;
position = "{403, 0}";
},
{
name = topcap;
position = "{931, 1643}";
}
);
paths = (
{
closed = 1;
nodes = (
"902 0 LINE",
"1053 456 LINE",
"1005 456 LINE",
"942 330 OFFCURVE",
"868 204 OFFCURVE",
"778 78 CURVE",
"241 78 LINE",
"477 763 LINE",
"766 763 LINE",
"762 685 OFFCURVE",
"755 606 OFFCURVE",
"738 526 CURVE",
"786 526 LINE",
"974 1069 LINE",
"926 1069 LINE",
"887 994 OFFCURVE",
"841 919 OFFCURVE",
"786 843 CURVE",
"507 843 LINE",
"713 1445 LINE",
"1088 1445 LINE",
"1137 1346 OFFCURVE",
"1164 1229 OFFCURVE",
"1185 1088 CURVE",
"1231 1088 LINE",
"1217 1523 LINE",
"419 1523 LINE",
"402 1479 LINE",
"532 1441 LINE",
"60 83 LINE",
"-94 45 LINE",
"-110 0 LINE"
);
},
{
closed = 1;
nodes = (
"704 -507 OFFCURVE",
"782 -466 OFFCURVE",
"857 -392 CURVE {name = hr00;}",
"848 -357 LINE",
"797 -388 OFFCURVE",
"770 -398 OFFCURVE",
"740 -398 CURVE SMOOTH",
"698 -398 OFFCURVE",
"679 -380 OFFCURVE",
"679 -341 CURVE SMOOTH",
"679 -258 OFFCURVE",
"768 -127 OFFCURVE",
"903 0 CURVE",
"840 0 LINE",
"652 -117 OFFCURVE",
"519 -281 OFFCURVE",
"519 -404 CURVE SMOOTH",
"519 -471 OFFCURVE",
"558 -507 OFFCURVE",
"630 -507 CURVE SMOOTH"
);
}
);
};
components = (
{
name = E;
},
{
alignment = -1;
name = ogonek;
transform = "{0.84, 0, 0, 1, 501, 0}";
}
);
layerId = master01;
width = 1291;
},
{
background = {
anchors = (
{
name = bottom;
position = "{509, 0}";
},
{
name = topcap;
position = "{939, 1643}";
}
);
paths = (
{
closed = 1;
nodes = (
"969 0 LINE",
"1124 463 LINE",
"1066 463 LINE",
"1002 344 OFFCURVE",
"927 233 OFFCURVE",
"823 104 CURVE",
"346 104 LINE",
"573 753 LINE",
"774 753 LINE",
"780 677 OFFCURVE",
"777 577 OFFCURVE",
"770 510 CURVE",
"840 510 LINE",
"1026 1043 LINE",
"957 1043 LINE",
"924 994 OFFCURVE",
"866 920 OFFCURVE",
"802 857 CURVE",
"609 857 LINE",
"806 1420 LINE",
"1110 1420 LINE",
"1163 1327 OFFCURVE",
"1205 1221 OFFCURVE",
"1240 1088 CURVE",
"1298 1088 LINE",
"1284 1523 LINE",
"407 1523 LINE",
"383 1455 LINE",
"522 1416 LINE",
"64 106 LINE",
"-86 68 LINE",
"-110 0 LINE"
);
},
{
closed = 1;
nodes = (
"754 -507 OFFCURVE",
"847 -459 OFFCURVE",
"938 -368 CURVE {name = hr00;}",
"929 -321 LINE",
"875 -354 OFFCURVE",
"843 -365 OFFCURVE",
"812 -365 CURVE SMOOTH",
"761 -365 OFFCURVE",
"736 -334 OFFCURVE",
"736 -289 CURVE SMOOTH",
"736 -208 OFFCURVE",
"818 -97 OFFCURVE",
"969 0 CURVE",
"873 0 LINE",
"625 -117 OFFCURVE",
"532 -258 OFFCURVE",
"532 -364 CURVE SMOOTH",
"532 -444 OFFCURVE",
"586 -507 OFFCURVE",
"676 -507 CURVE SMOOTH"
);
}
);
};
components = (
{
name = E;
},
{
alignment = -1;
name = ogonek;
transform = "{0.84, 0, 0, 1, 818, 0}";
}
);
layerId = "D3934E74-9B53-4E98-B19F-CD3DFEE08352";
width = 1352;
}
);
leftKerningGroup = I;
leftMetricsKey = E;
rightKerningGroup = E;
rightMetricsKey = E;
unicode = 0118;
},
{
glyphname = Etilde;
layers = (
{
background = {
anchors = (
{
name = bottom;
position = "{403, 0}";
},
{
name = topcap;
position = "{931, 1643}";
}
);
paths = (
{
closed = 1;
nodes = (
"902 0 LINE",
"1053 456 LINE",
"1005 456 LINE",
"942 330 OFFCURVE",
"868 204 OFFCURVE",
"778 78 CURVE",
"241 78 LINE",
"477 763 LINE",
"766 763 LINE",
"762 685 OFFCURVE",
"755 606 OFFCURVE",
"738 526 CURVE",
"786 526 LINE",
"974 1069 LINE",
"926 1069 LINE",
"887 994 OFFCURVE",
"841 919 OFFCURVE",
"786 843 CURVE",
"507 843 LINE",
"713 1445 LINE",
"1088 1445 LINE",
"1137 1346 OFFCURVE",
"1164 1229 OFFCURVE",
"1185 1088 CURVE",
"1231 1088 LINE",
"1217 1523 LINE",
"419 1523 LINE",
"402 1479 LINE",
"532 1441 LINE",
"60 83 LINE",
"-94 45 LINE",
"-110 0 LINE"
);
},
{
closed = 1;
nodes = (
"1089 1654 OFFCURVE",
"1174 1750 OFFCURVE",
"1211 1886 CURVE",
"1172 1886 LINE",
"1150 1837 OFFCURVE",
"1116 1810 OFFCURVE",
"1069 1810 CURVE SMOOTH",
"995 1810 OFFCURVE",
"916 1880 OFFCURVE",
"840 1880 CURVE SMOOTH",
"759 1880 OFFCURVE",
"674 1787 OFFCURVE",
"643 1655 CURVE",
"677 1655 LINE",
"695 1703 OFFCURVE",
"733 1730 OFFCURVE",
"780 1730 CURVE SMOOTH",
"859 1730 OFFCURVE",
"929 1654 OFFCURVE",
"1008 1654 CURVE SMOOTH"
);
}
);
};
components = (
{
name = E;
},
{
name = tilde.cap;
transform = "{0.84, 0, 0, 1, 625, 0}";
}
);
layerId = master01;
width = 1173;
},
{
background = {
anchors = (
{
name = bottom;
position = "{509, 0}";
},
{
name = topcap;
position = "{939, 1643}";
}
);
paths = (
{
closed = 1;
nodes = (
"969 0 LINE",
"1124 463 LINE",
"1066 463 LINE",
"1002 344 OFFCURVE",
"927 233 OFFCURVE",
"823 104 CURVE",
"346 104 LINE",
"573 753 LINE",
"774 753 LINE",
"780 677 OFFCURVE",
"777 577 OFFCURVE",
"770 510 CURVE",
"840 510 LINE",
"1026 1043 LINE",
"957 1043 LINE",
"924 994 OFFCURVE",
"866 920 OFFCURVE",
"802 857 CURVE",
"609 857 LINE",
"806 1420 LINE",
"1110 1420 LINE",
"1163 1327 OFFCURVE",
"1205 1221 OFFCURVE",
"1240 1088 CURVE",
"1298 1088 LINE",
"1284 1523 LINE",
"407 1523 LINE",
"383 1455 LINE",
"522 1416 LINE",
"64 106 LINE",
"-86 68 LINE",
"-110 0 LINE"
);
},
{
closed = 1;
nodes = (
"1201 1631 OFFCURVE",
"1303 1748 OFFCURVE",
"1349 1910 CURVE",
"1282 1910 LINE",
"1256 1852 OFFCURVE",
"1215 1821 OFFCURVE",
"1160 1821 CURVE SMOOTH",
"1070 1821 OFFCURVE",
"1014 1903 OFFCURVE",
"918 1903 CURVE SMOOTH",
"805 1903 OFFCURVE",
"704 1792 OFFCURVE",
"666 1633 CURVE",
"727 1633 LINE",
"749 1689 OFFCURVE",
"794 1723 OFFCURVE",
"851 1723 CURVE SMOOTH",
"945 1723 OFFCURVE",
"990 1631 OFFCURVE",
"1090 1631 CURVE SMOOTH"
);
}
);
};
components = (
{
name = E;
},
{
name = tilde.cap;
transform = "{0.84, 0, 0, 1, 228, 0}";
}
);
layerId = "D3934E74-9B53-4E98-B19F-CD3DFEE08352";
width = 1230;
}
);
leftKerningGroup = I;
leftMetricsKey = E;
rightKerningGroup = E;
rightMetricsKey = E;
unicode = 1EBC;
},
{
glyphname = F;
layers = (
{
background = {
paths = (
{
closed = 1;
nodes = (
"419 0 LINE",
"435 45 LINE",
"241 78 LINE",
"468 740 LINE",
"758 740 LINE",
"754 661 OFFCURVE",
"748 582 OFFCURVE",
"729 503 CURVE",
"778 503 LINE",
"965 1044 LINE",
"917 1044 LINE",
"879 970 OFFCURVE",
"832 895 OFFCURVE",
"778 820 CURVE",
"498 820 LINE",
"713 1445 LINE",
"1102 1445 LINE",
"1141 1346 OFFCURVE",
"1168 1229 OFFCURVE",
"1185 1088 CURVE",
"1231 1088 LINE",
"1231 1523 LINE",
"419 1523 LINE",
"402 1479 LINE",
"532 1441 LINE",
"60 83 LINE",
"-94 45 LINE",
"-110 0 LINE"
);
}
);
};
layerId = master01;
paths = (
{
closed = 1;
nodes = (
"419 0 LINE",
"435 45 LINE",
"241 78 LINE",
"468 740 LINE",
"758 740 LINE",
"754 661 OFFCURVE",
"748 582 OFFCURVE",
"729 503 CURVE",
"778 503 LINE",
"965 1044 LINE",
"917 1044 LINE",
"879 970 OFFCURVE",
"832 895 OFFCURVE",
"778 820 CURVE",
"498 820 LINE",
"713 1445 LINE",
"1102 1445 LINE",
"1141 1346 OFFCURVE",
"1168 1229 OFFCURVE",
"1185 1088 CURVE",
"1231 1088 LINE",
"1231 1523 LINE",
"419 1523 LINE",
"402 1479 LINE",
"532 1441 LINE",
"60 83 LINE",
"-94 45 LINE",
"-110 0 LINE"
);
}
);
width = 1038;
},
{
background = {
paths = (
{
closed = 1;
nodes = (
"502 0 LINE",
"526 68 LINE",
"347 106 LINE",
"567 737 LINE",
"756 737 LINE",
"774 663 OFFCURVE",
"779 586 OFFCURVE",
"771 512 CURVE",
"841 512 LINE",
"1034 1066 LINE",
"964 1066 LINE",
"932 1004 OFFCURVE",
"875 930 OFFCURVE",
"794 841 CURVE",
"604 841 LINE",
"806 1420 LINE",
"1110 1420 LINE",
"1161 1330 OFFCURVE",
"1203 1225 OFFCURVE",
"1240 1088 CURVE",
"1298 1088 LINE",
"1284 1523 LINE",
"407 1523 LINE",
"383 1455 LINE",
"522 1416 LINE",
"64 106 LINE",
"-86 68 LINE",
"-110 0 LINE"
);
}
);
};
layerId = "D3934E74-9B53-4E98-B19F-CD3DFEE08352";
paths = (
{
closed = 1;
nodes = (
"502 0 LINE",
"526 68 LINE",
"347 106 LINE",
"567 737 LINE",
"756 737 LINE",
"774 663 OFFCURVE",
"779 586 OFFCURVE",
"771 512 CURVE",
"841 512 LINE",
"1034 1066 LINE",
"964 1066 LINE",
"932 1004 OFFCURVE",
"875 930 OFFCURVE",
"794 841 CURVE",
"604 841 LINE",
"806 1420 LINE",
"1110 1420 LINE",
"1161 1330 OFFCURVE",
"1203 1225 OFFCURVE",
"1240 1088 CURVE",
"1298 1088 LINE",
"1284 1523 LINE",
"407 1523 LINE",
"383 1455 LINE",
"522 1416 LINE",
"64 106 LINE",
"-86 68 LINE",
"-110 0 LINE"
);
}
);
width = 1125;
}
);
leftKerningGroup = I;
leftMetricsKey = I;
rightKerningGroup = F;
unicode = 0046;
},
{
glyphname = G;
layers = (
{
anchors = (
{
name = bottom;
position = "{530, 0}";
},
{
name = topcap;
position = "{1112, 1643}";
}
);
background = {
anchors = (
{
name = bottom;
position = "{530, 0}";
},
{
name = topcap;
position = "{1112, 1643}";
}
);
paths = (
{
closed = 1;
nodes = (
"694 -21 OFFCURVE",
"852 28 OFFCURVE",
"988 117 CURVE",
"1182 681 LINE",
"1342 719 LINE",
"1360 763 LINE",
"887 763 LINE",
"871 719 LINE",
"1008 681 LINE",
"881 314 LINE SMOOTH",
"821 143 OFFCURVE",
"734 68 OFFCURVE",
"593 68 CURVE SMOOTH",
"410 68 OFFCURVE",
"320 198 OFFCURVE",
"320 461 CURVE SMOOTH",
"320 976 OFFCURVE",
"664 1457 OFFCURVE",
"1032 1457 CURVE SMOOTH",
"1176 1457 OFFCURVE",
"1245 1383 OFFCURVE",
"1245 1229 CURVE SMOOTH",
"1245 1177 OFFCURVE",
"1238 1120 OFFCURVE",
"1224 1049 CURVE",
"1273 1049 LINE",
"1436 1523 LINE",
"1397 1523 LINE",
"1312 1435 LINE",
"1238 1511 OFFCURVE",
"1155 1544 OFFCURVE",
"1039 1544 CURVE SMOOTH",
"585 1544 OFFCURVE",
"132 1008 OFFCURVE",
"132 469 CURVE SMOOTH",
"132 159 OFFCURVE",
"287 -21 OFFCURVE",
"557 -21 CURVE SMOOTH"
);
}
);
};
guideLines = (
{
angle = 68;
position = "{1287, 750}";
}
);
layerId = master01;
paths = (
{
closed = 1;
nodes = (
"694 -21 OFFCURVE",
"852 28 OFFCURVE",
"988 117 CURVE",
"1182 681 LINE",
"1342 719 LINE",
"1360 763 LINE",
"887 763 LINE",
"871 719 LINE",
"1008 681 LINE",
"881 314 LINE SMOOTH",
"821 143 OFFCURVE",
"734 68 OFFCURVE",
"593 68 CURVE SMOOTH",
"410 68 OFFCURVE",
"320 198 OFFCURVE",
"320 461 CURVE SMOOTH",
"320 976 OFFCURVE",
"664 1457 OFFCURVE",
"1032 1457 CURVE SMOOTH",
"1176 1457 OFFCURVE",
"1245 1383 OFFCURVE",
"1245 1229 CURVE SMOOTH",
"1245 1177 OFFCURVE",
"1238 1120 OFFCURVE",
"1224 1049 CURVE",
"1273 1049 LINE",
"1436 1523 LINE",
"1397 1523 LINE",
"1312 1435 LINE",
"1238 1511 OFFCURVE",
"1155 1544 OFFCURVE",
"1039 1544 CURVE SMOOTH",
"585 1544 OFFCURVE",
"132 1008 OFFCURVE",
"132 469 CURVE SMOOTH",
"132 159 OFFCURVE",
"287 -21 OFFCURVE",
"557 -21 CURVE SMOOTH"
);
}
);
width = 1325;
},
{
anchors = (
{
name = bottom;
position = "{590, 0}";
},
{
name = topcap;
position = "{1161, 1643}";
}
);
background = {
anchors = (
{
name = bottom;
position = "{590, 0}";
},
{
name = topcap;
position = "{1161, 1643}";
}
);
paths = (
{
closed = 1;
nodes = (
"798 -21 OFFCURVE",
"1021 51 OFFCURVE",
"1169 161 CURVE",
"1336 656 LINE",
"1487 696 LINE",
"1510 763 LINE",
"940 763 LINE",
"916 696 LINE",
"1055 656 LINE",
"941 318 LINE SMOOTH",
"894 177 OFFCURVE",
"778 88 OFFCURVE",
"642 88 CURVE SMOOTH",
"496 88 OFFCURVE",
"423 199 OFFCURVE",
"423 421 CURVE SMOOTH",
"423 967 OFFCURVE",
"727 1436 OFFCURVE",
"1079 1436 CURVE SMOOTH",
"1257 1436 OFFCURVE",
"1361 1317 OFFCURVE",
"1361 1126 CURVE SMOOTH",
"1361 1099 OFFCURVE",
"1359 1070 OFFCURVE",
"1354 1039 CURVE",
"1410 1039 LINE",
"1579 1523 LINE",
"1520 1523 LINE",
"1410 1420 LINE",
"1312 1507 OFFCURVE",
"1214 1544 OFFCURVE",
"1075 1544 CURVE SMOOTH",
"578 1544 OFFCURVE",
"137 1062 OFFCURVE",
"137 524 CURVE SMOOTH",
"137 166 OFFCURVE",
"294 -21 OFFCURVE",
"605 -21 CURVE SMOOTH"
);
}
);
};
layerId = "D3934E74-9B53-4E98-B19F-CD3DFEE08352";
paths = (
{
closed = 1;
nodes = (
"798 -21 OFFCURVE",
"1021 51 OFFCURVE",
"1169 161 CURVE",
"1336 656 LINE",
"1487 696 LINE",
"1510 763 LINE",
"940 763 LINE",
"916 696 LINE",
"1055 656 LINE",
"941 318 LINE SMOOTH",
"894 177 OFFCURVE",
"778 88 OFFCURVE",
"642 88 CURVE SMOOTH",
"496 88 OFFCURVE",
"423 199 OFFCURVE",
"423 421 CURVE SMOOTH",
"423 967 OFFCURVE",
"727 1436 OFFCURVE",
"1079 1436 CURVE SMOOTH",
"1257 1436 OFFCURVE",
"1361 1317 OFFCURVE",
"1361 1126 CURVE SMOOTH",
"1361 1099 OFFCURVE",
"1359 1070 OFFCURVE",
"1354 1039 CURVE",
"1410 1039 LINE",
"1579 1523 LINE",
"1520 1523 LINE",
"1410 1420 LINE",
"1312 1507 OFFCURVE",
"1214 1544 OFFCURVE",
"1075 1544 CURVE SMOOTH",
"578 1544 OFFCURVE",
"137 1062 OFFCURVE",
"137 524 CURVE SMOOTH",
"137 166 OFFCURVE",
"294 -21 OFFCURVE",
"605 -21 CURVE SMOOTH"
);
}
);
width = 1467;
}
);
leftKerningGroup = C;
leftMetricsKey = O;
rightKerningGroup = G;
unicode = 0047;
},
{
glyphname = Gbreve;
layers = (
{
background = {
anchors = (
{
name = bottom;
position = "{532, 0}";
},
{
name = topcap;
position = "{1114, 1643}";
}
);
paths = (
{
closed = 1;
nodes = (
"696 -21 OFFCURVE",
"854 28 OFFCURVE",
"990 117 CURVE",
"1184 681 LINE",
"1344 719 LINE",
"1362 763 LINE",
"889 763 LINE",
"873 719 LINE",
"1010 681 LINE",
"883 314 LINE SMOOTH",
"823 143 OFFCURVE",
"736 68 OFFCURVE",
"595 68 CURVE SMOOTH",
"412 68 OFFCURVE",
"322 198 OFFCURVE",
"322 461 CURVE SMOOTH",
"322 976 OFFCURVE",
"666 1457 OFFCURVE",
"1034 1457 CURVE SMOOTH",
"1178 1457 OFFCURVE",
"1247 1383 OFFCURVE",
"1247 1229 CURVE SMOOTH",
"1247 1177 OFFCURVE",
"1240 1120 OFFCURVE",
"1226 1049 CURVE",
"1275 1049 LINE",
"1438 1523 LINE",
"1399 1523 LINE",
"1314 1435 LINE",
"1240 1511 OFFCURVE",
"1157 1544 OFFCURVE",
"1041 1544 CURVE SMOOTH",
"587 1544 OFFCURVE",
"134 1008 OFFCURVE",
"134 469 CURVE SMOOTH",
"134 159 OFFCURVE",
"289 -21 OFFCURVE",
"559 -21 CURVE SMOOTH"
);
},
{
closed = 1;
nodes = (
"1151 1625 OFFCURVE",
"1281 1655 OFFCURVE",
"1418 1900 CURVE",
"1352 1900 LINE",
"1283 1809 OFFCURVE",
"1209 1771 OFFCURVE",
"1136 1771 CURVE SMOOTH",
"1049 1771 OFFCURVE",
"1007 1818 OFFCURVE",
"1005 1900 CURVE",
"946 1900 LINE",
"934 1856 OFFCURVE",
"931 1821 OFFCURVE",
"931 1789 CURVE SMOOTH",
"931 1669 OFFCURVE",
"1003 1625 OFFCURVE",
"1079 1625 CURVE SMOOTH"
);
}
);
};
components = (
{
name = G;
},
{
alignment = -1;
name = breve.cap;
transform = "{0.84, 0, 0, 1, 913, 0}";
}
);
layerId = master01;
width = 1325;
},
{
background = {
anchors = (
{
name = bottom;
position = "{590, 0}";
},
{
name = topcap;
position = "{1161, 1643}";
}
);
paths = (
{
closed = 1;
nodes = (
"798 -21 OFFCURVE",
"1021 51 OFFCURVE",
"1169 161 CURVE",
"1336 656 LINE",
"1487 696 LINE",
"1510 763 LINE",
"940 763 LINE",
"916 696 LINE",
"1055 656 LINE",
"941 318 LINE SMOOTH",
"894 177 OFFCURVE",
"778 88 OFFCURVE",
"642 88 CURVE SMOOTH",
"496 88 OFFCURVE",
"423 199 OFFCURVE",
"423 421 CURVE SMOOTH",
"423 967 OFFCURVE",
"727 1436 OFFCURVE",
"1079 1436 CURVE SMOOTH",
"1257 1436 OFFCURVE",
"1361 1317 OFFCURVE",
"1361 1126 CURVE SMOOTH",
"1361 1099 OFFCURVE",
"1359 1070 OFFCURVE",
"1354 1039 CURVE",
"1410 1039 LINE",
"1579 1523 LINE",
"1520 1523 LINE",
"1410 1420 LINE",
"1312 1507 OFFCURVE",
"1214 1544 OFFCURVE",
"1075 1544 CURVE SMOOTH",
"578 1544 OFFCURVE",
"137 1062 OFFCURVE",
"137 524 CURVE SMOOTH",
"137 166 OFFCURVE",
"294 -21 OFFCURVE",
"605 -21 CURVE SMOOTH"
);
},
{
closed = 1;
nodes = (
"1309 1622 OFFCURVE",
"1443 1733 OFFCURVE",
"1550 1935 CURVE",
"1463 1935 LINE",
"1398 1841 OFFCURVE",
"1323 1795 OFFCURVE",
"1234 1795 CURVE SMOOTH",
"1145 1795 OFFCURVE",
"1096 1842 OFFCURVE",
"1103 1935 CURVE",
"1024 1935 LINE",
"1010 1886 OFFCURVE",
"1005 1857 OFFCURVE",
"1005 1823 CURVE SMOOTH",
"1005 1698 OFFCURVE",
"1071 1622 OFFCURVE",
"1178 1622 CURVE SMOOTH"
);
}
);
};
components = (
{
name = G;
},
{
name = breve.cap;
transform = "{0.84, 0, 0, 1, 507, 0}";
}
);
layerId = "D3934E74-9B53-4E98-B19F-CD3DFEE08352";
width = 1467;
}
);
leftKerningGroup = C;
rightKerningGroup = G;
rightMetricsKey = G;
unicode = 011E;
},
{
glyphname = Gcircumflex;
layers = (
{
background = {
anchors = (
{
name = bottom;
position = "{532, 0}";
},
{
name = topcap;
position = "{1114, 1643}";
}
);
paths = (
{
closed = 1;
nodes = (
"696 -21 OFFCURVE",
"854 28 OFFCURVE",
"990 117 CURVE",
"1184 681 LINE",
"1344 719 LINE",
"1362 763 LINE",
"889 763 LINE",
"873 719 LINE",
"1010 681 LINE",
"883 314 LINE SMOOTH",
"823 143 OFFCURVE",
"736 68 OFFCURVE",
"595 68 CURVE SMOOTH",
"412 68 OFFCURVE",
"322 198 OFFCURVE",
"322 461 CURVE SMOOTH",
"322 976 OFFCURVE",
"666 1457 OFFCURVE",
"1034 1457 CURVE SMOOTH",
"1178 1457 OFFCURVE",
"1247 1383 OFFCURVE",
"1247 1229 CURVE SMOOTH",
"1247 1177 OFFCURVE",
"1240 1120 OFFCURVE",
"1226 1049 CURVE",
"1275 1049 LINE",
"1438 1523 LINE",
"1399 1523 LINE",
"1314 1435 LINE",
"1240 1511 OFFCURVE",
"1157 1544 OFFCURVE",
"1041 1544 CURVE SMOOTH",
"587 1544 OFFCURVE",
"134 1008 OFFCURVE",
"134 469 CURVE SMOOTH",
"134 159 OFFCURVE",
"289 -21 OFFCURVE",
"559 -21 CURVE SMOOTH"
);
},
{
closed = 1;
nodes = (
"1169 1757 LINE",
"1320 1622 LINE",
"1363 1656 LINE",
"1274 1847 LINE SMOOTH",
"1255 1885 OFFCURVE",
"1239 1900 OFFCURVE",
"1201 1900 CURVE SMOOTH",
"1160 1900 OFFCURVE",
"1134 1880 OFFCURVE",
"1094 1847 CURVE SMOOTH",
"876 1656 LINE",
"895 1622 LINE"
);
}
);
};
components = (
{
name = G;
},
{
alignment = -1;
name = circumflex.cap;
transform = "{0.84, 0, 0, 1, 858, 0}";
}
);
layerId = master01;
width = 1325;
},
{
background = {
anchors = (
{
name = bottom;
position = "{590, 0}";
},
{
name = topcap;
position = "{1161, 1643}";
}
);
paths = (
{
closed = 1;
nodes = (
"798 -21 OFFCURVE",
"1021 51 OFFCURVE",
"1169 161 CURVE",
"1336 656 LINE",
"1487 696 LINE",
"1510 763 LINE",
"940 763 LINE",
"916 696 LINE",
"1055 656 LINE",
"941 318 LINE SMOOTH",
"894 177 OFFCURVE",
"778 88 OFFCURVE",
"642 88 CURVE SMOOTH",
"496 88 OFFCURVE",
"423 199 OFFCURVE",
"423 421 CURVE SMOOTH",
"423 967 OFFCURVE",
"727 1436 OFFCURVE",
"1079 1436 CURVE SMOOTH",
"1257 1436 OFFCURVE",
"1361 1317 OFFCURVE",
"1361 1126 CURVE SMOOTH",
"1361 1099 OFFCURVE",
"1359 1070 OFFCURVE",
"1354 1039 CURVE",
"1410 1039 LINE",
"1579 1523 LINE",
"1520 1523 LINE",
"1410 1420 LINE",
"1312 1507 OFFCURVE",
"1214 1544 OFFCURVE",
"1075 1544 CURVE SMOOTH",
"578 1544 OFFCURVE",
"137 1062 OFFCURVE",
"137 524 CURVE SMOOTH",
"137 166 OFFCURVE",
"294 -21 OFFCURVE",
"605 -21 CURVE SMOOTH"
);
},
{
closed = 1;
nodes = (
"1198 1747 LINE",
"1367 1622 LINE",
"1414 1659 LINE",
"1323 1865 LINE SMOOTH",
"1300 1915 OFFCURVE",
"1278 1935 OFFCURVE",
"1236 1935 CURVE SMOOTH",
"1198 1935 OFFCURVE",
"1166 1918 OFFCURVE",
"1108 1865 CURVE SMOOTH",
"881 1657 LINE",
"902 1622 LINE"
);
}
);
};
components = (
{
name = G;
},
{
name = circumflex.cap;
transform = "{0.84, 0, 0, 1, 437, 0}";
}
);
layerId = "D3934E74-9B53-4E98-B19F-CD3DFEE08352";
width = 1467;
}
);
leftKerningGroup = C;
rightKerningGroup = G;
rightMetricsKey = G;
unicode = 011C;
},
{
glyphname = Gcommaaccent;
layers = (
{
background = {
anchors = (
{
name = bottom;
position = "{532, 0}";
},
{
name = topcap;
position = "{1114, 1643}";
}
);
paths = (
{
closed = 1;
nodes = (
"696 -21 OFFCURVE",
"854 28 OFFCURVE",
"990 117 CURVE",
"1184 681 LINE",
"1344 719 LINE",
"1362 763 LINE",
"889 763 LINE",
"873 719 LINE",
"1010 681 LINE",
"883 314 LINE SMOOTH",
"823 143 OFFCURVE",
"736 68 OFFCURVE",
"595 68 CURVE SMOOTH",
"412 68 OFFCURVE",
"322 198 OFFCURVE",
"322 461 CURVE SMOOTH",
"322 976 OFFCURVE",
"666 1457 OFFCURVE",
"1034 1457 CURVE SMOOTH",
"1178 1457 OFFCURVE",
"1247 1383 OFFCURVE",
"1247 1229 CURVE SMOOTH",
"1247 1177 OFFCURVE",
"1240 1120 OFFCURVE",
"1226 1049 CURVE",
"1275 1049 LINE",
"1438 1523 LINE",
"1399 1523 LINE",
"1314 1435 LINE",
"1240 1511 OFFCURVE",
"1157 1544 OFFCURVE",
"1041 1544 CURVE SMOOTH",
"587 1544 OFFCURVE",
"134 1008 OFFCURVE",
"134 469 CURVE SMOOTH",
"134 159 OFFCURVE",
"289 -21 OFFCURVE",
"559 -21 CURVE SMOOTH"
);
},
{
closed = 1;
nodes = (
"503 -506 OFFCURVE",
"577 -400 OFFCURVE",
"577 -300 CURVE SMOOTH",
"577 -229 OFFCURVE",
"548 -190 OFFCURVE",
"494 -190 CURVE SMOOTH",
"420 -190 OFFCURVE",
"385 -237 OFFCURVE",
"385 -309 CURVE SMOOTH",
"385 -358 OFFCURVE",
"401 -388 OFFCURVE",
"432 -397 CURVE SMOOTH",
"464 -406 OFFCURVE",
"470 -407 OFFCURVE",
"470 -421 CURVE SMOOTH",
"470 -452 OFFCURVE",
"416 -514 OFFCURVE",
"347 -554 CURVE",
"372 -590 LINE"
);
}
);
};
components = (
{
name = G;
},
{
name = commaaccent;
transform = "{0.84, 0, 0, 1, 375, 21}";
}
);
layerId = master01;
width = 1325;
},
{
background = {
anchors = (
{
name = bottom;
position = "{590, 0}";
},
{
name = topcap;
position = "{1161, 1643}";
}
);
paths = (
{
closed = 1;
nodes = (
"798 -21 OFFCURVE",
"1021 51 OFFCURVE",
"1169 161 CURVE",
"1336 656 LINE",
"1487 696 LINE",
"1510 763 LINE",
"940 763 LINE",
"916 696 LINE",
"1055 656 LINE",
"941 318 LINE SMOOTH",
"894 177 OFFCURVE",
"778 88 OFFCURVE",
"642 88 CURVE SMOOTH",
"496 88 OFFCURVE",
"423 199 OFFCURVE",
"423 421 CURVE SMOOTH",
"423 967 OFFCURVE",
"727 1436 OFFCURVE",
"1079 1436 CURVE SMOOTH",
"1257 1436 OFFCURVE",
"1361 1317 OFFCURVE",
"1361 1126 CURVE SMOOTH",
"1361 1099 OFFCURVE",
"1359 1070 OFFCURVE",
"1354 1039 CURVE",
"1410 1039 LINE",
"1579 1523 LINE",
"1520 1523 LINE",
"1410 1420 LINE",
"1312 1507 OFFCURVE",
"1214 1544 OFFCURVE",
"1075 1544 CURVE SMOOTH",
"578 1544 OFFCURVE",
"137 1062 OFFCURVE",
"137 524 CURVE SMOOTH",
"137 166 OFFCURVE",
"294 -21 OFFCURVE",
"605 -21 CURVE SMOOTH"
);
},
{
closed = 1;
nodes = (
"538 -480 OFFCURVE",
"649 -357 OFFCURVE",
"649 -228 CURVE SMOOTH",
"649 -152 OFFCURVE",
"609 -107 OFFCURVE",
"539 -107 CURVE SMOOTH",
"464 -107 OFFCURVE",
"414 -161 OFFCURVE",
"414 -245 CURVE SMOOTH",
"414 -298 OFFCURVE",
"433 -332 OFFCURVE",
"472 -345 CURVE SMOOTH",
"490 -352 OFFCURVE",
"498 -362 OFFCURVE",
"498 -374 CURVE SMOOTH",
"498 -408 OFFCURVE",
"402 -470 OFFCURVE",
"319 -493 CURVE",
"352 -555 LINE"
);
}
);
};
components = (
{
name = G;
},
{
name = commaaccent;
transform = "{0.84, 0, 0, 1, 624, 0}";
}
);
layerId = "D3934E74-9B53-4E98-B19F-CD3DFEE08352";
width = 1467;
}
);
leftKerningGroup = C;
rightKerningGroup = G;
rightMetricsKey = G;
unicode = 0122;
},
{
glyphname = Gdotaccent;
layers = (
{
background = {
anchors = (
{
name = bottom;
position = "{532, 0}";
},
{
name = topcap;
position = "{1114, 1643}";
}
);
paths = (
{
closed = 1;
nodes = (
"696 -21 OFFCURVE",
"854 28 OFFCURVE",
"990 117 CURVE",
"1184 681 LINE",
"1344 719 LINE",
"1362 763 LINE",
"889 763 LINE",
"873 719 LINE",
"1010 681 LINE",
"883 314 LINE SMOOTH",
"823 143 OFFCURVE",
"736 68 OFFCURVE",
"595 68 CURVE SMOOTH",
"412 68 OFFCURVE",
"322 198 OFFCURVE",
"322 461 CURVE SMOOTH",
"322 976 OFFCURVE",
"666 1457 OFFCURVE",
"1034 1457 CURVE SMOOTH",
"1178 1457 OFFCURVE",
"1247 1383 OFFCURVE",
"1247 1229 CURVE SMOOTH",
"1247 1177 OFFCURVE",
"1240 1120 OFFCURVE",
"1226 1049 CURVE",
"1275 1049 LINE",
"1438 1523 LINE",
"1399 1523 LINE",
"1314 1435 LINE",
"1240 1511 OFFCURVE",
"1157 1544 OFFCURVE",
"1041 1544 CURVE SMOOTH",
"587 1544 OFFCURVE",
"134 1008 OFFCURVE",
"134 469 CURVE SMOOTH",
"134 159 OFFCURVE",
"289 -21 OFFCURVE",
"559 -21 CURVE SMOOTH"
);
},
{
closed = 1;
nodes = (
"1215 1654 OFFCURVE",
"1276 1719 OFFCURVE",
"1276 1792 CURVE SMOOTH",
"1276 1852 OFFCURVE",
"1226 1900 OFFCURVE",
"1171 1900 CURVE SMOOTH",
"1107 1900 OFFCURVE",
"1050 1839 OFFCURVE",
"1050 1765 CURVE SMOOTH",
"1050 1698 OFFCURVE",
"1089 1654 OFFCURVE",
"1152 1654 CURVE SMOOTH"
);
}
);
};
components = (
{
name = G;
},
{
alignment = -1;
name = dotaccent.cap;
transform = "{0.84, 0, 0, 1, 1032, 0}";
}
);
layerId = master01;
width = 1325;
},
{
background = {
anchors = (
{
name = bottom;
position = "{590, 0}";
},
{
name = topcap;
position = "{1161, 1643}";
}
);
paths = (
{
closed = 1;
nodes = (
"798 -21 OFFCURVE",
"1021 51 OFFCURVE",
"1169 161 CURVE",
"1336 656 LINE",
"1487 696 LINE",
"1510 763 LINE",
"940 763 LINE",
"916 696 LINE",
"1055 656 LINE",
"941 318 LINE SMOOTH",
"894 177 OFFCURVE",
"778 88 OFFCURVE",
"642 88 CURVE SMOOTH",
"496 88 OFFCURVE",
"423 199 OFFCURVE",
"423 421 CURVE SMOOTH",
"423 967 OFFCURVE",
"727 1436 OFFCURVE",
"1079 1436 CURVE SMOOTH",
"1257 1436 OFFCURVE",
"1361 1317 OFFCURVE",
"1361 1126 CURVE SMOOTH",
"1361 1099 OFFCURVE",
"1359 1070 OFFCURVE",
"1354 1039 CURVE",
"1410 1039 LINE",
"1579 1523 LINE",
"1520 1523 LINE",
"1410 1420 LINE",
"1312 1507 OFFCURVE",
"1214 1544 OFFCURVE",
"1075 1544 CURVE SMOOTH",
"578 1544 OFFCURVE",
"137 1062 OFFCURVE",
"137 524 CURVE SMOOTH",
"137 166 OFFCURVE",
"294 -21 OFFCURVE",
"605 -21 CURVE SMOOTH"
);
},
{
closed = 1;
nodes = (
"1279 1654 OFFCURVE",
"1347 1728 OFFCURVE",
"1347 1810 CURVE SMOOTH",
"1347 1880 OFFCURVE",
"1292 1932 OFFCURVE",
"1228 1932 CURVE SMOOTH",
"1157 1932 OFFCURVE",
"1093 1863 OFFCURVE",
"1093 1781 CURVE SMOOTH",
"1093 1705 OFFCURVE",
"1136 1654 OFFCURVE",
"1207 1654 CURVE SMOOTH"
);
}
);
};
components = (
{
name = G;
},
{
name = dotaccent.cap;
transform = "{0.84, 0, 0, 1, 613, 0}";
}
);
layerId = "D3934E74-9B53-4E98-B19F-CD3DFEE08352";
width = 1467;
}
);
leftKerningGroup = C;
rightKerningGroup = G;
rightMetricsKey = G;
unicode = 0120;
},
{
glyphname = H;
layers = (
{
anchors = (
{
name = bottom;
position = "{519, 0}";
},
{
name = topcap;
position = "{1098, 1643}";
}
);
background = {
anchors = (
{
name = bottom;
position = "{519, 0}";
},
{
name = topcap;
position = "{1098, 1643}";
}
);
paths = (
{
closed = 1;
nodes = (
"1677 1523 LINE",
"1195 1523 LINE",
"1179 1479 LINE",
"1316 1441 LINE",
"1107 841 LINE",
"515 841 LINE",
"724 1441 LINE",
"884 1479 LINE",
"900 1523 LINE",
"419 1523 LINE",
"402 1479 LINE",
"540 1441 LINE",
"69 83 LINE",
"-93 45 LINE",
"-110 0 LINE",
"370 0 LINE",
"388 45 LINE",
"250 83 LINE",
"486 762 LINE",
"1079 762 LINE",
"843 83 LINE",
"681 45 LINE",
"664 0 LINE",
"1147 0 LINE",
"1163 45 LINE",
"1027 83 LINE",
"1501 1441 LINE",
"1662 1479 LINE"
);
}
);
};
layerId = master01;
paths = (
{
closed = 1;
nodes = (
"1677 1523 LINE",
"1195 1523 LINE",
"1179 1479 LINE",
"1316 1441 LINE",
"1107 841 LINE",
"515 841 LINE",
"724 1441 LINE",
"884 1479 LINE",
"900 1523 LINE",
"419 1523 LINE",
"402 1479 LINE",
"540 1441 LINE",
"69 83 LINE",
"-93 45 LINE",
"-110 0 LINE",
"370 0 LINE",
"388 45 LINE",
"250 83 LINE",
"486 762 LINE",
"1079 762 LINE",
"843 83 LINE",
"681 45 LINE",
"664 0 LINE",
"1147 0 LINE",
"1163 45 LINE",
"1027 83 LINE",
"1501 1441 LINE",
"1662 1479 LINE"
);
}
);
width = 1400;
},
{
anchors = (
{
name = bottom;
position = "{569, 0}";
},
{
name = topcap;
position = "{1113, 1643}";
}
);
background = {
anchors = (
{
name = bottom;
position = "{569, 0}";
},
{
name = topcap;
position = "{1113, 1643}";
}
);
paths = (
{
closed = 1;
nodes = (
"1757 1523 LINE",
"1186 1523 LINE",
"1162 1455 LINE",
"1301 1416 LINE",
"1105 853 LINE",
"608 853 LINE",
"806 1416 LINE",
"957 1455 LINE",
"981 1523 LINE",
"407 1523 LINE",
"383 1455 LINE",
"522 1416 LINE",
"66 106 LINE",
"-84 68 LINE",
"-108 0 LINE",
"465 0 LINE",
"490 68 LINE",
"349 106 LINE",
"573 750 LINE",
"1068 750 LINE",
"844 106 LINE",
"695 68 LINE",
"670 0 LINE",
"1243 0 LINE",
"1267 68 LINE",
"1126 106 LINE",
"1583 1416 LINE",
"1733 1455 LINE"
);
}
);
};
layerId = "D3934E74-9B53-4E98-B19F-CD3DFEE08352";
paths = (
{
closed = 1;
nodes = (
"1757 1523 LINE",
"1186 1523 LINE",
"1162 1455 LINE",
"1301 1416 LINE",
"1105 853 LINE",
"608 853 LINE",
"806 1416 LINE",
"957 1455 LINE",
"981 1523 LINE",
"407 1523 LINE",
"383 1455 LINE",
"522 1416 LINE",
"66 106 LINE",
"-84 68 LINE",
"-108 0 LINE",
"465 0 LINE",
"490 68 LINE",
"349 106 LINE",
"573 750 LINE",
"1068 750 LINE",
"844 106 LINE",
"695 68 LINE",
"670 0 LINE",
"1243 0 LINE",
"1267 68 LINE",
"1126 106 LINE",
"1583 1416 LINE",
"1733 1455 LINE"
);
}
);
width = 1455;
}
);
leftKerningGroup = I;
leftMetricsKey = I;
rightKerningGroup = I;
rightMetricsKey = I;
unicode = 0048;
},
{
glyphname = Hbar;
layers = (
{
background = {
anchors = (
{
name = bottom;
position = "{519, 0}";
},
{
name = topcap;
position = "{1098, 1643}";
}
);
paths = (
{
closed = 1;
nodes = (
"1526 1088 LINE",
"1558 1176 LINE",
"299 1176 LINE",
"269 1088 LINE"
);
},
{
closed = 1;
nodes = (
"1677 1523 LINE",
"1195 1523 LINE",
"1179 1479 LINE",
"1316 1441 LINE",
"1107 841 LINE",
"515 841 LINE",
"724 1441 LINE",
"884 1479 LINE",
"900 1523 LINE",
"419 1523 LINE",
"402 1479 LINE",
"540 1441 LINE",
"69 83 LINE",
"-93 45 LINE",
"-110 0 LINE",
"370 0 LINE",
"388 45 LINE",
"250 83 LINE",
"486 762 LINE",
"1079 762 LINE",
"843 83 LINE",
"681 45 LINE",
"664 0 LINE",
"1147 0 LINE",
"1163 45 LINE",
"1027 83 LINE",
"1501 1441 LINE",
"1662 1479 LINE"
);
}
);
};
components = (
{
name = H;
}
);
layerId = master01;
paths = (
{
closed = 1;
nodes = (
"1526 1088 LINE",
"1558 1176 LINE",
"299 1176 LINE",
"269 1088 LINE"
);
}
);
width = 1400;
},
{
background = {
anchors = (
{
name = bottom;
position = "{569, 0}";
},
{
name = topcap;
position = "{1113, 1643}";
}
);
paths = (
{
closed = 1;
nodes = (
"1594 1065 LINE",
"1641 1199 LINE",
"296 1199 LINE",
"250 1065 LINE"
);
},
{
closed = 1;
nodes = (
"1757 1523 LINE",
"1186 1523 LINE",
"1162 1455 LINE",
"1301 1416 LINE",
"1105 853 LINE",
"608 853 LINE",
"806 1416 LINE",
"957 1455 LINE",
"981 1523 LINE",
"407 1523 LINE",
"383 1455 LINE",
"522 1416 LINE",
"66 106 LINE",
"-84 68 LINE",
"-108 0 LINE",
"465 0 LINE",
"490 68 LINE",
"349 106 LINE",
"573 750 LINE",
"1068 750 LINE",
"844 106 LINE",
"695 68 LINE",
"670 0 LINE",
"1243 0 LINE",
"1267 68 LINE",
"1126 106 LINE",
"1583 1416 LINE",
"1733 1455 LINE"
);
}
);
};
components = (
{
name = H;
}
);
layerId = "D3934E74-9B53-4E98-B19F-CD3DFEE08352";
paths = (
{
closed = 1;
nodes = (
"1594 1065 LINE",
"1641 1199 LINE",
"296 1199 LINE",
"250 1065 LINE"
);
}
);
width = 1455;
}
);
leftKerningGroup = I;
leftMetricsKey = H;
rightKerningGroup = I;
rightMetricsKey = H;
unicode = 0126;
},
{
glyphname = Hcircumflex;
layers = (
{
background = {
anchors = (
{
name = bottom;
position = "{519, 0}";
},
{
name = topcap;
position = "{1098, 1643}";
}
);
paths = (
{
closed = 1;
nodes = (
"1677 1523 LINE",
"1195 1523 LINE",
"1179 1479 LINE",
"1316 1441 LINE",
"1107 841 LINE",
"515 841 LINE",
"724 1441 LINE",
"884 1479 LINE",
"900 1523 LINE",
"419 1523 LINE",
"402 1479 LINE",
"540 1441 LINE",
"69 83 LINE",
"-93 45 LINE",
"-110 0 LINE",
"370 0 LINE",
"388 45 LINE",
"250 83 LINE",
"486 762 LINE",
"1079 762 LINE",
"843 83 LINE",
"681 45 LINE",
"664 0 LINE",
"1147 0 LINE",
"1163 45 LINE",
"1027 83 LINE",
"1501 1441 LINE",
"1662 1479 LINE"
);
},
{
closed = 1;
nodes = (
"1119 1757 LINE",
"1270 1622 LINE",
"1313 1656 LINE",
"1224 1847 LINE SMOOTH",
"1205 1885 OFFCURVE",
"1189 1900 OFFCURVE",
"1151 1900 CURVE SMOOTH",
"1110 1900 OFFCURVE",
"1084 1880 OFFCURVE",
"1044 1847 CURVE SMOOTH",
"826 1656 LINE",
"845 1622 LINE"
);
}
);
};
components = (
{
name = H;
},
{
alignment = -1;
name = circumflex.cap;
transform = "{0.84, 0, 0, 1, 808, 0}";
}
);
layerId = master01;
width = 1429;
},
{
background = {
anchors = (
{
name = bottom;
position = "{569, 0}";
},
{
name = topcap;
position = "{1113, 1643}";
}
);
paths = (
{
closed = 1;
nodes = (
"1757 1523 LINE",
"1186 1523 LINE",
"1162 1455 LINE",
"1301 1416 LINE",
"1105 853 LINE",
"608 853 LINE",
"806 1416 LINE",
"957 1455 LINE",
"981 1523 LINE",
"407 1523 LINE",
"383 1455 LINE",
"522 1416 LINE",
"66 106 LINE",
"-84 68 LINE",
"-108 0 LINE",
"465 0 LINE",
"490 68 LINE",
"349 106 LINE",
"573 750 LINE",
"1068 750 LINE",
"844 106 LINE",
"695 68 LINE",
"670 0 LINE",
"1243 0 LINE",
"1267 68 LINE",
"1126 106 LINE",
"1583 1416 LINE",
"1733 1455 LINE"
);
},
{
closed = 1;
nodes = (
"1150 1747 LINE",
"1319 1622 LINE",
"1366 1659 LINE",
"1275 1865 LINE SMOOTH",
"1252 1915 OFFCURVE",
"1230 1935 OFFCURVE",
"1188 1935 CURVE SMOOTH",
"1150 1935 OFFCURVE",
"1118 1918 OFFCURVE",
"1060 1865 CURVE SMOOTH",
"833 1657 LINE",
"854 1622 LINE"
);
}
);
};
components = (
{
name = H;
},
{
name = circumflex.cap;
transform = "{0.84, 0, 0, 1, 389, 0}";
}
);
layerId = "D3934E74-9B53-4E98-B19F-CD3DFEE08352";
width = 1455;
}
);
leftKerningGroup = I;
rightKerningGroup = I;
unicode = 0124;
},
{
glyphname = Hdotbelow;
layers = (
{
background = {
anchors = (
{
name = bottom;
position = "{519, 0}";
},
{
name = topcap;
position = "{1098, 1643}";
}
);
paths = (
{
closed = 1;
nodes = (
"1677 1523 LINE",
"1195 1523 LINE",
"1179 1479 LINE",
"1316 1441 LINE",
"1107 841 LINE",
"515 841 LINE",
"724 1441 LINE",
"884 1479 LINE",
"900 1523 LINE",
"419 1523 LINE",
"402 1479 LINE",
"540 1441 LINE",
"69 83 LINE",
"-93 45 LINE",
"-110 0 LINE",
"370 0 LINE",
"388 45 LINE",
"250 83 LINE",
"486 762 LINE",
"1079 762 LINE",
"843 83 LINE",
"681 45 LINE",
"664 0 LINE",
"1147 0 LINE",
"1163 45 LINE",
"1027 83 LINE",
"1501 1441 LINE",
"1662 1479 LINE"
);
},
{
closed = 1;
nodes = (
"484 -507 OFFCURVE",
"545 -440 OFFCURVE",
"545 -367 CURVE SMOOTH",
"545 -307 OFFCURVE",
"495 -260 OFFCURVE",
"440 -260 CURVE SMOOTH",
"376 -260 OFFCURVE",
"319 -320 OFFCURVE",
"319 -394 CURVE SMOOTH",
"319 -461 OFFCURVE",
"358 -507 OFFCURVE",
"421 -507 CURVE SMOOTH"
);
}
);
};
components = (
{
name = H;
},
{
name = dotbelow;
transform = "{1, 0, 0, 1, 301, 0}";
}
);
layerId = master01;
width = 1400;
},
{
background = {
anchors = (
{
name = bottom;
position = "{569, 0}";
},
{
name = topcap;
position = "{1113, 1643}";
}
);
paths = (
{
closed = 1;
nodes = (
"1757 1523 LINE",
"1186 1523 LINE",
"1162 1455 LINE",
"1301 1416 LINE",
"1105 853 LINE",
"608 853 LINE",
"806 1416 LINE",
"957 1455 LINE",
"981 1523 LINE",
"407 1523 LINE",
"383 1455 LINE",
"522 1416 LINE",
"66 106 LINE",
"-84 68 LINE",
"-108 0 LINE",
"465 0 LINE",
"490 68 LINE",
"349 106 LINE",
"573 750 LINE",
"1068 750 LINE",
"844 106 LINE",
"695 68 LINE",
"670 0 LINE",
"1243 0 LINE",
"1267 68 LINE",
"1126 106 LINE",
"1583 1416 LINE",
"1733 1455 LINE"
);
},
{
closed = 1;
nodes = (
"532 -426 OFFCURVE",
"600 -351 OFFCURVE",
"600 -269 CURVE SMOOTH",
"600 -199 OFFCURVE",
"545 -147 OFFCURVE",
"481 -147 CURVE SMOOTH",
"410 -147 OFFCURVE",
"346 -216 OFFCURVE",
"346 -298 CURVE SMOOTH",
"346 -374 OFFCURVE",
"389 -426 OFFCURVE",
"460 -426 CURVE SMOOTH"
);
}
);
};
components = (
{
name = H;
},
{
name = dotbelow;
transform = "{1, 0, 0, 1, 575, 0}";
}
);
layerId = "D3934E74-9B53-4E98-B19F-CD3DFEE08352";
width = 1455;
}
);
leftKerningGroup = I;
leftMetricsKey = H;
rightKerningGroup = I;
rightMetricsKey = H;
unicode = 1E24;
},
{
glyphname = I;
layers = (
{
anchors = (
{
name = bottom;
position = "{134, 0}";
},
{
name = topcap;
position = "{727, 1643}";
}
);
background = {
anchors = (
{
name = bottom;
position = "{134, 0}";
},
{
name = topcap;
position = "{727, 1643}";
}
);
paths = (
{
closed = 1;
nodes = (
"370 0 LINE",
"388 45 LINE",
"250 83 LINE",
"724 1441 LINE",
"884 1479 LINE",
"900 1523 LINE",
"419 1523 LINE",
"402 1479 LINE",
"540 1441 LINE",
"69 83 LINE",
"-93 45 LINE",
"-110 0 LINE"
);
}
);
};
layerId = master01;
paths = (
{
closed = 1;
nodes = (
"370 0 LINE",
"388 45 LINE",
"250 83 LINE",
"724 1441 LINE",
"884 1479 LINE",
"900 1523 LINE",
"419 1523 LINE",
"402 1479 LINE",
"540 1441 LINE",
"69 83 LINE",
"-93 45 LINE",
"-110 0 LINE"
);
}
);
width = 623;
},
{
anchors = (
{
name = bottom;
position = "{181, 0}";
},
{
name = topcap;
position = "{735, 1643}";
}
);
background = {
anchors = (
{
name = bottom;
position = "{181, 0}";
},
{
name = topcap;
position = "{735, 1643}";
}
);
paths = (
{
closed = 1;
nodes = (
"465 0 LINE",
"489 68 LINE",
"349 107 LINE",
"806 1416 LINE",
"956 1454 LINE",
"979 1523 LINE",
"407 1523 LINE",
"383 1455 LINE",
"522 1416 LINE",
"66 107 LINE",
"-84 69 LINE",
"-108 0 LINE"
);
}
);
};
layerId = "D3934E74-9B53-4E98-B19F-CD3DFEE08352";
paths = (
{
closed = 1;
nodes = (
"465 0 LINE",
"489 68 LINE",
"349 107 LINE",
"806 1416 LINE",
"956 1454 LINE",
"979 1523 LINE",
"407 1523 LINE",
"383 1455 LINE",
"522 1416 LINE",
"66 107 LINE",
"-84 69 LINE",
"-108 0 LINE"
);
}
);
width = 677;
}
);
leftKerningGroup = I;
rightKerningGroup = I;
unicode = 0049;
},
{
glyphname = IJ;
layers = (
{
background = {
anchors = (
{
name = bottom;
position = "{134, 0}";
},
{
name = topcap;
position = "{1338, 1643}";
}
);
paths = (
{
closed = 1;
nodes = (
"370 0 LINE",
"388 45 LINE",
"250 83 LINE",
"724 1441 LINE",
"884 1479 LINE",
"900 1523 LINE",
"419 1523 LINE",
"402 1479 LINE",
"540 1441 LINE",
"69 83 LINE",
"-93 45 LINE",
"-110 0 LINE"
);
},
{
closed = 1;
nodes = (
"560 -507 OFFCURVE",
"733 -334 OFFCURVE",
"830 -54 CURVE SMOOTH",
"1352 1441 LINE",
"1512 1479 LINE",
"1529 1523 LINE",
"1046 1523 LINE",
"1030 1479 LINE",
"1168 1441 LINE",
"644 -54 LINE SMOOTH",
"542 -341 OFFCURVE",
"498 -427 OFFCURVE",
"426 -427 CURVE SMOOTH",
"317 -427 OFFCURVE",
"383 -252 OFFCURVE",
"265 -252 CURVE SMOOTH",
"221 -252 OFFCURVE",
"180 -287 OFFCURVE",
"180 -351 CURVE SMOOTH",
"180 -435 OFFCURVE",
"257 -507 OFFCURVE",
"379 -507 CURVE SMOOTH"
);
}
);
};
components = (
{
name = I;
},
{
name = J;
transform = "{1, 0, 0, 1, 623, 0}";
}
);
layerId = master01;
width = 1267;
},
{
background = {
anchors = (
{
name = bottom;
position = "{181, 0}";
},
{
name = topcap;
position = "{1429, 1643}";
}
);
paths = (
{
closed = 1;
nodes = (
"465 0 LINE",
"489 68 LINE",
"349 107 LINE",
"806 1416 LINE",
"956 1454 LINE",
"979 1523 LINE",
"407 1523 LINE",
"383 1455 LINE",
"522 1416 LINE",
"66 107 LINE",
"-84 69 LINE",
"-108 0 LINE"
);
},
{
closed = 1;
nodes = (
"677 -507 OFFCURVE",
"895 -290 OFFCURVE",
"1017 62 CURVE SMOOTH",
"1489 1413 LINE",
"1641 1451 LINE",
"1667 1523 LINE",
"1105 1523 LINE",
"1079 1451 LINE",
"1206 1412 LINE",
"707 -17 LINE SMOOTH",
"606 -309 OFFCURVE",
"550 -400 OFFCURVE",
"475 -400 CURVE SMOOTH",
"353 -400 OFFCURVE",
"411 -153 OFFCURVE",
"263 -153 CURVE SMOOTH",
"191 -153 OFFCURVE",
"142 -211 OFFCURVE",
"142 -288 CURVE SMOOTH",
"142 -417 OFFCURVE",
"275 -507 OFFCURVE",
"433 -507 CURVE SMOOTH"
);
}
);
};
components = (
{
name = I;
},
{
name = J;
transform = "{1, 0, 0, 1, 677, 0}";
}
);
layerId = "D3934E74-9B53-4E98-B19F-CD3DFEE08352";
width = 1394;
}
);
leftKerningGroup = I;
rightKerningGroup = J;
unicode = 0132;
},
{
glyphname = Iacute;
layers = (
{
background = {
anchors = (
{
name = bottom;
position = "{134, 0}";
},
{
name = topcap;
position = "{727, 1643}";
}
);
paths = (
{
closed = 1;
nodes = (
"370 0 LINE",
"388 45 LINE",
"250 83 LINE",
"724 1441 LINE",
"884 1479 LINE",
"900 1523 LINE",
"419 1523 LINE",
"402 1479 LINE",
"540 1441 LINE",
"69 83 LINE",
"-93 45 LINE",
"-110 0 LINE"
);
},
{
closed = 1;
nodes = (
"808 1703 LINE SMOOTH",
"896 1732 OFFCURVE",
"922 1769 OFFCURVE",
"922 1815 CURVE SMOOTH",
"922 1864 OFFCURVE",
"886 1900 OFFCURVE",
"850 1900 CURVE SMOOTH",
"823 1900 OFFCURVE",
"802 1891 OFFCURVE",
"777 1868 CURVE SMOOTH",
"539 1656 LINE",
"555 1614 LINE"
);
}
);
};
components = (
{
name = I;
},
{
name = acute.cap;
transform = "{0.84, 0, 0, 1, 521, 0}";
}
);
layerId = master01;
width = 623;
},
{
background = {
anchors = (
{
name = bottom;
position = "{181, 0}";
},
{
name = topcap;
position = "{735, 1643}";
}
);
paths = (
{
closed = 1;
nodes = (
"465 0 LINE",
"489 68 LINE",
"349 107 LINE",
"806 1416 LINE",
"956 1454 LINE",
"979 1523 LINE",
"407 1523 LINE",
"383 1455 LINE",
"522 1416 LINE",
"66 107 LINE",
"-84 69 LINE",
"-108 0 LINE"
);
},
{
closed = 1;
nodes = (
"919 1692 LINE SMOOTH",
"965 1702 OFFCURVE",
"995 1746 OFFCURVE",
"995 1803 CURVE SMOOTH",
"995 1871 OFFCURVE",
"952 1924 OFFCURVE",
"895 1924 CURVE SMOOTH",
"861 1924 OFFCURVE",
"827 1903 OFFCURVE",
"792 1870 CURVE SMOOTH",
"584 1674 LINE",
"618 1622 LINE"
);
}
);
};
components = (
{
name = I;
},
{
name = acute.cap;
transform = "{0.84, 0, 0, 1, 135, 0}";
}
);
layerId = "D3934E74-9B53-4E98-B19F-CD3DFEE08352";
width = 677;
}
);
leftKerningGroup = I;
leftMetricsKey = I;
rightKerningGroup = I;
rightMetricsKey = I;
unicode = 00CD;
},
{
glyphname = Ibreve;
layers = (
{
background = {
anchors = (
{
name = bottom;
position = "{161, 0}";
},
{
name = topcap;
position = "{754, 1643}";
}
);
paths = (
{
closed = 1;
nodes = (
"397 0 LINE",
"415 45 LINE",
"277 83 LINE",
"751 1441 LINE",
"911 1479 LINE",
"927 1523 LINE",
"446 1523 LINE",
"429 1479 LINE",
"567 1441 LINE",
"96 83 LINE",
"-66 45 LINE",
"-83 0 LINE"
);
},
{
closed = 1;
nodes = (
"781 1625 OFFCURVE",
"911 1655 OFFCURVE",
"1048 1900 CURVE",
"982 1900 LINE",
"913 1809 OFFCURVE",
"839 1771 OFFCURVE",
"766 1771 CURVE SMOOTH",
"679 1771 OFFCURVE",
"637 1818 OFFCURVE",
"635 1900 CURVE",
"576 1900 LINE",
"564 1856 OFFCURVE",
"561 1821 OFFCURVE",
"561 1789 CURVE SMOOTH",
"561 1669 OFFCURVE",
"633 1625 OFFCURVE",
"709 1625 CURVE SMOOTH"
);
}
);
};
components = (
{
name = I;
},
{
alignment = -1;
name = breve.cap;
transform = "{0.84, 0, 0, 1, 543, 0}";
}
);
layerId = master01;
width = 623;
},
{
background = {
anchors = (
{
name = bottom;
position = "{181, 0}";
},
{
name = topcap;
position = "{735, 1643}";
}
);
paths = (
{
closed = 1;
nodes = (
"465 0 LINE",
"489 68 LINE",
"349 107 LINE",
"806 1416 LINE",
"956 1454 LINE",
"979 1523 LINE",
"407 1523 LINE",
"383 1455 LINE",
"522 1416 LINE",
"66 107 LINE",
"-84 69 LINE",
"-108 0 LINE"
);
},
{
closed = 1;
nodes = (
"883 1622 OFFCURVE",
"1017 1733 OFFCURVE",
"1124 1935 CURVE",
"1037 1935 LINE",
"972 1841 OFFCURVE",
"897 1795 OFFCURVE",
"808 1795 CURVE SMOOTH",
"719 1795 OFFCURVE",
"670 1842 OFFCURVE",
"677 1935 CURVE",
"598 1935 LINE",
"584 1886 OFFCURVE",
"579 1857 OFFCURVE",
"579 1823 CURVE SMOOTH",
"579 1698 OFFCURVE",
"645 1622 OFFCURVE",
"752 1622 CURVE SMOOTH"
);
}
);
};
components = (
{
name = I;
},
{
name = breve.cap;
transform = "{0.84, 0, 0, 1, 81, 0}";
}
);
layerId = "D3934E74-9B53-4E98-B19F-CD3DFEE08352";
width = 677;
}
);
leftKerningGroup = I;
leftMetricsKey = I;
rightKerningGroup = I;
rightMetricsKey = I;
unicode = 012C;
},
{
glyphname = Icircumflex;
layers = (
{
background = {
anchors = (
{
name = bottom;
position = "{140, 0}";
},
{
name = topcap;
position = "{733, 1643}";
}
);
paths = (
{
closed = 1;
nodes = (
"376 0 LINE",
"394 45 LINE",
"256 83 LINE",
"730 1441 LINE",
"890 1479 LINE",
"906 1523 LINE",
"425 1523 LINE",
"408 1479 LINE",
"546 1441 LINE",
"75 83 LINE",
"-87 45 LINE",
"-104 0 LINE"
);
},
{
closed = 1;
nodes = (
"771 1757 LINE",
"922 1622 LINE",
"965 1656 LINE",
"876 1847 LINE SMOOTH",
"857 1885 OFFCURVE",
"841 1900 OFFCURVE",
"803 1900 CURVE SMOOTH",
"762 1900 OFFCURVE",
"736 1880 OFFCURVE",
"696 1847 CURVE SMOOTH",
"478 1656 LINE",
"497 1622 LINE"
);
}
);
};
components = (
{
name = I;
},
{
name = circumflex.cap;
transform = "{0.84, 0, 0, 1, 454, 0}";
}
);
layerId = master01;
width = 623;
},
{
background = {
anchors = (
{
name = bottom;
position = "{197, 0}";
},
{
name = topcap;
position = "{751, 1643}";
}
);
paths = (
{
closed = 1;
nodes = (
"481 0 LINE",
"505 68 LINE",
"365 107 LINE",
"822 1416 LINE",
"972 1454 LINE",
"995 1523 LINE",
"423 1523 LINE",
"399 1455 LINE",
"538 1416 LINE",
"82 107 LINE",
"-68 69 LINE",
"-92 0 LINE"
);
},
{
closed = 1;
nodes = (
"788 1747 LINE",
"957 1622 LINE",
"1004 1659 LINE",
"913 1865 LINE SMOOTH",
"890 1915 OFFCURVE",
"868 1935 OFFCURVE",
"826 1935 CURVE SMOOTH",
"788 1935 OFFCURVE",
"756 1918 OFFCURVE",
"698 1865 CURVE SMOOTH",
"471 1657 LINE",
"492 1622 LINE"
);
}
);
};
components = (
{
name = I;
},
{
name = circumflex.cap;
transform = "{0.84, 0, 0, 1, 11, 0}";
}
);
layerId = "D3934E74-9B53-4E98-B19F-CD3DFEE08352";
width = 677;
}
);
leftKerningGroup = I;
leftMetricsKey = I;
rightKerningGroup = I;
rightMetricsKey = I;
unicode = 00CE;
},
{
glyphname = Idieresis;
layers = (
{
background = {
anchors = (
{
name = bottom;
position = "{242, 0}";
},
{
name = topcap;
position = "{835, 1643}";
}
);
paths = (
{
closed = 1;
nodes = (
"478 0 LINE",
"496 45 LINE",
"358 83 LINE",
"832 1441 LINE",
"992 1479 LINE",
"1008 1523 LINE",
"527 1523 LINE",
"510 1479 LINE",
"648 1441 LINE",
"177 83 LINE",
"15 45 LINE",
"-2 0 LINE"
);
},
{
closed = 1;
nodes = (
"1028 1680 OFFCURVE",
"1083 1740 OFFCURVE",
"1083 1802 CURVE SMOOTH",
"1083 1859 OFFCURVE",
"1038 1900 OFFCURVE",
"989 1900 CURVE SMOOTH",
"932 1900 OFFCURVE",
"880 1845 OFFCURVE",
"880 1781 CURVE SMOOTH",
"880 1719 OFFCURVE",
"916 1680 OFFCURVE",
"971 1680 CURVE SMOOTH"
);
},
{
closed = 1;
nodes = (
"738 1680 OFFCURVE",
"792 1740 OFFCURVE",
"792 1802 CURVE SMOOTH",
"792 1859 OFFCURVE",
"748 1900 OFFCURVE",
"698 1900 CURVE SMOOTH",
"641 1900 OFFCURVE",
"591 1845 OFFCURVE",
"591 1781 CURVE SMOOTH",
"591 1719 OFFCURVE",
"625 1680 OFFCURVE",
"681 1680 CURVE SMOOTH"
);
}
);
};
components = (
{
name = I;
},
{
name = dieresis.cap;
transform = "{0.84, 0, 0, 1, 465, 0}";
}
);
layerId = master01;
width = 623;
},
{
background = {
anchors = (
{
name = bottom;
position = "{239, 0}";
},
{
name = topcap;
position = "{793, 1643}";
}
);
paths = (
{
closed = 1;
nodes = (
"523 0 LINE",
"547 68 LINE",
"407 107 LINE",
"864 1416 LINE",
"1014 1454 LINE",
"1037 1523 LINE",
"465 1523 LINE",
"441 1455 LINE",
"580 1416 LINE",
"124 107 LINE",
"-26 69 LINE",
"-50 0 LINE"
);
},
{
closed = 1;
nodes = (
"1063 1680 OFFCURVE",
"1124 1749 OFFCURVE",
"1124 1822 CURVE SMOOTH",
"1124 1886 OFFCURVE",
"1074 1933 OFFCURVE",
"1017 1933 CURVE SMOOTH",
"952 1933 OFFCURVE",
"893 1870 OFFCURVE",
"893 1795 CURVE SMOOTH",
"893 1727 OFFCURVE",
"933 1680 OFFCURVE",
"998 1680 CURVE SMOOTH"
);
},
{
closed = 1;
nodes = (
"731 1680 OFFCURVE",
"793 1749 OFFCURVE",
"793 1822 CURVE SMOOTH",
"793 1886 OFFCURVE",
"742 1933 OFFCURVE",
"685 1933 CURVE SMOOTH",
"621 1933 OFFCURVE",
"562 1870 OFFCURVE",
"562 1795 CURVE SMOOTH",
"562 1727 OFFCURVE",
"602 1680 OFFCURVE",
"666 1680 CURVE SMOOTH"
);
}
);
};
components = (
{
name = I;
},
{
name = dieresis.cap;
transform = "{0.84, 0, 0, 1, 3, 0}";
}
);
layerId = "D3934E74-9B53-4E98-B19F-CD3DFEE08352";
width = 677;
}
);
leftKerningGroup = I;
leftMetricsKey = I;
rightKerningGroup = I;
rightMetricsKey = I;
unicode = 00CF;
},
{
glyphname = Idotaccent;
layers = (
{
background = {
anchors = (
{
name = bottom;
position = "{134, 0}";
},
{
name = topcap;
position = "{727, 1643}";
}
);
paths = (
{
closed = 1;
nodes = (
"370 0 LINE",
"388 45 LINE",
"250 83 LINE",
"724 1441 LINE",
"884 1479 LINE",
"900 1523 LINE",
"419 1523 LINE",
"402 1479 LINE",
"540 1441 LINE",
"69 83 LINE",
"-93 45 LINE",
"-110 0 LINE"
);
},
{
closed = 1;
nodes = (
"790 1654 OFFCURVE",
"851 1719 OFFCURVE",
"851 1792 CURVE SMOOTH",
"851 1852 OFFCURVE",
"801 1900 OFFCURVE",
"746 1900 CURVE SMOOTH",
"682 1900 OFFCURVE",
"625 1839 OFFCURVE",
"625 1765 CURVE SMOOTH",
"625 1698 OFFCURVE",
"664 1654 OFFCURVE",
"727 1654 CURVE SMOOTH"
);
}
);
};
components = (
{
name = I;
},
{
name = dotaccent.cap;
transform = "{0.84, 0, 0, 1, 607, 0}";
}
);
layerId = master01;
width = 623;
},
{
background = {
anchors = (
{
name = bottom;
position = "{181, 0}";
},
{
name = topcap;
position = "{735, 1643}";
}
);
paths = (
{
closed = 1;
nodes = (
"465 0 LINE",
"489 68 LINE",
"349 107 LINE",
"806 1416 LINE",
"956 1454 LINE",
"979 1523 LINE",
"407 1523 LINE",
"383 1455 LINE",
"522 1416 LINE",
"66 107 LINE",
"-84 69 LINE",
"-108 0 LINE"
);
},
{
closed = 1;
nodes = (
"853 1654 OFFCURVE",
"921 1728 OFFCURVE",
"921 1810 CURVE SMOOTH",
"921 1880 OFFCURVE",
"866 1932 OFFCURVE",
"802 1932 CURVE SMOOTH",
"731 1932 OFFCURVE",
"667 1863 OFFCURVE",
"667 1781 CURVE SMOOTH",
"667 1705 OFFCURVE",
"710 1654 OFFCURVE",
"781 1654 CURVE SMOOTH"
);
}
);
};
components = (
{
name = I;
},
{
name = dotaccent.cap;
transform = "{0.84, 0, 0, 1, 187, 0}";
}
);
layerId = "D3934E74-9B53-4E98-B19F-CD3DFEE08352";
width = 677;
}
);
leftKerningGroup = I;
leftMetricsKey = I;
rightKerningGroup = I;
rightMetricsKey = I;
unicode = 0130;
},
{
glyphname = Idotbelow;
layers = (
{
background = {
anchors = (
{
name = bottom;
position = "{134, 0}";
},
{
name = topcap;
position = "{727, 1643}";
}
);
paths = (
{
closed = 1;
nodes = (
"370 0 LINE",
"388 45 LINE",
"250 83 LINE",
"724 1441 LINE",
"884 1479 LINE",
"900 1523 LINE",
"419 1523 LINE",
"402 1479 LINE",
"540 1441 LINE",
"69 83 LINE",
"-93 45 LINE",
"-110 0 LINE"
);
},
{
closed = 1;
nodes = (
"99 -507 OFFCURVE",
"160 -440 OFFCURVE",
"160 -367 CURVE SMOOTH",
"160 -307 OFFCURVE",
"110 -260 OFFCURVE",
"55 -260 CURVE SMOOTH",
"-9 -260 OFFCURVE",
"-66 -320 OFFCURVE",
"-66 -394 CURVE SMOOTH",
"-66 -461 OFFCURVE",
"-27 -507 OFFCURVE",
"36 -507 CURVE SMOOTH"
);
}
);
};
components = (
{
name = I;
},
{
name = dotbelow;
transform = "{1, 0, 0, 1, -84, 0}";
}
);
layerId = master01;
width = 623;
},
{
background = {
anchors = (
{
name = bottom;
position = "{181, 0}";
},
{
name = topcap;
position = "{735, 1643}";
}
);
paths = (
{
closed = 1;
nodes = (
"465 0 LINE",
"489 68 LINE",
"349 107 LINE",
"806 1416 LINE",
"956 1454 LINE",
"979 1523 LINE",
"407 1523 LINE",
"383 1455 LINE",
"522 1416 LINE",
"66 107 LINE",
"-84 69 LINE",
"-108 0 LINE"
);
},
{
closed = 1;
nodes = (
"144 -426 OFFCURVE",
"212 -351 OFFCURVE",
"212 -269 CURVE SMOOTH",
"212 -199 OFFCURVE",
"157 -147 OFFCURVE",
"93 -147 CURVE SMOOTH",
"22 -147 OFFCURVE",
"-42 -216 OFFCURVE",
"-42 -298 CURVE SMOOTH",
"-42 -374 OFFCURVE",
"1 -426 OFFCURVE",
"72 -426 CURVE SMOOTH"
);
}
);
};
components = (
{
name = I;
},
{
name = dotbelow;
transform = "{1, 0, 0, 1, 187, 0}";
}
);
layerId = "D3934E74-9B53-4E98-B19F-CD3DFEE08352";
width = 677;
}
);
leftKerningGroup = I;
leftMetricsKey = I;
rightKerningGroup = I;
rightMetricsKey = I;
unicode = 1ECA;
},
{
glyphname = Igrave;
layers = (
{
background = {
anchors = (
{
name = bottom;
position = "{162, 0}";
},
{
name = topcap;
position = "{755, 1643}";
}
);
paths = (
{
closed = 1;
nodes = (
"398 0 LINE",
"416 45 LINE",
"278 83 LINE",
"752 1441 LINE",
"912 1479 LINE",
"928 1523 LINE",
"447 1523 LINE",
"430 1479 LINE",
"568 1441 LINE",
"97 83 LINE",
"-65 45 LINE",
"-82 0 LINE"
);
},
{
closed = 1;
nodes = (
"921 1656 LINE",
"747 1837 LINE SMOOTH",
"709 1876 OFFCURVE",
"682 1900 OFFCURVE",
"644 1900 CURVE SMOOTH",
"593 1900 OFFCURVE",
"561 1862 OFFCURVE",
"561 1804 CURVE SMOOTH",
"561 1757 OFFCURVE",
"581 1721 OFFCURVE",
"621 1708 CURVE SMOOTH",
"888 1614 LINE"
);
}
);
};
components = (
{
name = I;
},
{
name = grave.cap;
transform = "{0.84, 0, 0, 1, 515, 0}";
}
);
layerId = master01;
width = 623;
},
{
background = {
anchors = (
{
name = bottom;
position = "{181, 0}";
},
{
name = topcap;
position = "{735, 1643}";
}
);
paths = (
{
closed = 1;
nodes = (
"465 0 LINE",
"489 68 LINE",
"349 107 LINE",
"806 1416 LINE",
"956 1454 LINE",
"979 1523 LINE",
"407 1523 LINE",
"383 1455 LINE",
"522 1416 LINE",
"66 107 LINE",
"-84 69 LINE",
"-108 0 LINE"
);
},
{
closed = 1;
nodes = (
"972 1674 LINE",
"784 1870 LINE SMOOTH",
"750 1906 OFFCURVE",
"715 1924 OFFCURVE",
"682 1924 CURVE SMOOTH",
"624 1924 OFFCURVE",
"581 1871 OFFCURVE",
"581 1803 CURVE SMOOTH",
"581 1746 OFFCURVE",
"611 1703 OFFCURVE",
"657 1692 CURVE SMOOTH",
"939 1622 LINE"
);
}
);
};
components = (
{
name = I;
},
{
name = grave.cap;
transform = "{0.84, 0, 0, 1, 77, 0}";
}
);
layerId = "D3934E74-9B53-4E98-B19F-CD3DFEE08352";
width = 677;
}
);
leftKerningGroup = I;
leftMetricsKey = I;
rightKerningGroup = I;
rightMetricsKey = I;
unicode = 00CC;
},
{
glyphname = Imacron;
layers = (
{
background = {
anchors = (
{
name = bottom;
position = "{157, 0}";
},
{
name = topcap;
position = "{750, 1643}";
}
);
paths = (
{
closed = 1;
nodes = (
"393 0 LINE",
"411 45 LINE",
"273 83 LINE",
"747 1441 LINE",
"907 1479 LINE",
"923 1523 LINE",
"442 1523 LINE",
"425 1479 LINE",
"563 1441 LINE",
"92 83 LINE",
"-70 45 LINE",
"-87 0 LINE"
);
},
{
closed = 1;
nodes = (
"979 1696 LINE",
"1028 1837 LINE",
"550 1837 LINE",
"505 1696 LINE"
);
}
);
};
components = (
{
name = I;
},
{
alignment = -1;
name = macron.cap;
transform = "{0.84, 0, 0, 1, 487, 0}";
}
);
layerId = master01;
width = 623;
},
{
background = {
anchors = (
{
name = bottom;
position = "{223, 0}";
},
{
name = topcap;
position = "{777, 1643}";
}
);
paths = (
{
closed = 1;
nodes = (
"507 0 LINE",
"531 68 LINE",
"391 107 LINE",
"848 1416 LINE",
"998 1454 LINE",
"1021 1523 LINE",
"449 1523 LINE",
"425 1455 LINE",
"564 1416 LINE",
"108 107 LINE",
"-42 69 LINE",
"-66 0 LINE"
);
},
{
closed = 1;
nodes = (
"1059 1674 LINE",
"1125 1865 LINE",
"571 1865 LINE",
"503 1674 LINE"
);
}
);
};
components = (
{
name = I;
},
{
name = macron.cap;
transform = "{0.84, 0, 0, 1, 12, 0}";
}
);
layerId = "D3934E74-9B53-4E98-B19F-CD3DFEE08352";
width = 677;
}
);
leftKerningGroup = I;
leftMetricsKey = I;
rightKerningGroup = I;
rightMetricsKey = I;
unicode = 012A;
},
{
glyphname = Iogonek;
layers = (
{
background = {
anchors = (
{
name = bottom;
position = "{134, 0}";
},
{
name = topcap;
position = "{727, 1643}";
}
);
paths = (
{
closed = 1;
nodes = (
"370 0 LINE",
"388 45 LINE",
"250 83 LINE",
"724 1441 LINE",
"884 1479 LINE",
"900 1523 LINE",
"419 1523 LINE",
"402 1479 LINE",
"540 1441 LINE",
"69 83 LINE",
"-93 45 LINE",
"-110 0 LINE"
);
},
{
closed = 1;
nodes = (
"172 -507 OFFCURVE",
"250 -466 OFFCURVE",
"325 -392 CURVE {name = hr00;}",
"316 -357 LINE",
"265 -388 OFFCURVE",
"238 -398 OFFCURVE",
"208 -398 CURVE SMOOTH",
"166 -398 OFFCURVE",
"147 -380 OFFCURVE",
"147 -341 CURVE SMOOTH",
"147 -258 OFFCURVE",
"236 -127 OFFCURVE",
"371 0 CURVE",
"308 0 LINE",
"120 -117 OFFCURVE",
"-13 -281 OFFCURVE",
"-13 -404 CURVE SMOOTH",
"-13 -471 OFFCURVE",
"26 -507 OFFCURVE",
"98 -507 CURVE SMOOTH"
);
}
);
};
components = (
{
name = I;
},
{
alignment = -1;
name = ogonek;
transform = "{0.84, 0, 0, 1, -31, 0}";
}
);
layerId = master01;
width = 741;
},
{
background = {
anchors = (
{
name = bottom;
position = "{181, 0}";
},
{
name = topcap;
position = "{735, 1643}";
}
);
paths = (
{
closed = 1;
nodes = (
"465 0 LINE",
"489 68 LINE",
"349 107 LINE",
"806 1416 LINE",
"956 1454 LINE",
"979 1523 LINE",
"407 1523 LINE",
"383 1455 LINE",
"522 1416 LINE",
"66 107 LINE",
"-84 69 LINE",
"-108 0 LINE"
);
},
{
closed = 1;
nodes = (
"249 -507 OFFCURVE",
"342 -459 OFFCURVE",
"433 -368 CURVE {name = hr00;}",
"424 -321 LINE",
"370 -354 OFFCURVE",
"338 -365 OFFCURVE",
"307 -365 CURVE SMOOTH",
"256 -365 OFFCURVE",
"231 -334 OFFCURVE",
"231 -289 CURVE SMOOTH",
"231 -208 OFFCURVE",
"313 -97 OFFCURVE",
"464 0 CURVE",
"368 0 LINE",
"120 -117 OFFCURVE",
"27 -258 OFFCURVE",
"27 -364 CURVE SMOOTH",
"27 -444 OFFCURVE",
"81 -507 OFFCURVE",
"171 -507 CURVE SMOOTH"
);
}
);
};
components = (
{
name = I;
},
{
alignment = -1;
name = ogonek;
transform = "{0.84, 0, 0, 1, 313, 0}";
}
);
layerId = "D3934E74-9B53-4E98-B19F-CD3DFEE08352";
width = 798;
}
);
leftKerningGroup = I;
leftMetricsKey = I;
rightKerningGroup = I;
rightMetricsKey = I;
unicode = 012E;
},
{
glyphname = Itilde;
layers = (
{
background = {
anchors = (
{
name = bottom;
position = "{218, 0}";
},
{
name = topcap;
position = "{811, 1643}";
}
);
paths = (
{
closed = 1;
nodes = (
"454 0 LINE",
"472 45 LINE",
"334 83 LINE",
"808 1441 LINE",
"968 1479 LINE",
"984 1523 LINE",
"503 1523 LINE",
"486 1479 LINE",
"624 1441 LINE",
"153 83 LINE",
"-9 45 LINE",
"-26 0 LINE"
);
},
{
closed = 1;
nodes = (
"969 1654 OFFCURVE",
"1054 1750 OFFCURVE",
"1091 1886 CURVE",
"1052 1886 LINE",
"1030 1837 OFFCURVE",
"996 1810 OFFCURVE",
"949 1810 CURVE SMOOTH",
"875 1810 OFFCURVE",
"796 1880 OFFCURVE",
"720 1880 CURVE SMOOTH",
"639 1880 OFFCURVE",
"554 1787 OFFCURVE",
"523 1655 CURVE",
"557 1655 LINE",
"575 1703 OFFCURVE",
"613 1730 OFFCURVE",
"660 1730 CURVE SMOOTH",
"739 1730 OFFCURVE",
"809 1654 OFFCURVE",
"888 1654 CURVE SMOOTH"
);
}
);
};
components = (
{
name = I;
},
{
name = tilde.cap;
transform = "{0.84, 0, 0, 1, 421, 0}";
}
);
layerId = master01;
width = 623;
},
{
background = {
anchors = (
{
name = bottom;
position = "{181, 0}";
},
{
name = topcap;
position = "{735, 1643}";
}
);
paths = (
{
closed = 1;
nodes = (
"465 0 LINE",
"489 68 LINE",
"349 107 LINE",
"806 1416 LINE",
"956 1454 LINE",
"979 1523 LINE",
"407 1523 LINE",
"383 1455 LINE",
"522 1416 LINE",
"66 107 LINE",
"-84 69 LINE",
"-108 0 LINE"
);
},
{
closed = 1;
nodes = (
"997 1631 OFFCURVE",
"1099 1748 OFFCURVE",
"1145 1910 CURVE",
"1078 1910 LINE",
"1052 1852 OFFCURVE",
"1011 1821 OFFCURVE",
"956 1821 CURVE SMOOTH",
"866 1821 OFFCURVE",
"810 1903 OFFCURVE",
"714 1903 CURVE SMOOTH",
"601 1903 OFFCURVE",
"500 1792 OFFCURVE",
"462 1633 CURVE",
"523 1633 LINE",
"545 1689 OFFCURVE",
"590 1723 OFFCURVE",
"647 1723 CURVE SMOOTH",
"741 1723 OFFCURVE",
"786 1631 OFFCURVE",
"886 1631 CURVE SMOOTH"
);
}
);
};
components = (
{
name = I;
},
{
name = tilde.cap;
transform = "{0.84, 0, 0, 1, 24, 0}";
}
);
layerId = "D3934E74-9B53-4E98-B19F-CD3DFEE08352";
width = 677;
}
);
leftKerningGroup = I;
leftMetricsKey = I;
rightKerningGroup = I;
rightMetricsKey = I;
unicode = 0128;
},
{
glyphname = J;
layers = (
{
anchors = (
{
name = topcap;
position = "{715, 1643}";
}
);
background = {
anchors = (
{
name = topcap;
position = "{715, 1643}";
}
);
paths = (
{
closed = 1;
nodes = (
"-63 -507 OFFCURVE",
"110 -334 OFFCURVE",
"207 -54 CURVE SMOOTH",
"729 1441 LINE",
"889 1479 LINE",
"906 1523 LINE",
"423 1523 LINE",
"407 1479 LINE",
"545 1441 LINE",
"21 -54 LINE SMOOTH",
"-81 -341 OFFCURVE",
"-125 -427 OFFCURVE",
"-197 -427 CURVE SMOOTH",
"-306 -427 OFFCURVE",
"-240 -252 OFFCURVE",
"-358 -252 CURVE SMOOTH",
"-402 -252 OFFCURVE",
"-443 -287 OFFCURVE",
"-443 -351 CURVE SMOOTH",
"-443 -435 OFFCURVE",
"-366 -507 OFFCURVE",
"-244 -507 CURVE SMOOTH"
);
}
);
};
layerId = master01;
paths = (
{
closed = 1;
nodes = (
"-63 -507 OFFCURVE",
"110 -334 OFFCURVE",
"207 -54 CURVE SMOOTH",
"729 1441 LINE",
"889 1479 LINE",
"906 1523 LINE",
"423 1523 LINE",
"407 1479 LINE",
"545 1441 LINE",
"21 -54 LINE SMOOTH",
"-81 -341 OFFCURVE",
"-125 -427 OFFCURVE",
"-197 -427 CURVE SMOOTH",
"-306 -427 OFFCURVE",
"-240 -252 OFFCURVE",
"-358 -252 CURVE SMOOTH",
"-402 -252 OFFCURVE",
"-443 -287 OFFCURVE",
"-443 -351 CURVE SMOOTH",
"-443 -435 OFFCURVE",
"-366 -507 OFFCURVE",
"-244 -507 CURVE SMOOTH"
);
}
);
width = 644;
},
{
anchors = (
{
name = topcap;
position = "{752, 1643}";
}
);
background = {
anchors = (
{
name = topcap;
position = "{752, 1643}";
}
);
paths = (
{
closed = 1;
nodes = (
"0 -507 OFFCURVE",
"218 -290 OFFCURVE",
"340 62 CURVE SMOOTH",
"812 1413 LINE",
"964 1451 LINE",
"990 1523 LINE",
"428 1523 LINE",
"402 1451 LINE",
"529 1412 LINE",
"30 -17 LINE SMOOTH",
"-71 -309 OFFCURVE",
"-127 -400 OFFCURVE",
"-202 -400 CURVE SMOOTH",
"-324 -400 OFFCURVE",
"-266 -153 OFFCURVE",
"-414 -153 CURVE SMOOTH",
"-486 -153 OFFCURVE",
"-535 -211 OFFCURVE",
"-535 -288 CURVE SMOOTH",
"-535 -417 OFFCURVE",
"-402 -507 OFFCURVE",
"-244 -507 CURVE SMOOTH"
);
}
);
};
layerId = "D3934E74-9B53-4E98-B19F-CD3DFEE08352";
paths = (
{
closed = 1;
nodes = (
"0 -507 OFFCURVE",
"218 -290 OFFCURVE",
"340 62 CURVE SMOOTH",
"812 1413 LINE",
"964 1451 LINE",
"990 1523 LINE",
"428 1523 LINE",
"402 1451 LINE",
"529 1412 LINE",
"30 -17 LINE SMOOTH",
"-71 -309 OFFCURVE",
"-127 -400 OFFCURVE",
"-202 -400 CURVE SMOOTH",
"-324 -400 OFFCURVE",
"-266 -153 OFFCURVE",
"-414 -153 CURVE SMOOTH",
"-486 -153 OFFCURVE",
"-535 -211 OFFCURVE",
"-535 -288 CURVE SMOOTH",
"-535 -417 OFFCURVE",
"-402 -507 OFFCURVE",
"-244 -507 CURVE SMOOTH"
);
}
);
width = 717;
}
);
leftKerningGroup = J;
rightKerningGroup = J;
unicode = 004A;
},
{
glyphname = Jcircumflex;
layers = (
{
background = {
anchors = (
{
name = topcap;
position = "{715, 1643}";
}
);
paths = (
{
closed = 1;
nodes = (
"-63 -507 OFFCURVE",
"110 -334 OFFCURVE",
"207 -54 CURVE SMOOTH",
"729 1441 LINE",
"889 1479 LINE",
"906 1523 LINE",
"423 1523 LINE",
"407 1479 LINE",
"545 1441 LINE",
"21 -54 LINE SMOOTH",
"-81 -341 OFFCURVE",
"-125 -427 OFFCURVE",
"-197 -427 CURVE SMOOTH",
"-306 -427 OFFCURVE",
"-240 -252 OFFCURVE",
"-358 -252 CURVE SMOOTH",
"-402 -252 OFFCURVE",
"-443 -287 OFFCURVE",
"-443 -351 CURVE SMOOTH",
"-443 -435 OFFCURVE",
"-366 -507 OFFCURVE",
"-244 -507 CURVE SMOOTH"
);
},
{
closed = 1;
nodes = (
"723 1757 LINE",
"874 1622 LINE",
"917 1656 LINE",
"828 1847 LINE SMOOTH",
"809 1885 OFFCURVE",
"793 1900 OFFCURVE",
"755 1900 CURVE SMOOTH",
"714 1900 OFFCURVE",
"688 1880 OFFCURVE",
"648 1847 CURVE SMOOTH",
"430 1656 LINE",
"449 1622 LINE"
);
}
);
};
components = (
{
alignment = -1;
name = J;
},
{
alignment = -1;
name = circumflex.cap;
transform = "{0.84, 0, 0, 1, 412, 0}";
}
);
layerId = master01;
width = 632;
},
{
background = {
anchors = (
{
name = topcap;
position = "{752, 1643}";
}
);
paths = (
{
closed = 1;
nodes = (
"0 -507 OFFCURVE",
"218 -290 OFFCURVE",
"340 62 CURVE SMOOTH",
"812 1413 LINE",
"964 1451 LINE",
"990 1523 LINE",
"428 1523 LINE",
"402 1451 LINE",
"529 1412 LINE",
"30 -17 LINE SMOOTH",
"-71 -309 OFFCURVE",
"-127 -400 OFFCURVE",
"-202 -400 CURVE SMOOTH",
"-324 -400 OFFCURVE",
"-266 -153 OFFCURVE",
"-414 -153 CURVE SMOOTH",
"-486 -153 OFFCURVE",
"-535 -211 OFFCURVE",
"-535 -288 CURVE SMOOTH",
"-535 -417 OFFCURVE",
"-402 -507 OFFCURVE",
"-244 -507 CURVE SMOOTH"
);
},
{
closed = 1;
nodes = (
"789 1747 LINE",
"958 1622 LINE",
"1005 1659 LINE",
"914 1865 LINE SMOOTH",
"891 1915 OFFCURVE",
"869 1935 OFFCURVE",
"827 1935 CURVE SMOOTH",
"789 1935 OFFCURVE",
"757 1918 OFFCURVE",
"699 1865 CURVE SMOOTH",
"472 1657 LINE",
"493 1622 LINE"
);
}
);
};
components = (
{
name = J;
},
{
name = circumflex.cap;
transform = "{0.84, 0, 0, 1, 28, 0}";
}
);
layerId = "D3934E74-9B53-4E98-B19F-CD3DFEE08352";
width = 717;
}
);
leftKerningGroup = J;
rightKerningGroup = J;
unicode = 0134;
},
{
glyphname = K;
layers = (
{
anchors = (
{
name = bottom;
position = "{470, 0}";
}
);
background = {
anchors = (
{
name = bottom;
position = "{470, 0}";
}
);
paths = (
{
closed = 1;
nodes = (
"716 1443 LINE",
"851 1479 LINE",
"868 1523 LINE",
"419 1523 LINE",
"404 1479 LINE",
"533 1441 LINE",
"58 83 LINE",
"-89 45 LINE",
"-104 0 LINE",
"423 0 LINE",
"438 45 LINE",
"241 83 LINE"
);
},
{
closed = 1;
nodes = (
"556 793 LINE",
"790 0 LINE",
"1082 0 LINE",
"1094 45 LINE",
"947 83 LINE",
"681 924 LINE"
);
},
{
closed = 1;
nodes = (
"375 588 LINE",
"1201 1365 LINE SMOOTH",
"1273 1432 OFFCURVE",
"1324 1461 OFFCURVE",
"1421 1468 CURVE",
"1445 1523 LINE",
"992 1523 LINE",
"978 1479 LINE",
"1058 1474 OFFCURVE",
"1093 1445 OFFCURVE",
"1093 1406 CURVE SMOOTH",
"1093 1377 OFFCURVE",
"1069 1344 OFFCURVE",
"1018 1297 CURVE SMOOTH",
"438 750 LINE"
);
}
);
};
layerId = master01;
paths = (
{
closed = 1;
nodes = (
"716 1443 LINE",
"851 1479 LINE",
"868 1523 LINE",
"419 1523 LINE",
"404 1479 LINE",
"533 1441 LINE",
"58 83 LINE",
"-89 45 LINE",
"-104 0 LINE",
"423 0 LINE",
"438 45 LINE",
"241 83 LINE"
);
},
{
closed = 1;
nodes = (
"556 793 LINE",
"790 0 LINE",
"1082 0 LINE",
"1094 45 LINE",
"947 83 LINE",
"681 924 LINE"
);
},
{
closed = 1;
nodes = (
"375 588 LINE",
"1201 1365 LINE SMOOTH",
"1273 1432 OFFCURVE",
"1324 1461 OFFCURVE",
"1421 1468 CURVE",
"1445 1523 LINE",
"992 1523 LINE",
"978 1479 LINE",
"1058 1474 OFFCURVE",
"1093 1445 OFFCURVE",
"1093 1406 CURVE SMOOTH",
"1093 1377 OFFCURVE",
"1069 1344 OFFCURVE",
"1018 1297 CURVE SMOOTH",
"438 750 LINE"
);
}
);
width = 1236;
},
{
anchors = (
{
name = bottom;
position = "{653, 0}";
}
);
background = {
anchors = (
{
name = bottom;
position = "{653, 0}";
}
);
paths = (
{
closed = 1;
nodes = (
"786 1416 LINE",
"937 1455 LINE",
"960 1523 LINE",
"407 1523 LINE",
"383 1455 LINE",
"522 1416 LINE",
"64 106 LINE",
"-86 68 LINE",
"-110 0 LINE",
"484 0 LINE",
"508 68 LINE",
"328 106 LINE"
);
},
{
closed = 1;
nodes = (
"639 765 LINE",
"810 0 LINE",
"1177 0 LINE",
"1201 68 LINE",
"1060 106 LINE",
"832 962 LINE"
);
},
{
closed = 1;
nodes = (
"486 603 LINE",
"1313 1328 LINE SMOOTH",
"1430 1423 OFFCURVE",
"1467 1441 OFFCURVE",
"1598 1455 CURVE",
"1621 1523 LINE",
"1117 1523 LINE",
"1094 1455 LINE",
"1166 1450 OFFCURVE",
"1203 1431 OFFCURVE",
"1203 1403 CURVE SMOOTH",
"1203 1383 OFFCURVE",
"1188 1360 OFFCURVE",
"1157 1333 CURVE SMOOTH",
"528 778 LINE"
);
}
);
};
layerId = "D3934E74-9B53-4E98-B19F-CD3DFEE08352";
paths = (
{
closed = 1;
nodes = (
"786 1416 LINE",
"937 1455 LINE",
"960 1523 LINE",
"407 1523 LINE",
"383 1455 LINE",
"522 1416 LINE",
"64 106 LINE",
"-86 68 LINE",
"-110 0 LINE",
"484 0 LINE",
"508 68 LINE",
"328 106 LINE"
);
},
{
closed = 1;
nodes = (
"639 765 LINE",
"810 0 LINE",
"1177 0 LINE",
"1201 68 LINE",
"1060 106 LINE",
"832 962 LINE"
);
},
{
closed = 1;
nodes = (
"486 603 LINE",
"1313 1328 LINE SMOOTH",
"1430 1423 OFFCURVE",
"1467 1441 OFFCURVE",
"1598 1455 CURVE",
"1621 1523 LINE",
"1117 1523 LINE",
"1094 1455 LINE",
"1166 1450 OFFCURVE",
"1203 1431 OFFCURVE",
"1203 1403 CURVE SMOOTH",
"1203 1383 OFFCURVE",
"1188 1360 OFFCURVE",
"1157 1333 CURVE SMOOTH",
"528 778 LINE"
);
}
);
width = 1322;
}
);
leftKerningGroup = I;
leftMetricsKey = I;
rightKerningGroup = K;
unicode = 004B;
},
{
glyphname = Kcommaaccent;
layers = (
{
background = {
anchors = (
{
name = bottom;
position = "{468, 0}";
}
);
paths = (
{
closed = 1;
nodes = (
"714 1443 LINE",
"849 1479 LINE",
"866 1523 LINE",
"417 1523 LINE",
"402 1479 LINE",
"531 1441 LINE",
"56 83 LINE",
"-91 45 LINE",
"-106 0 LINE",
"421 0 LINE",
"436 45 LINE",
"239 83 LINE"
);
},
{
closed = 1;
nodes = (
"554 793 LINE",
"788 0 LINE",
"1080 0 LINE",
"1092 45 LINE",
"945 83 LINE",
"679 924 LINE"
);
},
{
closed = 1;
nodes = (
"373 588 LINE",
"1199 1365 LINE SMOOTH",
"1271 1432 OFFCURVE",
"1322 1461 OFFCURVE",
"1419 1468 CURVE",
"1443 1523 LINE",
"990 1523 LINE",
"976 1479 LINE",
"1056 1474 OFFCURVE",
"1091 1445 OFFCURVE",
"1091 1406 CURVE SMOOTH",
"1091 1377 OFFCURVE",
"1067 1344 OFFCURVE",
"1016 1297 CURVE SMOOTH",
"436 750 LINE"
);
},
{
closed = 1;
nodes = (
"531 -506 OFFCURVE",
"605 -400 OFFCURVE",
"605 -300 CURVE SMOOTH",
"605 -229 OFFCURVE",
"576 -190 OFFCURVE",
"522 -190 CURVE SMOOTH",
"448 -190 OFFCURVE",
"413 -237 OFFCURVE",
"413 -309 CURVE SMOOTH",
"413 -358 OFFCURVE",
"429 -388 OFFCURVE",
"460 -397 CURVE SMOOTH",
"492 -406 OFFCURVE",
"498 -407 OFFCURVE",
"498 -421 CURVE SMOOTH",
"498 -452 OFFCURVE",
"444 -514 OFFCURVE",
"375 -554 CURVE",
"400 -590 LINE"
);
}
);
};
components = (
{
name = K;
},
{
alignment = -1;
name = commaaccent;
transform = "{0.84, 0, 0, 1, 405, 21}";
}
);
layerId = master01;
width = 1236;
},
{
background = {
anchors = (
{
name = bottom;
position = "{653, 0}";
}
);
paths = (
{
closed = 1;
nodes = (
"786 1416 LINE",
"937 1455 LINE",
"960 1523 LINE",
"407 1523 LINE",
"383 1455 LINE",
"522 1416 LINE",
"64 106 LINE",
"-86 68 LINE",
"-110 0 LINE",
"484 0 LINE",
"508 68 LINE",
"328 106 LINE"
);
},
{
closed = 1;
nodes = (
"639 765 LINE",
"810 0 LINE",
"1177 0 LINE",
"1201 68 LINE",
"1060 106 LINE",
"832 962 LINE"
);
},
{
closed = 1;
nodes = (
"486 603 LINE",
"1313 1328 LINE SMOOTH",
"1430 1423 OFFCURVE",
"1467 1441 OFFCURVE",
"1598 1455 CURVE",
"1621 1523 LINE",
"1117 1523 LINE",
"1094 1455 LINE",
"1166 1450 OFFCURVE",
"1203 1431 OFFCURVE",
"1203 1403 CURVE SMOOTH",
"1203 1383 OFFCURVE",
"1188 1360 OFFCURVE",
"1157 1333 CURVE SMOOTH",
"528 778 LINE"
);
},
{
closed = 1;
nodes = (
"601 -480 OFFCURVE",
"712 -357 OFFCURVE",
"712 -228 CURVE SMOOTH",
"712 -152 OFFCURVE",
"672 -107 OFFCURVE",
"602 -107 CURVE SMOOTH",
"527 -107 OFFCURVE",
"477 -161 OFFCURVE",
"477 -245 CURVE SMOOTH",
"477 -298 OFFCURVE",
"496 -332 OFFCURVE",
"535 -345 CURVE SMOOTH",
"553 -352 OFFCURVE",
"561 -362 OFFCURVE",
"561 -374 CURVE SMOOTH",
"561 -408 OFFCURVE",
"465 -470 OFFCURVE",
"382 -493 CURVE",
"415 -555 LINE"
);
}
);
};
components = (
{
name = K;
},
{
name = commaaccent;
transform = "{0.84, 0, 0, 1, 687, 0}";
}
);
layerId = "D3934E74-9B53-4E98-B19F-CD3DFEE08352";
width = 1322;
}
);
leftKerningGroup = I;
rightKerningGroup = K;
unicode = 0136;
},
{
glyphname = L;
layers = (
{
anchors = (
{
name = bottom;
position = "{443, 0}";
},
{
name = middle;
position = "{803, 748}";
},
{
name = topcap;
position = "{679, 1643}";
}
);
background = {
anchors = (
{
name = bottom;
position = "{443, 0}";
},
{
name = middle;
position = "{803, 748}";
},
{
name = topcap;
position = "{679, 1643}";
}
);
paths = (
{
closed = 1;
nodes = (
"902 0 LINE",
"1062 479 LINE",
"1005 479 LINE",
"942 355 OFFCURVE",
"859 204 OFFCURVE",
"769 78 CURVE",
"241 78 LINE",
"709 1435 LINE",
"877 1479 LINE",
"894 1523 LINE",
"419 1523 LINE",
"402 1479 LINE",
"532 1441 LINE",
"60 83 LINE",
"-94 45 LINE",
"-110 0 LINE"
);
}
);
};
layerId = master01;
paths = (
{
closed = 1;
nodes = (
"902 0 LINE",
"1062 479 LINE",
"1005 479 LINE",
"942 355 OFFCURVE",
"859 204 OFFCURVE",
"769 78 CURVE",
"241 78 LINE",
"709 1435 LINE",
"877 1479 LINE",
"894 1523 LINE",
"419 1523 LINE",
"402 1479 LINE",
"532 1441 LINE",
"60 83 LINE",
"-94 45 LINE",
"-110 0 LINE"
);
}
);
width = 1105;
},
{
anchors = (
{
name = bottom;
position = "{491, 0}";
},
{
name = middle;
position = "{887, 748}";
},
{
name = topcap;
position = "{705, 1643}";
}
);
background = {
anchors = (
{
name = bottom;
position = "{491, 0}";
},
{
name = middle;
position = "{887, 748}";
},
{
name = topcap;
position = "{705, 1643}";
}
);
paths = (
{
closed = 1;
nodes = (
"950 0 LINE",
"1110 479 LINE",
"1053 479 LINE",
"981 341 OFFCURVE",
"905 229 OFFCURVE",
"804 104 CURVE",
"345 104 LINE",
"806 1416 LINE",
"956 1455 LINE",
"979 1523 LINE",
"407 1523 LINE",
"383 1455 LINE",
"522 1416 LINE",
"64 106 LINE",
"-86 68 LINE",
"-110 0 LINE"
);
}
);
};
layerId = "D3934E74-9B53-4E98-B19F-CD3DFEE08352";
paths = (
{
closed = 1;
nodes = (
"950 0 LINE",
"1110 479 LINE",
"1053 479 LINE",
"981 341 OFFCURVE",
"905 229 OFFCURVE",
"804 104 CURVE",
"345 104 LINE",
"806 1416 LINE",
"956 1455 LINE",
"979 1523 LINE",
"407 1523 LINE",
"383 1455 LINE",
"522 1416 LINE",
"64 106 LINE",
"-86 68 LINE",
"-110 0 LINE"
);
}
);
width = 1142;
}
);
leftKerningGroup = I;
leftMetricsKey = I;
rightKerningGroup = L;
unicode = 004C;
},
{
glyphname = Lacute;
layers = (
{
background = {
anchors = (
{
name = bottom;
position = "{443, 0}";
},
{
name = middle;
position = "{803, 748}";
},
{
name = topcap;
position = "{679, 1643}";
}
);
paths = (
{
closed = 1;
nodes = (
"902 0 LINE",
"1062 479 LINE",
"1005 479 LINE",
"942 355 OFFCURVE",
"859 204 OFFCURVE",
"769 78 CURVE",
"241 78 LINE",
"709 1435 LINE",
"877 1479 LINE",
"894 1523 LINE",
"419 1523 LINE",
"402 1479 LINE",
"532 1441 LINE",
"60 83 LINE",
"-94 45 LINE",
"-110 0 LINE"
);
},
{
closed = 1;
nodes = (
"760 1703 LINE SMOOTH",
"848 1732 OFFCURVE",
"874 1769 OFFCURVE",
"874 1815 CURVE SMOOTH",
"874 1864 OFFCURVE",
"838 1900 OFFCURVE",
"802 1900 CURVE SMOOTH",
"775 1900 OFFCURVE",
"754 1891 OFFCURVE",
"729 1868 CURVE SMOOTH",
"491 1656 LINE",
"507 1614 LINE"
);
}
);
};
components = (
{
name = L;
},
{
name = acute.cap;
transform = "{0.84, 0, 0, 1, 473, 0}";
}
);
layerId = master01;
width = 1105;
},
{
background = {
anchors = (
{
name = bottom;
position = "{491, 0}";
},
{
name = middle;
position = "{887, 748}";
},
{
name = topcap;
position = "{705, 1643}";
}
);
paths = (
{
closed = 1;
nodes = (
"950 0 LINE",
"1110 479 LINE",
"1053 479 LINE",
"981 341 OFFCURVE",
"905 229 OFFCURVE",
"804 104 CURVE",
"345 104 LINE",
"806 1416 LINE",
"956 1455 LINE",
"979 1523 LINE",
"407 1523 LINE",
"383 1455 LINE",
"522 1416 LINE",
"64 106 LINE",
"-86 68 LINE",
"-110 0 LINE"
);
},
{
closed = 1;
nodes = (
"889 1692 LINE SMOOTH",
"935 1702 OFFCURVE",
"965 1746 OFFCURVE",
"965 1803 CURVE SMOOTH",
"965 1871 OFFCURVE",
"922 1924 OFFCURVE",
"865 1924 CURVE SMOOTH",
"831 1924 OFFCURVE",
"797 1903 OFFCURVE",
"762 1870 CURVE SMOOTH",
"554 1674 LINE",
"588 1622 LINE"
);
}
);
};
components = (
{
name = L;
},
{
name = acute.cap;
transform = "{0.84, 0, 0, 1, 105, 0}";
}
);
layerId = "D3934E74-9B53-4E98-B19F-CD3DFEE08352";
width = 1142;
}
);
leftKerningGroup = I;
rightKerningGroup = L;
unicode = 0139;
},
{
glyphname = Lcaron;
layers = (
{
background = {
anchors = (
{
name = bottom;
position = "{521, 0}";
},
{
name = middle;
position = "{881, 748}";
},
{
name = topcap;
position = "{757, 1643}";
}
);
paths = (
{
closed = 1;
nodes = (
"980 0 LINE",
"1140 479 LINE",
"1083 479 LINE",
"1020 355 OFFCURVE",
"937 204 OFFCURVE",
"847 78 CURVE",
"319 78 LINE",
"787 1435 LINE",
"955 1479 LINE",
"972 1523 LINE",
"497 1523 LINE",
"480 1479 LINE",
"610 1441 LINE",
"138 83 LINE",
"-16 45 LINE",
"-32 0 LINE"
);
},
{
closed = 1;
nodes = (
"806 1622 OFFCURVE",
"829 1643 OFFCURVE",
"870 1677 CURVE SMOOTH",
"1089 1867 LINE",
"1070 1900 LINE",
"796 1765 LINE",
"644 1900 LINE",
"602 1867 LINE",
"691 1677 LINE SMOOTH",
"709 1639 OFFCURVE",
"725 1622 OFFCURVE",
"764 1622 CURVE SMOOTH"
);
}
);
};
components = (
{
name = L;
},
{
name = caron.cap;
transform = "{0.84, 0, 0, 1, 506, 0}";
}
);
layerId = master01;
width = 1105;
},
{
background = {
anchors = (
{
name = bottom;
position = "{549, 0}";
},
{
name = middle;
position = "{945, 748}";
},
{
name = topcap;
position = "{763, 1643}";
}
);
paths = (
{
closed = 1;
nodes = (
"1008 0 LINE",
"1168 479 LINE",
"1111 479 LINE",
"1039 341 OFFCURVE",
"963 229 OFFCURVE",
"862 104 CURVE",
"403 104 LINE",
"864 1416 LINE",
"1014 1455 LINE",
"1037 1523 LINE",
"465 1523 LINE",
"441 1455 LINE",
"580 1416 LINE",
"122 106 LINE",
"-28 68 LINE",
"-52 0 LINE"
);
},
{
closed = 1;
nodes = (
"807 1622 OFFCURVE",
"839 1639 OFFCURVE",
"898 1692 CURVE SMOOTH",
"1125 1900 LINE",
"1104 1935 LINE",
"807 1810 LINE",
"639 1935 LINE",
"592 1898 LINE",
"683 1692 LINE SMOOTH",
"705 1641 OFFCURVE",
"728 1622 OFFCURVE",
"770 1622 CURVE SMOOTH"
);
}
);
};
components = (
{
name = L;
},
{
name = caron.cap;
transform = "{0.84, 0, 0, 1, 32, 0}";
}
);
layerId = "D3934E74-9B53-4E98-B19F-CD3DFEE08352";
width = 1142;
}
);
leftKerningGroup = I;
leftMetricsKey = L;
rightKerningGroup = L;
rightMetricsKey = L;
unicode = 013D;
},
{
glyphname = Lcommaaccent;
layers = (
{
background = {
anchors = (
{
name = bottom;
position = "{443, 0}";
},
{
name = middle;
position = "{803, 748}";
},
{
name = topcap;
position = "{679, 1643}";
}
);
paths = (
{
closed = 1;
nodes = (
"902 0 LINE",
"1062 479 LINE",
"1005 479 LINE",
"942 355 OFFCURVE",
"859 204 OFFCURVE",
"769 78 CURVE",
"241 78 LINE",
"709 1435 LINE",
"877 1479 LINE",
"894 1523 LINE",
"419 1523 LINE",
"402 1479 LINE",
"532 1441 LINE",
"60 83 LINE",
"-94 45 LINE",
"-110 0 LINE"
);
},
{
closed = 1;
nodes = (
"428 -506 OFFCURVE",
"502 -400 OFFCURVE",
"502 -300 CURVE SMOOTH",
"502 -229 OFFCURVE",
"473 -190 OFFCURVE",
"419 -190 CURVE SMOOTH",
"345 -190 OFFCURVE",
"310 -237 OFFCURVE",
"310 -309 CURVE SMOOTH",
"310 -358 OFFCURVE",
"326 -388 OFFCURVE",
"357 -397 CURVE SMOOTH",
"389 -406 OFFCURVE",
"395 -407 OFFCURVE",
"395 -421 CURVE SMOOTH",
"395 -452 OFFCURVE",
"341 -514 OFFCURVE",
"272 -554 CURVE",
"297 -590 LINE"
);
}
);
};
components = (
{
name = L;
},
{
alignment = -1;
name = commaaccent;
transform = "{0.84, 0, 0, 1, 302, 21}";
}
);
layerId = master01;
width = 1105;
},
{
background = {
anchors = (
{
name = bottom;
position = "{491, 0}";
},
{
name = middle;
position = "{887, 748}";
},
{
name = topcap;
position = "{705, 1643}";
}
);
paths = (
{
closed = 1;
nodes = (
"950 0 LINE",
"1110 479 LINE",
"1053 479 LINE",
"981 341 OFFCURVE",
"905 229 OFFCURVE",
"804 104 CURVE",
"345 104 LINE",
"806 1416 LINE",
"956 1455 LINE",
"979 1523 LINE",
"407 1523 LINE",
"383 1455 LINE",
"522 1416 LINE",
"64 106 LINE",
"-86 68 LINE",
"-110 0 LINE"
);
},
{
closed = 1;
nodes = (
"439 -480 OFFCURVE",
"550 -357 OFFCURVE",
"550 -228 CURVE SMOOTH",
"550 -152 OFFCURVE",
"510 -107 OFFCURVE",
"440 -107 CURVE SMOOTH",
"365 -107 OFFCURVE",
"315 -161 OFFCURVE",
"315 -245 CURVE SMOOTH",
"315 -298 OFFCURVE",
"334 -332 OFFCURVE",
"373 -345 CURVE SMOOTH",
"391 -352 OFFCURVE",
"399 -362 OFFCURVE",
"399 -374 CURVE SMOOTH",
"399 -408 OFFCURVE",
"303 -470 OFFCURVE",
"220 -493 CURVE",
"253 -555 LINE"
);
}
);
};
components = (
{
name = L;
},
{
name = commaaccent;
transform = "{0.84, 0, 0, 1, 525, 0}";
}
);
layerId = "D3934E74-9B53-4E98-B19F-CD3DFEE08352";
width = 1142;
}
);
leftKerningGroup = I;
rightKerningGroup = L;
unicode = 013B;
},
{
glyphname = Ldot;
layers = (
{
background = {
anchors = (
{
name = bottom;
position = "{443, 0}";
},
{
name = middle;
position = "{803, 748}";
},
{
name = topcap;
position = "{679, 1643}";
}
);
paths = (
{
closed = 1;
nodes = (
"902 0 LINE",
"1062 479 LINE",
"1005 479 LINE",
"942 355 OFFCURVE",
"859 204 OFFCURVE",
"769 78 CURVE",
"241 78 LINE",
"709 1435 LINE",
"877 1479 LINE",
"894 1523 LINE",
"419 1523 LINE",
"402 1479 LINE",
"532 1441 LINE",
"60 83 LINE",
"-94 45 LINE",
"-110 0 LINE"
);
},
{
closed = 1;
nodes = (
"846 617 OFFCURVE",
"907 685 OFFCURVE",
"907 755 CURVE SMOOTH",
"907 817 OFFCURVE",
"857 864 OFFCURVE",
"802 864 CURVE SMOOTH",
"738 864 OFFCURVE",
"681 802 OFFCURVE",
"681 729 CURVE SMOOTH",
"681 661 OFFCURVE",
"720 617 OFFCURVE",
"783 617 CURVE SMOOTH"
);
}
);
};
components = (
{
name = L;
},
{
name = dotaccent;
transform = "{0.84, 0, 0, 1, 663, -680}";
}
);
layerId = master01;
width = 1105;
},
{
background = {
anchors = (
{
name = bottom;
position = "{491, 0}";
},
{
name = middle;
position = "{887, 748}";
},
{
name = topcap;
position = "{705, 1643}";
}
);
paths = (
{
closed = 1;
nodes = (
"950 0 LINE",
"1110 479 LINE",
"1053 479 LINE",
"981 341 OFFCURVE",
"905 229 OFFCURVE",
"804 104 CURVE",
"345 104 LINE",
"806 1416 LINE",
"956 1455 LINE",
"979 1523 LINE",
"407 1523 LINE",
"383 1455 LINE",
"522 1416 LINE",
"64 106 LINE",
"-86 68 LINE",
"-110 0 LINE"
);
},
{
closed = 1;
nodes = (
"937 606 OFFCURVE",
"1005 680 OFFCURVE",
"1005 762 CURVE SMOOTH",
"1005 832 OFFCURVE",
"950 884 OFFCURVE",
"886 884 CURVE SMOOTH",
"815 884 OFFCURVE",
"751 815 OFFCURVE",
"751 733 CURVE SMOOTH",
"751 657 OFFCURVE",
"794 606 OFFCURVE",
"865 606 CURVE SMOOTH"
);
}
);
};
components = (
{
name = L;
},
{
name = dotaccent;
transform = "{0.84, 0, 0, 1, 387, -691}";
}
);
layerId = "D3934E74-9B53-4E98-B19F-CD3DFEE08352";
width = 1142;
}
);
leftKerningGroup = I;
rightKerningGroup = L;
unicode = 013F;
},
{
glyphname = Lslash;
layers = (
{
background = {
anchors = (
{
name = bottom;
position = "{456, 0}";
},
{
name = middle;
position = "{816, 748}";
},
{
name = topcap;
position = "{692, 1643}";
}
);
paths = (
{
closed = 1;
nodes = (
"382 714 LINE",
"441 702 LINE",
"753 877 LINE",
"756 975 LINE",
"451 803 LINE",
"393 815 LINE",
"78 638 LINE",
"78 542 LINE"
);
},
{
closed = 1;
nodes = (
"915 0 LINE",
"1075 479 LINE",
"1018 479 LINE",
"955 355 OFFCURVE",
"872 204 OFFCURVE",
"782 78 CURVE",
"254 78 LINE",
"722 1435 LINE",
"890 1479 LINE",
"907 1523 LINE",
"432 1523 LINE",
"415 1479 LINE",
"545 1441 LINE",
"73 83 LINE",
"-81 45 LINE",
"-97 0 LINE"
);
}
);
};
components = (
{
name = L;
transform = "{1, 0, 0, 1, 13, 0}";
}
);
layerId = master01;
paths = (
{
closed = 1;
nodes = (
"382 714 LINE",
"441 702 LINE",
"753 877 LINE",
"756 975 LINE",
"451 803 LINE",
"393 815 LINE",
"78 638 LINE",
"78 542 LINE"
);
}
);
width = 1118;
},
{
background = {
anchors = (
{
name = bottom;
position = "{522, 0}";
},
{
name = middle;
position = "{918, 748}";
},
{
name = topcap;
position = "{736, 1643}";
}
);
paths = (
{
closed = 1;
nodes = (
"420 699 LINE",
"549 710 LINE",
"898 912 LINE",
"901 1056 LINE",
"545 850 LINE",
"422 842 LINE",
"69 638 LINE",
"69 496 LINE"
);
},
{
closed = 1;
nodes = (
"981 0 LINE",
"1141 479 LINE",
"1084 479 LINE",
"1012 341 OFFCURVE",
"936 229 OFFCURVE",
"835 104 CURVE",
"376 104 LINE",
"837 1416 LINE",
"987 1455 LINE",
"1010 1523 LINE",
"438 1523 LINE",
"414 1455 LINE",
"553 1416 LINE",
"95 106 LINE",
"-55 68 LINE",
"-79 0 LINE"
);
}
);
};
components = (
{
name = L;
transform = "{1, 0, 0, 1, 31, 0}";
}
);
layerId = "D3934E74-9B53-4E98-B19F-CD3DFEE08352";
paths = (
{
closed = 1;
nodes = (
"420 699 LINE",
"549 710 LINE",
"898 912 LINE",
"901 1056 LINE",
"545 850 LINE",
"422 842 LINE",
"69 638 LINE",
"69 496 LINE"
);
}
);
width = 1173;
}
);
leftKerningGroup = I;
rightKerningGroup = L;
rightMetricsKey = L;
unicode = 0141;
},
{
glyphname = M;
layers = (
{
background = {
paths = (
{
closed = 1;
nodes = (
"591 -21 LINE",
"1518 1406 LINE",
"1525 1406 LINE",
"1061 83 LINE",
"900 45 LINE",
"883 0 LINE",
"1354 0 LINE",
"1372 45 LINE",
"1235 83 LINE",
"1709 1441 LINE",
"1870 1479 LINE",
"1885 1523 LINE",
"1508 1523 LINE",
"716 304 LINE",
"710 304 LINE",
"845 1523 LINE",
"465 1523 LINE",
"449 1479 LINE",
"598 1441 LINE",
"14 83 LINE",
"-146 45 LINE",
"-164 0 LINE",
"215 0 LINE",
"230 45 LINE",
"95 83 LINE",
"650 1366 LINE",
"657 1366 LINE",
"512 -21 LINE"
);
}
);
};
layerId = master01;
paths = (
{
closed = 1;
nodes = (
"591 -21 LINE",
"1518 1406 LINE",
"1525 1406 LINE",
"1061 83 LINE",
"900 45 LINE",
"883 0 LINE",
"1354 0 LINE",
"1372 45 LINE",
"1235 83 LINE",
"1709 1441 LINE",
"1870 1479 LINE",
"1885 1523 LINE",
"1508 1523 LINE",
"716 304 LINE",
"710 304 LINE",
"845 1523 LINE",
"465 1523 LINE",
"449 1479 LINE",
"598 1441 LINE",
"14 83 LINE",
"-146 45 LINE",
"-164 0 LINE",
"215 0 LINE",
"230 45 LINE",
"95 83 LINE",
"650 1366 LINE",
"657 1366 LINE",
"512 -21 LINE"
);
}
);
width = 1616;
},
{
background = {
paths = (
{
closed = 1;
nodes = (
"596 -21 LINE",
"1461 1229 LINE",
"1467 1229 LINE",
"1086 106 LINE",
"937 68 LINE",
"913 0 LINE",
"1463 0 LINE",
"1488 68 LINE",
"1347 106 LINE",
"1793 1416 LINE",
"1937 1455 LINE",
"1961 1523 LINE",
"1546 1523 LINE",
"822 476 LINE",
"806 476 LINE",
"848 1523 LINE",
"449 1523 LINE",
"425 1455 LINE",
"564 1416 LINE",
"10 106 LINE",
"-139 68 LINE",
"-164 0 LINE",
"228 0 LINE",
"253 68 LINE",
"113 106 LINE",
"587 1229 LINE",
"594 1229 LINE",
"543 -21 LINE"
);
}
);
};
guideLines = (
{
position = "{1123, 1067}";
}
);
layerId = "D3934E74-9B53-4E98-B19F-CD3DFEE08352";
paths = (
{
closed = 1;
nodes = (
"596 -21 LINE",
"1461 1229 LINE",
"1467 1229 LINE",
"1086 106 LINE",
"937 68 LINE",
"913 0 LINE",
"1463 0 LINE",
"1488 68 LINE",
"1347 106 LINE",
"1793 1416 LINE",
"1937 1455 LINE",
"1961 1523 LINE",
"1546 1523 LINE",
"822 476 LINE",
"806 476 LINE",
"848 1523 LINE",
"449 1523 LINE",
"425 1455 LINE",
"564 1416 LINE",
"10 106 LINE",
"-139 68 LINE",
"-164 0 LINE",
"228 0 LINE",
"253 68 LINE",
"113 106 LINE",
"587 1229 LINE",
"594 1229 LINE",
"543 -21 LINE"
);
}
);
width = 1715;
}
);
leftKerningGroup = M;
rightKerningGroup = I;
unicode = 004D;
userData = {
com.typemytype.robofont.guides = (
{
angle = 0;
isGlobal = 0;
magnetic = 5;
x = 0;
y = 23;
},
{
angle = 0;
isGlobal = 0;
magnetic = 5;
x = 0;
y = 728;
}
);
};
},
{
glyphname = N;
layers = (
{
anchors = (
{
name = bottom;
position = "{498, -21}";
},
{
name = topcap;
position = "{1091, 1643}";
}
);
background = {
anchors = (
{
name = bottom;
position = "{498, -21}";
},
{
name = topcap;
position = "{1091, 1643}";
}
);
paths = (
{
closed = 1;
nodes = (
"930 -21 LINE",
"1439 1441 LINE",
"1599 1479 LINE",
"1615 1523 LINE",
"1236 1523 LINE",
"1221 1479 LINE",
"1358 1441 LINE",
"978 351 LINE",
"971 351 LINE",
"745 1523 LINE",
"419 1523 LINE",
"402 1479 LINE",
"540 1441 LINE",
"68 83 LINE",
"-93 45 LINE",
"-110 0 LINE",
"268 0 LINE",
"283 45 LINE",
"148 83 LINE",
"591 1353 LINE",
"596 1353 LINE",
"870 -21 LINE"
);
}
);
};
layerId = master01;
paths = (
{
closed = 1;
nodes = (
"930 -21 LINE",
"1439 1441 LINE",
"1599 1479 LINE",
"1615 1523 LINE",
"1236 1523 LINE",
"1221 1479 LINE",
"1358 1441 LINE",
"978 351 LINE",
"971 351 LINE",
"745 1523 LINE",
"419 1523 LINE",
"402 1479 LINE",
"540 1441 LINE",
"68 83 LINE",
"-93 45 LINE",
"-110 0 LINE",
"268 0 LINE",
"283 45 LINE",
"148 83 LINE",
"591 1353 LINE",
"596 1353 LINE",
"870 -21 LINE"
);
}
);
width = 1237;
},
{
anchors = (
{
name = bottom;
position = "{535, -21}";
},
{
name = topcap;
position = "{1128, 1643}";
}
);
background = {
anchors = (
{
name = bottom;
position = "{535, -21}";
},
{
name = topcap;
position = "{1128, 1643}";
}
);
paths = (
{
closed = 1;
nodes = (
"951 -21 LINE",
"1461 1416 LINE",
"1610 1455 LINE",
"1635 1523 LINE",
"1241 1523 LINE",
"1217 1455 LINE",
"1356 1416 LINE",
"1022 462 LINE",
"1015 462 LINE",
"736 1523 LINE",
"407 1523 LINE",
"383 1455 LINE",
"522 1416 LINE",
"71 106 LINE",
"-78 68 LINE",
"-102 0 LINE",
"286 0 LINE",
"309 68 LINE",
"170 106 LINE",
"553 1200 LINE",
"557 1200 LINE",
"879 -21 LINE"
);
}
);
};
layerId = "D3934E74-9B53-4E98-B19F-CD3DFEE08352";
paths = (
{
closed = 1;
nodes = (
"951 -21 LINE",
"1461 1416 LINE",
"1610 1455 LINE",
"1635 1523 LINE",
"1241 1523 LINE",
"1217 1455 LINE",
"1356 1416 LINE",
"1022 462 LINE",
"1015 462 LINE",
"736 1523 LINE",
"407 1523 LINE",
"383 1455 LINE",
"522 1416 LINE",
"71 106 LINE",
"-78 68 LINE",
"-102 0 LINE",
"286 0 LINE",
"309 68 LINE",
"170 106 LINE",
"553 1200 LINE",
"557 1200 LINE",
"879 -21 LINE"
);
}
);
width = 1217;
}
);
leftKerningGroup = N;
leftMetricsKey = I;
rightKerningGroup = N;
rightMetricsKey = I;
unicode = 004E;
},
{
glyphname = Nacute;
layers = (
{
background = {
anchors = (
{
name = bottom;
position = "{498, -21}";
},
{
name = topcap;
position = "{1091, 1643}";
}
);
paths = (
{
closed = 1;
nodes = (
"930 -21 LINE",
"1439 1441 LINE",
"1599 1479 LINE",
"1615 1523 LINE",
"1236 1523 LINE",
"1221 1479 LINE",
"1358 1441 LINE",
"978 351 LINE",
"971 351 LINE",
"745 1523 LINE",
"419 1523 LINE",
"402 1479 LINE",
"540 1441 LINE",
"68 83 LINE",
"-93 45 LINE",
"-110 0 LINE",
"268 0 LINE",
"283 45 LINE",
"148 83 LINE",
"591 1353 LINE",
"596 1353 LINE",
"870 -21 LINE"
);
},
{
closed = 1;
nodes = (
"1172 1703 LINE SMOOTH",
"1260 1732 OFFCURVE",
"1286 1769 OFFCURVE",
"1286 1815 CURVE SMOOTH",
"1286 1864 OFFCURVE",
"1250 1900 OFFCURVE",
"1214 1900 CURVE SMOOTH",
"1187 1900 OFFCURVE",
"1166 1891 OFFCURVE",
"1141 1868 CURVE SMOOTH",
"903 1656 LINE",
"919 1614 LINE"
);
}
);
};
components = (
{
name = N;
},
{
name = acute.cap;
transform = "{0.84, 0, 0, 1, 885, 0}";
}
);
layerId = master01;
width = 1237;
},
{
background = {
anchors = (
{
name = bottom;
position = "{535, -21}";
},
{
name = topcap;
position = "{1128, 1643}";
}
);
paths = (
{
closed = 1;
nodes = (
"951 -21 LINE",
"1461 1416 LINE",
"1610 1455 LINE",
"1635 1523 LINE",
"1241 1523 LINE",
"1217 1455 LINE",
"1356 1416 LINE",
"1022 462 LINE",
"1015 462 LINE",
"736 1523 LINE",
"407 1523 LINE",
"383 1455 LINE",
"522 1416 LINE",
"71 106 LINE",
"-78 68 LINE",
"-102 0 LINE",
"286 0 LINE",
"309 68 LINE",
"170 106 LINE",
"553 1200 LINE",
"557 1200 LINE",
"879 -21 LINE"
);
},
{
closed = 1;
nodes = (
"1312 1692 LINE SMOOTH",
"1358 1702 OFFCURVE",
"1388 1746 OFFCURVE",
"1388 1803 CURVE SMOOTH",
"1388 1871 OFFCURVE",
"1345 1924 OFFCURVE",
"1288 1924 CURVE SMOOTH",
"1254 1924 OFFCURVE",
"1220 1903 OFFCURVE",
"1185 1870 CURVE SMOOTH",
"977 1674 LINE",
"1011 1622 LINE"
);
}
);
};
components = (
{
name = N;
},
{
name = acute.cap;
transform = "{0.84, 0, 0, 1, 528, 0}";
}
);
layerId = "D3934E74-9B53-4E98-B19F-CD3DFEE08352";
width = 1217;
}
);
leftKerningGroup = N;
rightKerningGroup = N;
unicode = 0143;
},
{
glyphname = Ncaron;
layers = (
{
background = {
anchors = (
{
name = bottom;
position = "{498, -21}";
},
{
name = topcap;
position = "{1091, 1643}";
}
);
paths = (
{
closed = 1;
nodes = (
"930 -21 LINE",
"1439 1441 LINE",
"1599 1479 LINE",
"1615 1523 LINE",
"1236 1523 LINE",
"1221 1479 LINE",
"1358 1441 LINE",
"978 351 LINE",
"971 351 LINE",
"745 1523 LINE",
"419 1523 LINE",
"402 1479 LINE",
"540 1441 LINE",
"68 83 LINE",
"-93 45 LINE",
"-110 0 LINE",
"268 0 LINE",
"283 45 LINE",
"148 83 LINE",
"591 1353 LINE",
"596 1353 LINE",
"870 -21 LINE"
);
},
{
closed = 1;
nodes = (
"1140 1622 OFFCURVE",
"1163 1643 OFFCURVE",
"1204 1677 CURVE SMOOTH",
"1423 1867 LINE",
"1404 1900 LINE",
"1130 1765 LINE",
"978 1900 LINE",
"936 1867 LINE",
"1025 1677 LINE SMOOTH",
"1043 1639 OFFCURVE",
"1059 1622 OFFCURVE",
"1098 1622 CURVE SMOOTH"
);
}
);
};
components = (
{
name = N;
},
{
name = caron.cap;
transform = "{0.84, 0, 0, 1, 918, 0}";
}
);
layerId = master01;
width = 1237;
},
{
background = {
anchors = (
{
name = bottom;
position = "{535, -21}";
},
{
name = topcap;
position = "{1128, 1643}";
}
);
paths = (
{
closed = 1;
nodes = (
"951 -21 LINE",
"1461 1416 LINE",
"1610 1455 LINE",
"1635 1523 LINE",
"1241 1523 LINE",
"1217 1455 LINE",
"1356 1416 LINE",
"1022 462 LINE",
"1015 462 LINE",
"736 1523 LINE",
"407 1523 LINE",
"383 1455 LINE",
"522 1416 LINE",
"71 106 LINE",
"-78 68 LINE",
"-102 0 LINE",
"286 0 LINE",
"309 68 LINE",
"170 106 LINE",
"553 1200 LINE",
"557 1200 LINE",
"879 -21 LINE"
);
},
{
closed = 1;
nodes = (
"1172 1622 OFFCURVE",
"1204 1639 OFFCURVE",
"1263 1692 CURVE SMOOTH",
"1490 1900 LINE",
"1469 1935 LINE",
"1172 1810 LINE",
"1004 1935 LINE",
"957 1898 LINE",
"1048 1692 LINE SMOOTH",
"1070 1641 OFFCURVE",
"1093 1622 OFFCURVE",
"1135 1622 CURVE SMOOTH"
);
}
);
};
components = (
{
name = N;
},
{
name = caron.cap;
transform = "{0.84, 0, 0, 1, 455, 0}";
}
);
layerId = "D3934E74-9B53-4E98-B19F-CD3DFEE08352";
width = 1217;
}
);
leftKerningGroup = N;
rightKerningGroup = N;
unicode = 0147;
},
{
glyphname = Ncommaaccent;
layers = (
{
background = {
anchors = (
{
name = bottom;
position = "{498, -21}";
},
{
name = topcap;
position = "{1091, 1643}";
}
);
paths = (
{
closed = 1;
nodes = (
"930 -21 LINE",
"1439 1441 LINE",
"1599 1479 LINE",
"1615 1523 LINE",
"1236 1523 LINE",
"1221 1479 LINE",
"1358 1441 LINE",
"978 351 LINE",
"971 351 LINE",
"745 1523 LINE",
"419 1523 LINE",
"402 1479 LINE",
"540 1441 LINE",
"68 83 LINE",
"-93 45 LINE",
"-110 0 LINE",
"268 0 LINE",
"283 45 LINE",
"148 83 LINE",
"591 1353 LINE",
"596 1353 LINE",
"870 -21 LINE"
);
},
{
closed = 1;
nodes = (
"469 -527 OFFCURVE",
"543 -421 OFFCURVE",
"543 -321 CURVE SMOOTH",
"543 -250 OFFCURVE",
"514 -211 OFFCURVE",
"460 -211 CURVE SMOOTH",
"386 -211 OFFCURVE",
"351 -258 OFFCURVE",
"351 -330 CURVE SMOOTH",
"351 -379 OFFCURVE",
"367 -409 OFFCURVE",
"398 -418 CURVE SMOOTH",
"430 -427 OFFCURVE",
"436 -428 OFFCURVE",
"436 -442 CURVE SMOOTH",
"436 -473 OFFCURVE",
"382 -535 OFFCURVE",
"313 -575 CURVE",
"338 -611 LINE"
);
}
);
};
components = (
{
name = N;
},
{
name = commaaccent;
transform = "{0.84, 0, 0, 1, 343, 0}";
}
);
layerId = master01;
width = 1237;
},
{
background = {
anchors = (
{
name = bottom;
position = "{535, -21}";
},
{
name = topcap;
position = "{1128, 1643}";
}
);
paths = (
{
closed = 1;
nodes = (
"951 -21 LINE",
"1461 1416 LINE",
"1610 1455 LINE",
"1635 1523 LINE",
"1241 1523 LINE",
"1217 1455 LINE",
"1356 1416 LINE",
"1022 462 LINE",
"1015 462 LINE",
"736 1523 LINE",
"407 1523 LINE",
"383 1455 LINE",
"522 1416 LINE",
"71 106 LINE",
"-78 68 LINE",
"-102 0 LINE",
"286 0 LINE",
"309 68 LINE",
"170 106 LINE",
"553 1200 LINE",
"557 1200 LINE",
"879 -21 LINE"
);
},
{
closed = 1;
nodes = (
"483 -501 OFFCURVE",
"594 -378 OFFCURVE",
"594 -249 CURVE SMOOTH",
"594 -173 OFFCURVE",
"554 -128 OFFCURVE",
"484 -128 CURVE SMOOTH",
"409 -128 OFFCURVE",
"359 -182 OFFCURVE",
"359 -266 CURVE SMOOTH",
"359 -319 OFFCURVE",
"378 -353 OFFCURVE",
"417 -366 CURVE SMOOTH",
"435 -373 OFFCURVE",
"443 -383 OFFCURVE",
"443 -395 CURVE SMOOTH",
"443 -429 OFFCURVE",
"347 -491 OFFCURVE",
"264 -514 CURVE",
"297 -576 LINE"
);
}
);
};
components = (
{
name = N;
},
{
name = commaaccent;
transform = "{0.84, 0, 0, 1, 569, -21}";
}
);
layerId = "D3934E74-9B53-4E98-B19F-CD3DFEE08352";
width = 1217;
}
);
leftKerningGroup = N;
rightKerningGroup = N;
unicode = 0145;
},
{
glyphname = Ndotaccent;
layers = (
{
background = {
anchors = (
{
name = bottom;
position = "{498, -21}";
},
{
name = topcap;
position = "{1091, 1643}";
}
);
paths = (
{
closed = 1;
nodes = (
"930 -21 LINE",
"1439 1441 LINE",
"1599 1479 LINE",
"1615 1523 LINE",
"1236 1523 LINE",
"1221 1479 LINE",
"1358 1441 LINE",
"978 351 LINE",
"971 351 LINE",
"745 1523 LINE",
"419 1523 LINE",
"402 1479 LINE",
"540 1441 LINE",
"68 83 LINE",
"-93 45 LINE",
"-110 0 LINE",
"268 0 LINE",
"283 45 LINE",
"148 83 LINE",
"591 1353 LINE",
"596 1353 LINE",
"870 -21 LINE"
);
},
{
closed = 1;
nodes = (
"1154 1654 OFFCURVE",
"1215 1719 OFFCURVE",
"1215 1792 CURVE SMOOTH",
"1215 1852 OFFCURVE",
"1165 1900 OFFCURVE",
"1110 1900 CURVE SMOOTH",
"1046 1900 OFFCURVE",
"989 1839 OFFCURVE",
"989 1765 CURVE SMOOTH",
"989 1698 OFFCURVE",
"1028 1654 OFFCURVE",
"1091 1654 CURVE SMOOTH"
);
}
);
};
components = (
{
name = N;
},
{
name = dotaccent.cap;
transform = "{0.84, 0, 0, 1, 971, 0}";
}
);
layerId = master01;
width = 1237;
},
{
background = {
anchors = (
{
name = bottom;
position = "{535, -21}";
},
{
name = topcap;
position = "{1128, 1643}";
}
);
paths = (
{
closed = 1;
nodes = (
"951 -21 LINE",
"1461 1416 LINE",
"1610 1455 LINE",
"1635 1523 LINE",
"1241 1523 LINE",
"1217 1455 LINE",
"1356 1416 LINE",
"1022 462 LINE",
"1015 462 LINE",
"736 1523 LINE",
"407 1523 LINE",
"383 1455 LINE",
"522 1416 LINE",
"71 106 LINE",
"-78 68 LINE",
"-102 0 LINE",
"286 0 LINE",
"309 68 LINE",
"170 106 LINE",
"553 1200 LINE",
"557 1200 LINE",
"879 -21 LINE"
);
},
{
closed = 1;
nodes = (
"1246 1654 OFFCURVE",
"1314 1728 OFFCURVE",
"1314 1810 CURVE SMOOTH",
"1314 1880 OFFCURVE",
"1259 1932 OFFCURVE",
"1195 1932 CURVE SMOOTH",
"1124 1932 OFFCURVE",
"1060 1863 OFFCURVE",
"1060 1781 CURVE SMOOTH",
"1060 1705 OFFCURVE",
"1103 1654 OFFCURVE",
"1174 1654 CURVE SMOOTH"
);
}
);
};
components = (
{
name = N;
},
{
name = dotaccent.cap;
transform = "{0.84, 0, 0, 1, 580, 0}";
}
);
layerId = "D3934E74-9B53-4E98-B19F-CD3DFEE08352";
width = 1217;
}
);
leftKerningGroup = N;
rightKerningGroup = N;
unicode = 1E44;
},
